<?xml version="1.0" encoding="UTF-8"?>
<svg version="1.1" xmlns="http://www.w3.org/2000/svg" width="512" height="512">
<path d="M0 0 C1.22116451 0.90650554 2.44252871 1.81274213 3.6640625 2.71875 C4.62554199 3.44191406 4.62554199 3.44191406 5.60644531 4.1796875 C9.1609034 6.83478343 12.7728445 9.4102201 16.375 12 C17.89877944 13.10108944 19.42221316 14.20265748 20.9453125 15.3046875 C24.12547942 17.60452214 27.30791915 19.90116001 30.4921875 22.1953125 C31.68763184 23.05709106 31.68763184 23.05709106 32.90722656 23.9362793 C34.41658023 25.02425338 35.92631641 26.1116971 37.43652344 27.19848633 C38.13036133 27.69888428 38.82419922 28.19928223 39.5390625 28.71484375 C40.54888184 29.43969971 40.54888184 29.43969971 41.57910156 30.17919922 C43.01329707 31.23653333 44.42522068 32.32443577 45.81933594 33.43408203 C46.52606445 33.99337402 47.23279297 34.55266602 47.9609375 35.12890625 C48.59306152 35.64267822 49.22518555 36.1564502 49.87646484 36.68579102 C50.74198975 37.18163696 50.74198975 37.18163696 51.625 37.6875 C53.11 37.1925 53.11 37.1925 54.625 36.6875 C61.72359155 36.12411972 61.72359155 36.12411972 65.125 38.25 C66.625 40.6875 66.625 40.6875 66.25 43.9375 C66.23803725 47.70501309 66.23803725 47.70501309 68.58984375 49.7421875 C71.20589913 51.82716397 73.88518942 53.76883148 76.625 55.6875 C77.63820313 56.50541016 77.63820313 56.50541016 78.671875 57.33984375 C81.91535989 60.00384653 81.91535989 60.00384653 85.92578125 60.5703125 C89.36982389 59.44389624 92.06153419 57.55555042 95 55.5 C105.8579963 48.24644934 122.54246709 39.85929194 135.90625 40.95703125 C138.625 41.6875 138.625 41.6875 141.0625 43.8125 C143.12330673 47.60438439 142.76550533 49.58168083 141.625 53.6875 C139.48639957 56.3892733 137.64847401 57.19485755 134.3359375 57.9765625 C133.48515625 58.19078857 132.634375 58.40501465 131.7578125 58.62573242 C130.39269531 58.96568237 130.39269531 58.96568237 129 59.3125 C104.97965122 65.78982791 85.97420911 79.93095379 73.3125 101.5625 C61.68294626 122.32442878 58.47054234 147.24140221 64.81640625 170.19921875 C71.70440788 193.18600679 86.08238698 213.15931731 107.36328125 224.76171875 C129.7159819 236.54887277 153.86699588 240.20442818 178.31347656 232.80834961 C202.11755367 225.12758751 220.94882232 209.56697446 232.56542969 187.34204102 C242.73753119 166.73778201 245.34197032 141.69604286 238.30957031 119.68603516 C234.05728025 107.27189592 228.30218482 95.28004445 218.8515625 85.94921875 C216.625 83.6875 216.625 83.6875 216.625 81.6875 C215.73554687 81.28724609 215.73554687 81.28724609 214.828125 80.87890625 C212.58681375 79.66684963 211.17921814 78.40814083 209.375 76.625 C198.28430386 66.7688897 184.60691246 61.74188779 170.53515625 57.828125 C169.63667969 57.57546875 168.73820312 57.3228125 167.8125 57.0625 C167.04292969 56.86398438 166.27335937 56.66546875 165.48046875 56.4609375 C163.625 55.6875 163.625 55.6875 161.625 52.6875 C161.19708219 48.76492004 160.99086527 46.57998592 163.3125 43.3125 C166.38013034 41.15686787 168.75714584 40.42976619 172.53588867 40.95117188 C174.83965053 41.43778199 177.10230149 42.00921938 179.375 42.625 C180.21047363 42.85026367 181.04594727 43.07552734 181.90673828 43.30761719 C209.04280929 51.02563852 231.928963 69.00932355 245.69897461 93.63476562 C259.12583986 118.68951286 263.42089421 148.82981243 255.35253906 176.40771484 C246.4210293 204.3951102 228.18476869 227.57006831 202.1875 241.5625 C184.93760342 250.41601955 161.06276448 257.54694112 141.625 252.6875 C141.625 260.6075 141.625 268.5275 141.625 276.6875 C177.93741298 275.46896265 214.26482849 267.88814074 240.625 240.6875 C241.285 240.0275 241.945 239.3675 242.625 238.6875 C243.285 238.6875 243.945 238.6875 244.625 238.6875 C244.8725 238.11515625 245.12 237.5428125 245.375 236.953125 C246.818294 234.33715463 248.5349761 232.57231013 250.625 230.4375 C274.74280111 204.0319975 282.04104939 169.04023458 280.83203125 134.31982422 C278.98799767 101.96660292 262.01401576 71.2181856 238.33203125 49.59375 C236.39903962 47.43516895 236.08042729 46.54015347 236.125 43.6875 C236.29237276 40.79357105 236.60495282 39.71957549 238.1875 37.1875 C241.73116452 35.00678337 243.51599694 34.93418277 247.625 35.6875 C250.62574854 37.69587501 253.08555932 40.13288337 255.625 42.6875 C256.18960937 43.20441406 256.75421875 43.72132812 257.3359375 44.25390625 C276.19030452 61.91327818 288.08536489 87.07863611 294.625 111.6875 C294.80579102 112.36490234 294.98658203 113.04230469 295.17285156 113.74023438 C302.42454651 142.7181804 298.90840175 177.69217294 286.625 204.6875 C286.32190918 205.35571777 286.01881836 206.02393555 285.70654297 206.71240234 C276.61192979 226.41354456 263.54216257 244.92973961 246.625 258.6875 C245.22314453 259.84572266 245.22314453 259.84572266 243.79296875 261.02734375 C217.89333627 281.97233491 185.22360742 293.10500736 151.984375 292.76171875 C150.98132324 292.75636108 149.97827148 292.75100342 148.94482422 292.7454834 C146.50478998 292.73166914 144.06494344 292.71226194 141.625 292.6875 C141.63499275 294.29909752 141.63499275 294.29909752 141.64518738 295.94325256 C141.70606664 306.0804633 141.75100539 316.21763682 141.78043652 326.35498905 C141.79607613 331.56640825 141.8172834 336.77767957 141.85131836 341.98901367 C141.8839724 347.02053209 141.90186583 352.05190848 141.90963173 357.0835247 C141.91516437 359.00082064 141.9259683 360.91810902 141.94219017 362.83534431 C141.96404476 365.52589697 141.96696357 368.21586665 141.96557617 370.90649414 C141.98175491 372.08901512 141.98175491 372.08901512 141.9982605 373.29542542 C141.9693857 378.48823437 141.05299199 382.07339984 138.625 386.6875 C134.19879838 391.00020927 130.68624481 391.81027364 124.67017651 391.81892776 C123.66679467 391.82276891 122.66341284 391.82661005 121.6296255 391.8305676 C120.52934954 391.82970112 119.42907359 391.82883463 118.29545593 391.82794189 C116.53976853 391.83239858 116.53976853 391.83239858 114.7486127 391.8369453 C111.49890424 391.84412478 108.24922798 391.84680455 104.99951279 391.84754276 C101.49497964 391.84939428 97.99045793 391.85694208 94.4859314 391.86367798 C86.82272109 391.87725741 79.15951602 391.8832853 71.49629569 391.88768864 C66.71147091 391.89045149 61.92664814 391.89468891 57.14182472 391.89919281 C43.89411769 391.91138455 30.64641228 391.92168432 17.39869976 391.9250679 C16.55089675 391.92528747 15.70309374 391.92550703 14.82959973 391.92573325 C13.97977027 391.92595153 13.12994081 391.92616981 12.25435895 391.9263947 C10.53228422 391.92683817 8.81020949 391.92728473 7.08813477 391.92773438 C6.23392651 391.9279558 5.37971824 391.92817723 4.49962489 391.92840537 C-9.34348258 391.93235391 -23.18653742 391.94981005 -37.02962456 391.9730939 C-51.24195306 391.9968059 -65.45425514 392.00926967 -79.66660374 392.01043582 C-87.64640525 392.01135262 -95.62613817 392.01710628 -103.60592079 392.03525543 C-110.40039682 392.05065431 -117.19478307 392.05577812 -123.98927323 392.04751733 C-127.45546698 392.04361016 -130.92147993 392.04454351 -134.38765144 392.05857468 C-138.14675908 392.07123461 -141.90540094 392.06544924 -145.664505 392.05499268 C-146.7580888 392.06304908 -147.85167259 392.07110548 -148.97839528 392.07940602 C-156.19500693 392.03237664 -161.23539132 391.52107087 -166.78006363 386.51687336 C-168.87275546 382.80449546 -168.9357313 379.5675304 -168.89398193 375.41752625 C-168.90148319 374.58837654 -168.90898444 373.75922684 -168.916713 372.90495139 C-168.93700086 370.12868104 -168.92888543 367.35322654 -168.92089844 364.5769043 C-168.92963285 362.58603609 -168.94011817 360.5951749 -168.95222473 358.60432434 C-168.98012135 353.19977841 -168.9834886 347.79546113 -168.98250484 342.39085364 C-168.98563078 336.74267928 -169.01124236 331.09460838 -169.03448486 325.44648743 C-169.07507279 314.7510332 -169.09539217 304.05563999 -169.10845876 293.36012059 C-169.12431932 281.18363978 -169.16273099 269.00726294 -169.20305204 256.83084238 C-169.28548925 231.78309646 -169.33955751 206.73535337 -169.375 181.6875 C-170.31593506 182.33726807 -171.25687012 182.98703613 -172.22631836 183.65649414 C-176.48454801 186.40319589 -179.47201133 186.40879629 -184.375 185.6875 C-194.44435049 181.85155696 -201.17830446 168.09277059 -207.02587891 159.60498047 C-208.13428171 158.02962838 -209.30001309 156.49476512 -210.48046875 154.97265625 C-214.09263299 150.22793695 -215.41841574 146.33117625 -214.984375 140.3046875 C-212.6792367 130.40441403 -200.53934025 124.64949319 -192.70410156 119.29492188 C-188.90523154 116.67314407 -185.17235064 113.96183876 -181.4375 111.25 C-179.92844384 110.15747139 -178.41932901 109.06502379 -176.91015625 107.97265625 C-176.16137207 107.43012207 -175.41258789 106.88758789 -174.64111328 106.32861328 C-172.38567182 104.6952285 -170.12871607 103.06396263 -167.87109375 101.43359375 C-167.12827148 100.89686035 -166.38544922 100.36012695 -165.62011719 99.80712891 C-164.13135981 98.73313843 -162.6411385 97.66117414 -161.14941406 96.59130859 C-157.22266143 93.77040512 -153.33527256 90.90943672 -149.48828125 87.98046875 C-148.68455078 87.3771875 -147.88082031 86.77390625 -147.05273438 86.15234375 C-145.51643583 84.99789975 -143.98971041 83.83056399 -142.47460938 82.6484375 C-137.99694446 79.30986403 -135.16723983 77.90652384 -129.375 78.6875 C-127 79.75 -127 79.75 -125.375 81.6875 C-124.37343841 85.29312174 -123.90101123 87.58393836 -125.3984375 91.0703125 C-128.07818514 94.61859495 -131.26957376 96.72777356 -134.9375 99.1875 C-136.48250314 100.25023825 -138.02674987 101.31407684 -139.5703125 102.37890625 C-140.36598633 102.92434082 -141.16166016 103.46977539 -141.98144531 104.03173828 C-145.79950678 106.67291462 -149.55579816 109.39757673 -153.3125 112.125 C-154.81764435 113.21493211 -156.32285304 114.30477538 -157.828125 115.39453125 C-158.57642578 115.93674316 -159.32472656 116.47895508 -160.09570312 117.03759766 C-162.38998452 118.69834677 -164.68674037 120.3556125 -166.984375 122.01171875 C-167.74306885 122.55876465 -168.5017627 123.10581055 -169.28344727 123.66943359 C-170.78887826 124.75476306 -172.29457 125.83973095 -173.80053711 126.92431641 C-177.4751653 129.57530687 -181.13480481 132.24371944 -184.76953125 134.94921875 C-185.46216064 135.46339355 -186.15479004 135.97756836 -186.8684082 136.50732422 C-188.17603806 137.48005191 -189.48072326 138.45675457 -190.78198242 139.43798828 C-195.15350917 142.6875 -195.15350917 142.6875 -197.375 142.6875 C-192.06945786 151.29582995 -186.31053243 159.50673598 -180.375 167.6875 C-177.71351091 166.41507348 -175.30266173 165.03149338 -172.8984375 163.32421875 C-172.237229 162.85636963 -171.57602051 162.38852051 -170.89477539 161.90649414 C-170.18699951 161.40110107 -169.47922363 160.89570801 -168.75 160.375 C-168.00290771 159.84447021 -167.25581543 159.31394043 -166.48608398 158.76733398 C-158.84143756 153.32896233 -151.2382096 147.83311582 -143.64111328 142.32861328 C-139.888552 139.61101827 -136.13156581 136.89955527 -132.375 134.1875 C-130.87497854 133.10419638 -129.37497854 132.02086304 -127.875 130.9375 C-106.875 115.77083333 -85.875 100.60416667 -64.875 85.4375 C-64.13217773 84.9010083 -63.38935547 84.3645166 -62.62402344 83.81176758 C-61.12731299 82.73082809 -59.63056832 81.64993599 -58.13378906 80.5690918 C-53.56103549 77.26693464 -48.98928243 73.96340279 -44.41943359 70.65722656 C-42.90307322 69.56198776 -41.3851937 68.46884882 -39.86572266 67.37792969 C-36.35005737 64.85247271 -32.85731025 62.30714426 -29.4140625 59.68359375 C-28.79305664 59.21848389 -28.17205078 58.75337402 -27.53222656 58.27416992 C-25.87561829 57.03171372 -24.2302858 55.77426197 -22.5859375 54.515625 C-18.75401265 52.33394516 -15.79067307 51.32197109 -11.375 51.6875 C-5.46997725 53.56779859 -0.57878597 57.55065155 4.25 61.3125 C5.66046783 62.39061999 7.07194363 63.46742244 8.484375 64.54296875 C9.18240234 65.07583496 9.88042969 65.60870117 10.59960938 66.15771484 C13.52746397 68.36913443 16.50608399 70.50427309 19.5 72.625 C24.98033001 76.51173072 30.43303349 80.43471086 35.875 84.375 C45.89892997 92.10083087 45.89892997 92.10083087 56.625 98.6875 C56.86476563 97.83285156 57.10453125 96.97820312 57.3515625 96.09765625 C58.75019214 92.3522462 60.6823617 89.34015509 63 86.125 C63.38671875 85.57392578 63.7734375 85.02285156 64.171875 84.45507812 C66.00504914 81.86218249 67.89404898 79.36106002 69.9140625 76.91015625 C71.82832665 74.89084569 71.82832665 74.89084569 71.625 72.6875 C69.20219922 70.83206396 66.76874755 69.09221589 64.25 67.375 C62.67771802 66.28481607 61.10612504 65.1936379 59.53515625 64.1015625 C58.72062988 63.53727539 57.90610352 62.97298828 57.06689453 62.39160156 C53.24158128 59.72206682 49.46367114 56.98840982 45.6875 54.25 C44.94258301 53.71076904 44.19766602 53.17153809 43.43017578 52.6159668 C41.91692702 51.52049708 40.40390609 50.42471257 38.89111328 49.32861328 C35.13855206 46.61101831 31.3815875 43.89952514 27.625 41.1875 C23.07720514 37.90361457 18.52990621 34.61904952 13.984375 31.33203125 C4.88573003 24.7539698 -4.22988682 18.20082016 -13.375 11.6875 C-20.67517272 16.07997681 -27.48114551 20.93063607 -34.26220703 26.07348633 C-38.54778654 29.3221671 -42.8641246 32.51305938 -47.25 35.625 C-47.81211182 36.02396484 -48.37422363 36.42292969 -48.95336914 36.83398438 C-49.52821045 37.24197266 -50.10305176 37.64996094 -50.6953125 38.0703125 C-54.85567111 41.02319114 -58.99066684 44.01083897 -63.125 47 C-63.87700684 47.54342041 -64.62901367 48.08684082 -65.40380859 48.64672852 C-70.1184882 52.05433353 -74.83101722 55.46490271 -79.54248047 58.87695312 C-81.81370113 60.51820364 -84.09028457 62.1518027 -86.3671875 63.78515625 C-88.76194266 65.50663097 -91.10996028 67.25508383 -93.4453125 69.05859375 C-100.06183056 74.0867428 -100.06183056 74.0867428 -104.75 74.4375 C-108.375 73.6875 -108.375 73.6875 -110.9375 71.625 C-112.375 68.6875 -112.375 68.6875 -112.625 65.3125 C-109.53733768 56.35827927 -98.49788957 51.14639931 -91.00390625 45.92578125 C-86.44671539 42.74833445 -81.93654829 39.50908347 -77.4375 36.25 C-76.69193848 35.71036621 -75.94637695 35.17073242 -75.17822266 34.61474609 C-73.66565554 33.51964099 -72.15328583 32.42426316 -70.64111328 31.32861328 C-66.14314241 28.0711946 -61.63930139 24.82189596 -57.13623047 21.5715332 C-53.32108539 18.81716632 -49.50816544 16.05980864 -45.69921875 13.296875 C-41.95406014 10.58125261 -38.20278969 7.87433305 -34.4453125 5.17578125 C-33.09729596 4.2067354 -31.75085621 3.2354911 -30.40625 2.26171875 C-28.63098431 0.9783496 -26.84819961 -0.29370661 -25.0625 -1.5625 C-24.07636719 -2.26890625 -23.09023437 -2.9753125 -22.07421875 -3.703125 C-14.05720757 -8.4831664 -6.90557648 -5.20902127 0 0 Z M-19.875 72.9375 C-25.00758936 76.93590283 -30.23385511 80.7672969 -35.5625 84.5 C-41.51007964 88.66673046 -47.42973537 92.86713895 -53.3125 97.125 C-54.05846436 97.66487549 -54.80442871 98.20475098 -55.57299805 98.76098633 C-57.08513427 99.85588044 -58.59709699 100.95101422 -60.10888672 102.04638672 C-63.861448 104.76398173 -67.61843419 107.47544473 -71.375 110.1875 C-72.87502146 111.27080362 -74.37502146 112.35413696 -75.875 113.4375 C-120.875 145.9375 -120.875 145.9375 -123.0036515 147.47022027 C-124.49226249 148.54824042 -125.97572902 149.63343868 -127.4515115 150.72895509 C-131.24065039 153.52373265 -135.02598405 156.11597843 -139.11956596 158.44609356 C-148.69324488 163.95416497 -148.69324488 163.95416497 -154.00018692 173.1682682 C-154.80842035 178.49789006 -154.60702691 183.79561825 -154.41845703 189.1652832 C-154.41337105 191.20657905 -154.41624667 193.24790775 -154.42642212 195.28918457 C-154.43156038 200.79736897 -154.32622401 206.29841134 -154.20009089 211.80494332 C-154.08709309 217.57142557 -154.0769577 223.338096 -154.05563354 229.10551453 C-153.99982133 240.01122746 -153.85230934 250.91366869 -153.67134273 261.81794471 C-153.46971681 274.23834394 -153.37107535 286.65890462 -153.2808249 299.08053458 C-153.0929829 324.61841817 -152.7630752 350.15182013 -152.375 375.6875 C-139.835 375.6875 -127.295 375.6875 -114.375 375.6875 C-114.3656543 372.52768555 -114.35630859 369.36787109 -114.34667969 366.11230469 C-114.31294161 355.68270027 -114.25741042 345.25329439 -114.19109726 334.82384872 C-114.15155573 328.49925433 -114.11939992 322.17480057 -114.10400391 315.85009766 C-114.08888145 309.74858561 -114.0545141 303.64746002 -114.00669098 297.54611969 C-113.99183165 295.2161113 -113.98395639 292.88604775 -113.98311615 290.55599213 C-113.98075849 287.29699802 -113.95377461 284.03908239 -113.92089844 280.78027344 C-113.92844398 279.32910378 -113.92844398 279.32910378 -113.93614197 277.84861755 C-113.83418535 271.33391095 -113.83418535 271.33391095 -111.52838135 268.08795166 C-108.56763053 266.16242723 -106.8392817 266.11011972 -103.375 266.6875 C-101.22558594 268.02441406 -101.22558594 268.02441406 -99.375 270.6875 C-98.74546913 274.3825725 -98.7699981 278.05543573 -98.765625 281.796875 C-98.74908875 282.87882141 -98.73255249 283.96076782 -98.71551514 285.07550049 C-98.66694899 288.52955758 -98.64564434 291.98317411 -98.625 295.4375 C-98.59684764 297.77997018 -98.56692126 300.12241977 -98.53515625 302.46484375 C-98.4611872 308.20569292 -98.41166481 313.94629627 -98.375 319.6875 C-91.775 319.6875 -85.175 319.6875 -78.375 319.6875 C-78.36041748 317.84188477 -78.34583496 315.99626953 -78.33081055 314.09472656 C-78.27886884 307.95189182 -78.21350763 301.80931048 -78.13928509 295.66670609 C-78.09482543 291.94758581 -78.05551808 288.22856895 -78.02856445 284.50927734 C-78.00228468 280.91046395 -77.96171525 277.31205391 -77.91181374 273.71349335 C-77.88735554 271.69322419 -77.87716466 269.67279818 -77.86735535 267.65240479 C-77.64491326 253.48831578 -74.79868463 241.15298776 -65.19921875 230.39453125 C-61.60562363 227.03178806 -57.49158332 224.36409271 -53.375 221.6875 C-54.82105617 217.95615863 -56.48833514 214.46806954 -58.375 210.9453125 C-61.0378789 204.93303124 -61.73281466 199.24594351 -62 192.75 C-62.03867188 191.97076172 -62.07734375 191.19152344 -62.1171875 190.38867188 C-62.21044127 188.48862621 -62.29375962 186.58809722 -62.375 184.6875 C-67.34122349 184.66284902 -72.30741166 184.64466351 -77.27368164 184.63256836 C-78.96444316 184.6275281 -80.65520029 184.62069595 -82.34594727 184.61206055 C-84.77100707 184.59998143 -87.19600944 184.59426877 -89.62109375 184.58984375 C-90.38151474 184.58468246 -91.14193573 184.57952118 -91.92539978 184.57420349 C-93.7423257 184.57400762 -95.55913127 184.62552723 -97.375 184.6875 C-99.07320139 186.38570139 -98.5086004 188.55456172 -98.5168457 190.87817383 C-98.52388016 191.98634964 -98.53091461 193.09452545 -98.53816223 194.23628235 C-98.54232651 195.44350449 -98.54649078 196.65072662 -98.55078125 197.89453125 C-98.57397923 200.42513853 -98.59809656 202.95573752 -98.62304688 205.48632812 C-98.65819492 209.49590874 -98.6891995 213.50518118 -98.70092773 217.51489258 C-98.71636636 221.37098511 -98.7565554 225.22617571 -98.80078125 229.08203125 C-98.79887283 230.28318069 -98.79696442 231.48433014 -98.79499817 232.72187805 C-98.81148911 233.83951035 -98.82798004 234.95714264 -98.8449707 236.10864258 C-98.85083694 237.09157791 -98.85670319 238.07451324 -98.86274719 239.0872345 C-99.51986606 242.42286001 -100.72524813 243.61803645 -103.375 245.6875 C-106.375 246.1875 -106.375 246.1875 -109.375 245.6875 C-112.06936896 243.59678872 -113.23786318 242.40757544 -113.88293457 239.02044678 C-113.88611694 238.0053302 -113.88929932 236.99021362 -113.89257812 235.94433594 C-113.90518677 234.78923523 -113.91779541 233.63413452 -113.93078613 232.44403076 C-113.92268921 231.19921936 -113.91459229 229.95440796 -113.90625 228.671875 C-113.9100769 227.38694153 -113.91390381 226.10200806 -113.91784668 224.77813721 C-113.92373957 222.05778771 -113.91519232 219.33796404 -113.89648438 216.61767578 C-113.87378452 213.14976574 -113.88675991 209.68310023 -113.91077423 206.21523666 C-113.92881428 202.88818665 -113.9161296 199.56146025 -113.90625 196.234375 C-113.91434692 194.99766052 -113.92244385 193.76094604 -113.93078613 192.48675537 C-113.85458826 185.42993173 -113.26572513 180.64682333 -109.375 174.6875 C-105.11356524 171.29574581 -101.65644455 169.53235069 -96.21411133 169.64086914 C-95.37926712 169.65320084 -94.54442291 169.66553253 -93.6842804 169.67823792 C-92.78428818 169.69289597 -91.88429596 169.70755402 -90.95703125 169.72265625 C-89.04362653 169.72868825 -87.13021102 169.73185163 -85.21679688 169.73242188 C-82.20476943 169.73413757 -79.19668927 169.74980347 -76.18530273 169.81420898 C-64.70245709 170.48216901 -64.70245709 170.48216901 -54.37963867 166.54174805 C-52.3780922 164.01297631 -50.91666951 161.51032046 -49.375 158.6875 C-41.01072103 149.69748073 -30.27604475 144.35791473 -18.00390625 143.43359375 C-2.86520353 142.95324597 10.30266773 147.51752142 21.625 157.6875 C22.71598513 159.58809696 23.77764346 161.5057678 24.8125 163.4375 C26.8116183 166.36048268 28.20676781 168.35128538 31.74853516 169.19091797 C37.07446398 169.66088479 42.32060454 169.24854183 47.625 168.6875 C47.46902344 167.53636719 47.31304687 166.38523437 47.15234375 165.19921875 C44.96557562 147.86140281 45.88653603 131.73395523 49.625 114.6875 C41.99426365 108.68907768 34.23076616 102.9346826 26.28198242 97.36450195 C20.99243631 93.65728359 15.73492969 89.90896204 10.5 86.125 C9.75862793 85.58939453 9.01725586 85.05378906 8.25341797 84.50195312 C4.55430503 81.82437631 0.8659286 79.13310969 -2.80859375 76.421875 C-3.5051709 75.90826416 -4.20174805 75.39465332 -4.91943359 74.86547852 C-6.23787765 73.89171842 -7.55468515 72.91573751 -8.86962891 71.93725586 C-14.41624218 67.83694932 -14.7672687 68.90991716 -19.875 72.9375 Z M-40.375 171.6875 C-46.40959557 180.37176857 -47.16856733 188.21241123 -46.375 198.6875 C-44.26068376 208.0108704 -38.55570664 214.64544285 -30.875 220.0625 C-22.95287863 224.97048092 -14.57906467 226.09713102 -5.50390625 224.03515625 C1.13794864 221.88875932 5.87132402 218.76434255 10.625 213.6875 C11.47578125 212.79224609 11.47578125 212.79224609 12.34375 211.87890625 C17.93137491 205.29153473 20.09592839 197.07486138 19.5625 188.5 C17.99433028 178.18309396 12.5551482 171.6176482 5.375 164.4375 C-10.75083715 154.17560363 -27.95255995 157.67588294 -40.375 171.6875 Z M34.625 184.6875 C34.625 187.6575 34.625 190.6275 34.625 193.6875 C33.76014544 203.87213055 30.22872625 212.65055588 25.625 221.6875 C26.34945312 222.18378906 27.07390625 222.68007813 27.8203125 223.19140625 C39.00528105 231.05071082 46.23276404 239.15683001 49.19091797 252.86376953 C50.09155498 258.722469 49.98943439 264.6508891 50.0390625 270.56640625 C50.0578071 271.98844993 50.07738287 273.41048287 50.0977478 274.83250427 C50.14872788 278.54608788 50.18853436 282.25970741 50.22589111 285.97344971 C50.26614678 289.77470537 50.31713988 293.57581601 50.3671875 297.37695312 C50.46354187 304.81370937 50.54707947 312.25052358 50.625 319.6875 C57.225 319.6875 63.825 319.6875 70.625 319.6875 C70.85165179 306.36944096 71.03479852 293.05267936 71.14312172 279.73312187 C71.19513308 273.54709638 71.26558629 267.36246777 71.37939453 261.17724609 C71.48869716 255.19892951 71.54797665 249.2219494 71.57377243 243.24271011 C71.59213535 240.9709585 71.62799419 238.69927343 71.68230057 236.42809677 C71.97554872 223.64624725 71.84629264 214.23562226 63.04443359 204.39880371 C59.77235521 200.73199579 57.92125799 196.78342941 56 192.3125 C54.88625 189.79625 53.7725 187.28 52.625 184.6875 C46.685 184.6875 40.745 184.6875 34.625 184.6875 Z M86.625 231.6875 C86.625 279.2075 86.625 326.7275 86.625 375.6875 C99.495 375.6875 112.365 375.6875 125.625 375.6875 C125.625 334.1075 125.625 292.5275 125.625 249.6875 C120.675 248.0375 115.725 246.3875 110.625 244.6875 C103.04766521 241.43304173 95.93060684 237.51938063 89.19921875 232.75390625 C87.8039164 231.59402531 87.8039164 231.59402531 86.625 231.6875 Z M-46.87890625 236.3671875 C-54.46927652 240.38212514 -58.30997331 245.69563289 -61.375 253.6875 C-62.29422469 257.46540547 -62.49656452 260.97183453 -62.48852539 264.85473633 C-62.48840454 266.09259888 -62.48828369 267.33046143 -62.48815918 268.60583496 C-62.48304321 269.89735474 -62.47792725 271.18887451 -62.47265625 272.51953125 C-62.47164917 273.71364624 -62.47064209 274.90776123 -62.46960449 276.13806152 C-62.46437863 280.59205081 -62.45041736 285.04602638 -62.4375 289.5 C-62.416875 299.461875 -62.39625 309.42375 -62.375 319.6875 C-30.365 319.6875 1.645 319.6875 34.625 319.6875 C34.7075 309.49875 34.79 299.31 34.875 288.8125 C34.91141602 285.61449707 34.94783203 282.41649414 34.98535156 279.12158203 C34.99704329 276.56283233 35.00723396 274.00407515 35.015625 271.4453125 C35.0463208 269.4816272 35.0463208 269.4816272 35.07763672 267.47827148 C35.0814629 257.36375928 33.47238595 248.81727604 26.3984375 241.22265625 C21.95186257 237.37352861 16.55852101 234.18716493 10.625 233.6875 C7.62083097 234.60729549 7.62083097 234.60729549 4.625 236.0625 C-7.22868981 241.47528183 -19.39469664 240.94027596 -31.5703125 236.7578125 C-34.375 235.6875 -34.375 235.6875 -36.9375 234.4609375 C-40.84750254 233.22026362 -43.27292351 234.74904963 -46.87890625 236.3671875 Z M-98.375 335.6875 C-98.375 348.8875 -98.375 362.0875 -98.375 375.6875 C-42.605 375.6875 13.165 375.6875 70.625 375.6875 C70.625 362.4875 70.625 349.2875 70.625 335.6875 C14.855 335.6875 -40.915 335.6875 -98.375 335.6875 Z " fill="#466DC8" transform="translate(214.375,63.3125)"/>
<path d="M0 0 C3.04889085 0.61656605 4.14903571 2.05334571 6.10546875 4.42578125 C6.58648682 6.88092041 6.58648682 6.88092041 6.55957031 9.65332031 C6.55911713 11.21448578 6.55911713 11.21448578 6.55865479 12.80718994 C6.53800964 13.92398132 6.5173645 15.04077271 6.49609375 16.19140625 C6.49043396 17.3399408 6.48477417 18.48847534 6.47894287 19.67181396 C6.45655206 23.34022699 6.40634817 27.00766342 6.35546875 30.67578125 C6.33540736 33.16274631 6.31715597 35.64972668 6.30078125 38.13671875 C6.2566783 44.23340614 6.18973824 50.32952392 6.10546875 56.42578125 C7.89162598 56.39436035 7.89162598 56.39436035 9.71386719 56.36230469 C14.13431764 56.28987163 18.55471571 56.24396953 22.97558594 56.20605469 C24.8884361 56.18594673 26.80122486 56.15865618 28.71386719 56.12402344 C31.46434686 56.07546876 34.21401352 56.05280467 36.96484375 56.03515625 C37.81914978 56.01451111 38.67345581 55.99386597 39.5536499 55.97259521 C45.49742972 55.970352 45.49742972 55.970352 48.64135742 58.32519531 C50.21301576 60.58008081 50.67328654 61.70307075 50.66796875 64.42578125 C50.68988281 65.08578125 50.71179688 65.74578125 50.734375 66.42578125 C49.69221378 69.73998338 48.06932676 70.63042248 45.10546875 72.42578125 C41.42990237 73.02537871 37.79174195 72.98624586 34.07421875 72.95703125 C32.47120911 72.96277161 32.47120911 72.96277161 30.83581543 72.96862793 C28.57982438 72.97134589 26.32380176 72.9639929 24.06787109 72.94726562 C20.61744841 72.92585558 17.16910802 72.94707253 13.71875 72.97265625 C11.52473499 72.97001295 9.33072128 72.96488794 7.13671875 72.95703125 C6.10639526 72.96512817 5.07607178 72.9732251 4.01452637 72.98156738 C-3.1369704 72.88807791 -3.1369704 72.88807791 -7.02148438 70.51757812 C-10.02101378 67.16773871 -10.02680913 65.19219739 -10.05566406 60.77026367 C-10.06527161 59.58530807 -10.07487915 58.40035248 -10.08477783 57.17948914 C-10.08902771 55.89307022 -10.09327759 54.60665131 -10.09765625 53.28125 C-10.10335632 51.96417557 -10.1090564 50.64710114 -10.1149292 49.29011536 C-10.1254395 46.49833795 -10.13128163 43.70658933 -10.13476562 40.91479492 C-10.1402436 37.34366233 -10.16425602 33.77291232 -10.19273758 30.20189953 C-10.21588657 26.79085705 -10.21781544 23.37986697 -10.22265625 19.96875 C-10.23500305 18.68840378 -10.24734985 17.40805756 -10.2600708 16.08891296 C-10.2570697 14.89450089 -10.2540686 13.70008881 -10.25097656 12.46948242 C-10.25462219 11.42072433 -10.25826782 10.37196625 -10.26202393 9.29142761 C-9.35565857 2.22374232 -6.60211909 0.35921473 0 0 Z " fill="#456BC5" transform="translate(367.89453125,145.57421875)"/>
<path d="M0 0 C1.10988281 0.60199219 2.21976562 1.20398438 3.36328125 1.82421875 C4.48089844 2.41847656 5.59851563 3.01273437 6.75 3.625 C9.52840751 5.41668335 11.02963595 6.6832904 12.67578125 9.51171875 C13.17578125 12.44921875 13.17578125 12.44921875 12.67578125 15.51171875 C10.55078125 18.38671875 10.55078125 18.38671875 7.67578125 20.51171875 C2.18747257 21.25831935 -1.36827495 19.35212657 -6.01171875 16.76171875 C-6.67494141 16.41367188 -7.33816406 16.065625 -8.02148438 15.70703125 C-11.55996986 13.78277933 -14.41089907 12.12897595 -16.32421875 8.51171875 C-16.20077056 4.9934452 -16.06007748 2.51516248 -13.94921875 -0.36328125 C-9.19016963 -3.65800757 -4.93767198 -2.2106381 0 0 Z " fill="#4164B8" transform="translate(430.32421875,77.48828125)"/>
<path d="M0 0 C2.375 1.125 2.375 1.125 4 3 C5.10002152 6.37339933 5.37478026 8.15674441 3.921875 11.42578125 C1.52575196 14.63522247 -1.25469509 16.38998333 -4.6875 18.3125 C-5.27466797 18.67150391 -5.86183594 19.03050781 -6.46679688 19.40039062 C-11.1562183 22.07933105 -14.61813238 22.47737791 -20 22 C-22.5 20.4375 -22.5 20.4375 -24 18 C-24.66970472 13.90736004 -24.60649587 11.88808324 -22.25 8.4375 C-16.33470371 3.36724604 -7.91799941 -1.48462489 0 0 Z " fill="#4267BC" transform="translate(313,76)"/>
<path d="M0 0 C1.80184505 3.10317758 1.96039199 6.51041947 1.125 9.9375 C-1.52053896 13.62644491 -4.21595321 14.58405804 -8.62109375 15.40429688 C-9.32363281 15.51837891 -10.02617187 15.63246094 -10.75 15.75 C-11.44480469 15.88341797 -12.13960938 16.01683594 -12.85546875 16.15429688 C-17.69144322 17.0058291 -22.37098446 17.49171654 -26.6875 14.8125 C-28.57277177 11.8357551 -28.81471156 9.43422962 -28.875 5.9375 C-27.33260581 3.20455751 -26.05008112 1.38492568 -23.04760742 0.24169922 C-20.87036139 -0.26700073 -18.71382863 -0.625586 -16.5 -0.9375 C-15.7575 -1.06640625 -15.015 -1.1953125 -14.25 -1.328125 C-9.29495078 -2.11603035 -4.53747936 -2.5712383 0 0 Z " fill="#4266BB" transform="translate(357.875,66.0625)"/>
<path d="M0 0 C0.70318359 0.08765625 1.40636719 0.1753125 2.13085938 0.265625 C11.64559409 1.54971291 11.64559409 1.54971291 14.9375 5.5 C16.34477934 8.94001617 16.13705528 10.71931836 15.0625 14.25 C13.38742916 16.48869531 12.54200951 17.17467165 9.75 17.61328125 C-8.4915239 17.26860129 -8.4915239 17.26860129 -13.9375 12.25 C-15.10129881 8.68101699 -15.24670437 6.96605223 -13.75 3.5 C-9.77340686 -1.43646045 -5.8991012 -0.86039762 0 0 Z " fill="#4367BD" transform="translate(386.9375,64.75)"/>
<path d="M0 0 C0.66 0.33 1.32 0.66 2 1 C-2.29 5.29 -6.58 9.58 -11 14 C-11 10.30159372 -10.17133056 9.68584567 -7.75 7 C-7.14671875 6.319375 -6.5434375 5.63875 -5.921875 4.9375 C-4.06233388 3.06284066 -2.15205789 1.52358081 0 0 Z " fill="#16223E" transform="translate(155,288)"/>
</svg>
