<svg id="svg" version="1.1" viewBox="0 0 300 300" width="300" height="300" xmlns="http://www.w3.org/2000/svg"><svg xmlns="http://www.w3.org/2000/svg"><defs><clipPath id="clip-1"><rect x="0" y="0" transform="scale(0.14648,0.14648)" width="2048" height="2048" fill="none"/></clipPath></defs><g clip-path="url(#clip-1)" fill="none" fill-rule="nonzero" stroke="none" stroke-width="1" stroke-linecap="butt" stroke-linejoin="miter" stroke-miterlimit="10" stroke-dasharray="" stroke-dashoffset="0" font-family="none" font-weight="none" font-size="none" text-anchor="none" style="mix-blend-mode: normal"><path d="M233.02588,25.7042c13.80762,-0.21929 27.04102,4.44331 37.25244,13.83618c10.54834,9.61875 16.78564,23.07539 17.30713,37.34106c0.50391,14.09385 -4.61719,27.80962 -14.23242,38.12563c-3.27539,3.53599 -7.30664,7.39482 -10.74609,10.83589l-19.7959,19.77349l-59.44775,59.42651l-33.80859,33.80127l-10.06187,10.05615c-5.29922,5.29248 -9.00513,9.12744 -15.29561,13.35938c-11.00098,7.43408 -23.87402,11.61914 -37.14375,12.07324c-18.91436,0.74414 -37.35967,-5.99854 -51.33442,-18.76611c-14.19346,-12.97412 -22.59415,-31.0957 -23.32267,-50.31152c-0.71408,-18.99609 6.10358,-37.50586 18.9693,-51.49951c2.67832,-2.87109 5.80239,-5.88135 8.5938,-8.67041l14.52158,-14.52393l45.0085,-45.00776l27.31655,-27.33164l8.5002,-8.50708c1.60781,-1.60825 3.29692,-3.44795 5.03496,-4.88218c3.58257,-2.95664 9.1314,-2.41406 12.36284,0.7374c1.78418,1.75459 2.77881,4.15884 2.75684,6.66123c0,4.57178 -2.88574,6.81226 -5.87549,9.78882l-74.26714,74.26113l-20.2418,20.21807c-5.57974,5.57373 -12.15513,11.49902 -16.38647,18.04102c-5.53286,8.57813 -8.48452,18.56396 -8.50356,28.771c-0.0293,14.10645 5.55747,27.64307 15.52676,37.62451c10.00664,10.03271 23.61753,15.63721 37.7877,15.55664c12.2458,-0.03223 24.09873,-4.32422 33.5272,-12.13916c3.39229,-2.81689 7.26357,-6.9126 10.40757,-10.0708c9.12261,-8.92529 18.24902,-18.26221 27.28257,-27.29297l56.84473,-56.83301l31.80762,-31.81846l9.89941,-9.88506c2.34814,-2.34155 4.85449,-4.74961 7.02832,-7.22813c5.77441,-6.58579 8.66602,-15.68687 8.07422,-24.39155c-0.58447,-9.10986 -4.78125,-17.60947 -11.66016,-23.61138c-7.22314,-6.26191 -15.78223,-8.96221 -25.27002,-8.28721c-6.44238,0.40737 -12.62842,2.67715 -17.80518,6.53364c-2.77441,2.06689 -5.32178,4.75591 -7.77539,7.21304l-9.10547,9.1229l-30.92871,30.95449l-44.97495,45.01143l-14.18525,14.18071c-2.55088,2.54736 -5.24839,5.15625 -7.68794,7.79297c-2.82729,3.0542 -4.09937,7.48975 -3.75337,11.64551c0.34541,4.16309 2.37861,8.00244 5.6272,10.62744c4.65,3.80127 11.06016,4.61572 16.51333,2.10059c3.09346,-1.44873 5.86992,-4.59814 8.27974,-7.00928l8.65063,-8.66016l40.78696,-40.78257l11.98096,-12.00396c1.54688,-1.55156 4.79297,-4.97373 6.40576,-6.23218c1.41211,-1.11416 3.12305,-1.78359 4.91602,-1.92334c2.52539,-0.21533 5.03174,0.59194 6.95654,2.24062c4.06934,3.46333 4.34619,9.62388 0.70605,13.4688c-1.59668,1.68721 -3.24316,3.29868 -4.88672,4.93813l-8.89014,8.87988l-27.88184,27.88433l-20.58018,20.58984c-3.40723,3.41309 -9.47871,9.8584 -13.16602,12.48193c-5.13237,3.67236 -11.17925,5.85352 -17.47324,6.30469c-9.15791,0.62109 -18.1875,-2.42139 -25.10273,-8.45801c-6.96226,-6.104 -11.16094,-14.7627 -11.64141,-24.01025c-0.51665,-9.31055 2.94331,-18.73096 9.28828,-25.46924c2.68242,-2.84766 5.64404,-5.72607 8.42007,-8.49771l14.95811,-14.94009l46.21069,-46.1855l28.68164,-28.64795l8.85498,-8.84839c3.97852,-3.97178 7.3916,-7.52842 12.13037,-10.63506c8.89307,-5.82993 17.56641,-8.37334 28.05469,-8.89805z" fill="#000000"/></g></svg></svg>