<?xml version="1.0" encoding="UTF-8"?>
<svg version="1.1" xmlns="http://www.w3.org/2000/svg" width="512" height="512">
<path d="M0 0 C1.93137742 -0.12780302 3.86244325 -0.2602879 5.79349583 -0.39290875 C64.69254713 -4.30365623 123.1438803 2.99043934 181.91568679 7.37639505 C181.91568679 93.83639505 181.91568679 180.29639505 181.91568679 269.37639505 C186.53568679 270.03639505 191.15568679 270.69639505 195.91568679 271.37639505 C219.11834371 277.36867281 238.77560085 292.09527253 251.19888991 312.54241067 C263.59679684 333.87998484 267.42263517 358.37138638 261.45914382 382.37932473 C257.12139191 398.31949124 249.45336333 411.49033396 237.91568679 423.37639505 C236.99722975 424.40506692 236.99722975 424.40506692 236.06021804 425.45452005 C224.16927396 438.33426332 206.08777717 446.62693114 188.91568679 449.37639505 C186.60568679 449.37639505 184.29568679 449.37639505 181.91568679 449.37639505 C181.91568679 471.15639505 181.91568679 492.93639505 181.91568679 515.37639505 C57.17568679 515.37639505 -67.56431321 515.37639505 -196.08431321 515.37639505 C-206.58597223 293.75249477 -206.58597223 293.75249477 -204.33871061 240.13142949 C-204.17508511 236.20164033 -204.01568527 232.27172916 -203.85951787 228.34163648 C-201.21579084 163.50917168 -196.51327956 100.29420082 -145.87611562 53.48969251 C-145.18169583 52.85417935 -144.48727603 52.21866618 -143.77181321 51.56389505 C-143.07984062 50.92462548 -142.38786803 50.2853559 -141.67492658 49.62671453 C-101.5111712 12.8509794 -52.75929637 3.48636243 0 0 Z M-47.08431321 24.37639505 C-47.08431321 67.60639505 -47.08431321 110.83639505 -47.08431321 155.37639505 C-90.64431321 155.37639505 -134.20431321 155.37639505 -179.08431321 155.37639505 C-179.08431321 268.56639505 -179.08431321 381.75639505 -179.08431321 498.37639505 C-65.56431321 498.37639505 47.95568679 498.37639505 164.91568679 498.37639505 C164.91568679 482.20639505 164.91568679 466.03639505 164.91568679 449.37639505 C159.63568679 448.38639505 154.35568679 447.39639505 148.91568679 446.37639505 C136.02996014 442.30142166 125.2727934 437.06000149 114.91568679 428.37639505 C113.82320632 427.51981302 113.82320632 427.51981302 112.70865554 426.6459263 C97.0218474 413.76131506 86.27216978 392.454592 83.91568679 372.37639505 C82.33369374 343.40388037 88.29820422 319.88387458 107.25162429 297.63420755 C123.21854345 280.60636352 142.3793693 274.74218492 164.91568679 269.37639505 C164.91568679 188.52639505 164.91568679 107.67639505 164.91568679 24.37639505 C94.95568679 24.37639505 24.99568679 24.37639505 -47.08431321 24.37639505 Z M-70.00095445 41.16605264 C-70.84374452 42.00602288 -71.68653459 42.84599313 -72.55486375 43.71141702 C-73.48634233 44.64491983 -74.4178209 45.57842263 -75.3775261 46.54021341 C-76.36267485 47.52400827 -77.34803646 48.50759001 -78.33359605 49.49097329 C-81.01762371 52.17042515 -83.69845808 54.85305116 -86.37861639 57.53637272 C-89.17717074 60.33744991 -91.97815394 63.13609655 -94.77875596 65.93512613 C-99.48242722 70.63697546 -104.18398003 75.34093539 -108.88436204 80.04607278 C-114.32713331 85.49428671 -119.77349788 90.93888864 -125.22174346 96.3816278 C-129.89023083 101.04558467 -134.55677587 105.71147822 -139.22168803 110.37901103 C-142.01185134 113.17073746 -144.80269557 115.96177415 -147.59528619 118.7510727 C-150.2199373 121.37284601 -152.84215084 123.99703264 -155.46246225 126.62314302 C-156.88973506 128.05238003 -158.31948662 129.47914032 -159.74929124 130.90584451 C-161.00924661 132.17002961 -161.00924661 132.17002961 -162.29465562 133.45975381 C-163.03079119 134.19626641 -163.76692676 134.932779 -164.52536947 135.69161016 C-166.19750713 137.11616156 -166.19750713 137.11616156 -166.08431321 138.37639505 C-132.75431321 138.37639505 -99.42431321 138.37639505 -65.08431321 138.37639505 C-65.08431321 105.04639505 -65.08431321 71.71639505 -65.08431321 37.37639505 C-67.08200313 37.37639505 -68.70232177 39.86808474 -70.00095445 41.16605264 Z M118.91568679 310.37639505 C104.63011297 326.85797131 98.74885032 345.7793128 99.91568679 367.37639505 C102.57673139 387.03040953 112.0852914 404.55405166 127.28678054 417.37639505 C143.80420881 429.52714688 163.18673026 435.43577305 183.66568679 432.68889505 C201.03126345 429.43819597 214.61958629 421.79944644 226.91568679 409.37639505 C227.58342116 408.73057473 228.25115554 408.08475442 228.93912429 407.4193638 C242.12017997 393.73134444 246.55356343 375.30479177 246.38883132 356.87126809 C245.86801641 339.85188154 239.88126989 325.35401174 228.91568679 312.37639505 C228.45678054 311.7731138 227.99787429 311.16983255 227.52506179 310.54827005 C216.97601413 297.08914028 199.82011891 290.00507566 183.54068679 286.68889505 C158.72134004 284.54929619 136.29691901 292.34828848 118.91568679 310.37639505 Z " fill="#4971D0" transform="translate(222.08431321382523,-5.376395046710968)"/>
<path d="M0 0 C43.56 0 87.12 0 132 0 C132 48.84 132 97.68 132 148 C88.44 148 44.88 148 0 148 C0 99.16 0 50.32 0 0 Z M17 17 C17 54.62 17 92.24 17 131 C49.01 131 81.02 131 114 131 C114 93.38 114 55.76 114 17 C81.99 17 49.98 17 17 17 Z " fill="#4970CE" transform="translate(215,51)"/>
<path d="M0 0 C92.4 0 184.8 0 280 0 C280 5.61 280 11.22 280 17 C187.6 17 95.2 17 0 17 C0 11.39 0 5.78 0 0 Z " fill="#4B74D5" transform="translate(75,452)"/>
<path d="M0 0 C92.4 0 184.8 0 280 0 C280 5.61 280 11.22 280 17 C187.6 17 95.2 17 0 17 C0 11.39 0 5.78 0 0 Z " fill="#466DC8" transform="translate(75,231)"/>
<path d="M0 0 C2.99943905 1.34572887 5.08076179 2.83537101 7.39160156 5.16455078 C8.35214447 6.12532028 8.35214447 6.12532028 9.33209229 7.10549927 C10.01140808 7.79513763 10.69072388 8.484776 11.390625 9.1953125 C12.09523865 9.90275604 12.79985229 10.61019958 13.52581787 11.33908081 C15.7719539 13.59639862 18.01103009 15.86057633 20.25 18.125 C21.77297717 19.65800953 23.29640939 21.19056715 24.8203125 22.72265625 C28.55216815 26.47654573 32.27825351 30.23608914 36 34 C40.83298806 29.97251947 45.38110004 25.75620587 49.80859375 21.2890625 C50.72597069 20.36956314 50.72597069 20.36956314 51.66188049 19.43148804 C53.58947559 17.49835436 55.51353928 15.56175013 57.4375 13.625 C58.75432404 12.30315301 60.07137926 10.98153628 61.38867188 9.66015625 C64.59512373 6.44275701 67.79841629 3.22224319 71 0 C72.04796218 0.84643099 73.08792692 1.70276192 74.125 2.5625 C74.70507812 3.03816406 75.28515625 3.51382812 75.8828125 4.00390625 C78.82159088 6.77459952 81.37148276 9.93339656 84 13 C72.78 24.22 61.56 35.44 50 47 C54.50832201 52.32942719 54.50832201 52.32942719 59.25146484 57.36499023 C59.81159271 57.92504257 60.37172058 58.48509491 60.94882202 59.06211853 C61.53032013 59.63845535 62.11181824 60.21479218 62.7109375 60.80859375 C63.63043686 61.72597069 63.63043686 61.72597069 64.56851196 62.66188049 C66.50164564 64.58947559 68.43824987 66.51353928 70.375 68.4375 C71.69684699 69.75432404 73.01846372 71.07137926 74.33984375 72.38867188 C77.55724299 75.59512373 80.77775681 78.79841629 84 82 C83.15356901 83.04796218 82.29723808 84.08792692 81.4375 85.125 C80.72400391 85.99511719 80.72400391 85.99511719 79.99609375 86.8828125 C77.22540048 89.82159088 74.06660344 92.37148276 71 95 C59.78 83.78 48.56 72.56 37 61 C31.67057281 65.50832201 31.67057281 65.50832201 26.63500977 70.25146484 C26.07495743 70.81159271 25.51490509 71.37172058 24.93788147 71.94882202 C24.36154465 72.53032013 23.78520782 73.11181824 23.19140625 73.7109375 C22.27402931 74.63043686 22.27402931 74.63043686 21.33811951 75.56851196 C19.41052441 77.50164564 17.48646072 79.43824987 15.5625 81.375 C14.24567596 82.69684699 12.92862074 84.01846372 11.61132812 85.33984375 C8.40487627 88.55724299 5.20158371 91.77775681 2 95 C0.95203782 94.15356901 -0.08792692 93.29723808 -1.125 92.4375 C-1.99511719 91.72400391 -1.99511719 91.72400391 -2.8828125 90.99609375 C-5.82159088 88.22540048 -8.37148276 85.06660344 -11 82 C0.22 70.78 11.44 59.56 23 48 C18.49167799 42.67057281 18.49167799 42.67057281 13.74853516 37.63500977 C13.18840729 37.07495743 12.62827942 36.51490509 12.05117798 35.93788147 C11.46967987 35.36154465 10.88818176 34.78520782 10.2890625 34.19140625 C9.36956314 33.27402931 9.36956314 33.27402931 8.43148804 32.33811951 C6.49835436 30.41052441 4.56175013 28.48646072 2.625 26.5625 C1.30315301 25.24567596 -0.01846372 23.92862074 -1.33984375 22.61132812 C-4.55724299 19.40487627 -7.77775681 16.20158371 -11 13 C-9.30413874 9.36696916 -7.26199512 7.05450954 -4.375 4.25 C-3.55773437 3.45078125 -2.74046875 2.6515625 -1.8984375 1.828125 C-0.95871094 0.92320312 -0.95871094 0.92320312 0 0 Z " fill="#456AC3" transform="translate(359,307)"/>
<path d="M0 0 C67.98 0 135.96 0 206 0 C206 5.94 206 11.88 206 18 C138.02 18 70.04 18 0 18 C0 12.06 0 6.12 0 0 Z " fill="#476EC9" transform="translate(75,378)"/>
<path d="M0 0 C67.98 0 135.96 0 206 0 C206 5.61 206 11.22 206 17 C138.02 17 70.04 17 0 17 C0 11.39 0 5.78 0 0 Z " fill="#466DC8" transform="translate(75,305)"/>
</svg>
