<svg id="svg" version="1.1" viewBox="0 0 300 300" width="300" height="300" xmlns="http://www.w3.org/2000/svg"><svg xmlns="http://www.w3.org/2000/svg"><defs><clipPath id="clip-1"><rect x="0" y="0" transform="scale(0.14648,0.14648)" width="2048" height="2048" fill="none"/></clipPath></defs><g clip-path="url(#clip-1)" fill="none" fill-rule="nonzero" stroke="none" stroke-width="1" stroke-linecap="butt" stroke-linejoin="miter" stroke-miterlimit="10" stroke-dasharray="" stroke-dashoffset="0" font-family="none" font-weight="none" font-size="none" text-anchor="none" style="mix-blend-mode: normal"><path d="M66.82354,0h6.67983c0.91963,0.40807 1.9103,0.6422 2.93379,1.07808c3.42979,1.4607 5.82612,3.95492 7.25552,7.39257c1.154,2.77531 1.00327,5.73973 1.00708,8.67359c0.00117,0.80757 -0.0646,2.04829 0.06035,2.82085c2.87388,0.14561 6.84478,0.01802 9.82031,0.01772l19.37051,0.00015l59.49243,-0.00249l29.73633,0.00337l7.89697,0.00732c1.06201,0.00117 3.28711,0.07778 4.22021,-0.10503c0.18311,-0.56924 0.01904,-3.03062 0.04395,-3.85166c0.04541,-1.44328 -0.06738,-3.85572 0.25049,-5.23481c0.9917,-4.28479 3.54785,-7.61191 7.5,-9.56444c0.87598,-0.43269 2.91357,-0.94657 3.36914,-1.23523h6.56982l0.11133,0.04433c1.00049,0.38977 2.51953,0.68431 3.41162,1.14549c7.9834,4.13055 8.05518,11.03577 7.75049,18.82244c3.67529,-0.12437 7.44873,0.03296 11.07568,-0.03633c8.63086,-0.16465 15.89941,-0.27437 22.69189,5.9855c4.40771,4.06216 6.98877,10.15415 7.01367,16.12749c0.02637,6.02007 0.01758,12.10767 0.01172,18.14912l-0.00439,33.4541v100.69116l0.00146,57.90527l0.00879,17.59131c0.00293,3.07324 0.13623,7.69189 -0.20068,10.64063c-0.54785,4.72559 -2.61182,9.14502 -5.88281,12.59766c-2.60303,2.75391 -5.86523,4.78857 -9.47461,5.91504c-0.48779,0.15234 -2.86377,0.80273 -3.12158,0.9668h-232.84658c-0.31392,-0.19043 -2.80767,-0.91113 -3.4667,-1.11914c-3.96533,-1.25098 -7.26006,-3.50098 -9.95537,-6.6709c-2.82671,-3.35742 -4.58291,-7.48389 -5.04155,-11.84766c-0.37617,-3.9375 -0.21211,-9.2959 -0.22192,-13.37109l0.01714,-25.11475l0.00161,-80.62207l-0.00557,-82.47817l-0.00029,-25.17202c-0.00161,-10.85654 -1.42813,-20.66294 8.00947,-28.50996c6.99302,-5.8144 14.4791,-5.18511 22.98735,-5.11626c3.14385,0.02549 6.86147,-0.20156 9.94922,0.08848c-0.76187,-7.20776 -0.13315,-15.02339 7.25889,-18.65422c1.15005,-0.56492 2.371,-0.815 3.48721,-1.30946zM23.78101,82.84556c3.13315,-0.09624 6.59619,0.01187 9.77769,0.0126l19.89097,-0.00483l11.12227,-0.01216c2.79536,-0.01201 7.78359,-0.5874 9.90454,1.30635c1.90796,1.70361 1.70376,4.70903 -0.13623,6.39316c-1.94341,1.80044 -6.95142,1.22168 -9.51416,1.20806l-11.89131,-0.02344l-19.18784,0.01113c-2.87842,0.00088 -6.95215,0.13447 -9.73931,-0.01406l-0.16816,-0.00996c0.23291,5.12681 0.10166,10.88496 0.10137,16.07432l-0.00103,27.14077l-0.00278,83.7019c-0.00015,14.78027 -0.14092,29.59717 0.25928,44.36719c0.06592,2.43311 2.28882,5.54736 4.01089,7.13672c2.07554,1.91162 4.72266,3.08936 7.5334,3.3501c2.05034,0.19775 5.81499,0.11426 7.98428,0.11572l14.21367,-0.00586l45.69565,0.00146l69.23643,0.00146l22.6626,-0.00146c4.41357,-0.00146 8.83887,0.02051 13.26563,-0.08789c2.54297,-0.06152 4.87207,-1.55127 6.60498,-3.35742c3.02783,-3.15527 2.54297,-8.09912 2.5459,-12.32812l-0.00732,-15.2373c-0.00146,-3.36475 -0.20508,-8.80518 0.36182,-11.88135c1.63037,-8.83594 9.04688,-14.9458 17.98389,-15.27393c2.95166,-0.1084 5.77588,-0.07324 8.729,-0.07324l15.23291,0.00586c2.05078,0.00146 4.11328,0.03662 6.14941,0.03223c4.55273,-0.00879 9.08936,-3.86426 9.42773,-8.47119c0.33398,-4.55273 0.24316,-9.01172 0.24023,-13.55127l-0.00732,-22.61865v-75.59312c0.02344,-1.08442 0.01465,-2.42021 0.09229,-3.48369c-3.97998,0.14604 -8.42139,0.06021 -12.43506,0.0605l-21.30176,-0.00044l-65.03174,-0.00322l-59.08667,0.00132l-19.46514,0.00132c-3.2165,0.00044 -6.43726,0.02812 -9.65347,-0.00308c-1.2895,-0.01245 -2.21089,-0.26587 -3.17725,-1.14741c-0.94248,-0.85957 -1.48828,-2.06997 -1.5085,-3.34526c-0.0123,-1.15283 0.4437,-2.26143 1.26387,-3.07178c0.9167,-0.90557 2.24194,-1.34531 3.50054,-1.35601c2.89336,-0.02461 5.81997,0.03472 8.71436,0.03896l18.4459,0.00483l57.97222,-0.00132l67.85889,-0.00059l22.55127,-0.00103c3.3457,-0.00029 7.59082,-0.13184 10.84277,-0.00688c0.18604,0.00703 0.37354,0.01611 0.56104,0.02739c-0.24902,-3.92637 -0.14795,-8.36602 -0.14941,-12.34453l0.00293,-19.02627c0.00439,-4.06421 0.26953,-8.88398 -0.42041,-12.85225c-0.70898,-4.07607 -5.79932,-8.95195 -9.91846,-9.46743c-3.08643,-0.38628 -7.24805,-0.20596 -10.44434,-0.20361l-20.69385,0.00747c-2.97656,-0.00293 -7.46777,0.13887 -10.35352,-0.06372c0.26953,3.05552 0.11279,6.07485 0.15381,9.11323c0.11133,2.14204 -0.52002,5.63687 1.396,7.12324c2.51074,1.94795 6.90674,0.64687 7.40332,4.94297c0.35303,3.04805 -1.74756,5.13633 -4.75342,5.09722c-3.31201,-0.04307 -6.81445,-1.72163 -9.14648,-4.03667c-4.1748,-4.327 -4.00635,-8.80474 -3.96094,-14.43223c0.02051,-2.50342 -0.03955,-5.0231 -0.01904,-7.50161c0.00146,-0.10854 0.00439,-0.21709 0.00879,-0.32549c-2.20166,0.20317 -5.83594,0.08379 -8.17236,0.08247l-15.12451,-0.00264l-48.66973,-0.00366l-53.00918,-0.00088l-16.65176,0.01318c-2.52993,0.00044 -6.54536,0.11484 -8.9729,-0.08335c0.04702,3.00498 0.05142,6.01055 0.01348,9.01567c-0.03311,8.73164 0.36196,6.52617 7.23853,9.51768c2.16562,0.94204 2.15435,4.33403 0.49922,6.18545c-3.08906,3.45513 -9.30967,0.65903 -12.18311,-1.88057c-3.04175,-2.72725 -4.56313,-6.46597 -4.57339,-10.51567c-0.04644,-1.49282 0.0501,-3.65933 -0.04292,-5.06719c-0.09111,-1.38003 0.27246,-6.41235 -0.0041,-7.1811l-0.2231,-0.02827c-4.10156,0.04219 -8.20342,0.04702 -12.30498,0.0145c-5.90771,-0.01216 -11.03438,-0.73521 -15.56382,3.96914c-4.45107,4.62275 -3.63765,10.21963 -3.63691,16.19839l0.01919,22.63066c0.00293,1.92144 0.14121,8.95005 -0.09331,10.55801zM68.92544,8.82722c-5.68184,1.03242 -4.05747,6.60227 -4.1918,11.09714c0.45571,0.12979 6.19102,0.05625 7.08032,0.05244c1.23677,0.00732 2.72827,-0.02271 3.9438,0.05142c-0.07705,-1.19517 -0.11587,-2.39238 -0.11646,-3.58989c-0.00396,-5.43476 -0.32505,-7.85818 -6.71587,-7.61111zM228.25928,8.83346c-6.11865,1.65712 -2.96191,6.89955 -4.05322,11.18143c2.48877,-0.08979 5.07129,-0.04893 7.56885,-0.04072c1.16309,0.02124 2.32764,0.02798 3.49219,0.02021c0.1582,-0.59751 0.02637,-1.41577 0.02783,-2.05371c0.02197,-6.15705 0.56396,-9.38593 -7.03564,-9.10721zM270.02783,223.83545c-2.11816,0.646 -5.8623,0.44824 -8.18994,0.43799l-14.625,-0.02637c-3.41602,-0.00439 -10.81348,-0.32812 -13.78564,0.68262c-2.19727,0.74414 -4.0415,2.2749 -5.17822,4.29639c-0.60205,1.04297 -0.99609,2.19287 -1.15869,3.38525c-0.28857,2.03027 -0.1333,5.31445 -0.12744,7.47949l0.01318,13.72705c0.01758,4.42676 0.28564,9.44678 -0.62402,13.73584l0.15527,0.2373c3.55957,-4.021 8.57666,-8.77441 12.46875,-12.67383l22.99365,-22.98633c2.09766,-2.0918 4.21875,-4.16455 6.29736,-6.27393c0.46289,-0.46875 1.7915,-1.4707 1.9585,-1.95996zM276.07178,230.69678l-30,30.06006l-9.64453,9.64746c-6.92578,6.92285 -11.05225,11.92676 -21.62109,12.0293l-119.57124,0.00293h-34.59756l-14.09619,0.00732c-5.48247,0.00586 -11.42095,0.45557 -16.69292,-1.17041c-2.07891,-0.6416 -3.88813,-2.05811 -5.89028,-2.84326c-0.05435,0.04834 -0.10854,0.09668 -0.16289,0.14355c0.54434,2.88574 0.79482,4.49121 2.4564,7.03564c2.54341,3.03369 5.56011,5.25732 9.61157,5.45361c4.05483,0.19629 8.54575,0.12451 12.62036,0.11719l22.27441,-0.01025h73.14229h80.9124l25.54248,0.00293c4.61426,0.00293 9.36035,0.04541 13.97168,-0.10986c2.4082,-0.08057 5.39355,-1.59814 7.21875,-3.15674c2.5752,-2.19873 4.16309,-5.33643 4.41211,-8.71436c0.31201,-4.06348 0.10986,-10.42822 0.104,-14.66748l0.00146,-26.14453c0,-0.66357 0.06738,-7.60107 0.00879,-7.68311z" fill="#fefefe"/><path d="M109.66274,163.53369c1.46733,-0.19336 6.86177,-0.0542 8.81323,-0.03516c4.29258,0.12598 8.84004,-0.26074 13.09175,0.19775c3.9126,0.42041 7.35425,3.67822 7.60737,7.63477c0.20771,3.24609 0.2499,7.06055 0.12393,10.31982c-0.14312,3.70752 0.41484,9.16992 -0.18999,12.69434c-0.24595,1.49707 -0.85972,2.91064 -1.78608,4.11328c-1.66934,2.12695 -3.76611,2.9502 -6.33955,3.24902c-3.08511,0.28711 -7.7124,0.07764 -10.97051,0.11719c-3.76011,-0.09375 -7.63125,0.23584 -11.36309,-0.21387c-1.53633,-0.18457 -3.05859,-0.79834 -4.27808,-1.74023c-1.97095,-1.52197 -3.02563,-3.74707 -3.25913,-6.19189c-0.33838,-3.54199 -0.04878,-7.125 -0.1355,-10.67871c0.30659,-8.16943 -2.44731,-18.19189 8.68564,-19.46631zM109.94751,172.47217c0.2064,5.61768 0.02344,14.30566 0.00938,20.15771c0.05552,0.06738 0.11104,0.13623 0.16655,0.20361l0.1812,-0.0498c6.51519,0.00586 13.71519,-0.14209 20.17104,0.0249c-0.56411,-2.74658 0.05889,-19.74609 -0.33369,-20.32471l-0.21035,0.01465l-12.6438,0.0249c-2.19624,0 -5.22612,0.09375 -7.34033,-0.05127z" fill="#fefefe"/><path d="M169.41211,163.53223c1.77832,-0.21973 6.64307,-0.15967 8.68799,-0.03369c5.25293,0.3208 13.34912,-1.22168 17.67041,2.02734c4.5,3.49805 3.15234,10.88965 3.24609,16.01953c0.06006,3.25488 0.32227,9.86426 -0.20801,12.85986c-0.24316,1.4458 -0.83057,2.8125 -1.71387,3.98291c-1.64209,2.15771 -3.77344,2.99854 -6.36182,3.3252c-2.89307,0.28857 -7.81641,0.07617 -10.90723,0.11572c-3.81445,-0.11133 -7.75195,0.25488 -11.53711,-0.23437c-1.54541,-0.19922 -3.07178,-0.84521 -4.29346,-1.80469c-1.99512,-1.56592 -3.02051,-3.87158 -3.20361,-6.36182c-0.23145,-3.14941 -0.04834,-6.33252 -0.11426,-9.49072c0.53027,-8.31299 -2.84766,-19.10156 8.73486,-20.40527zM189.97119,192.80273c0.16553,-0.29883 0.01318,-3.53027 0.02051,-4.16016c0.05713,-5.39941 -0.10547,-10.84424 0.02051,-16.23926c-1.48389,0.20801 -7.11621,0.16406 -8.95752,0.12012c-3.43066,-0.0835 -8.05518,0.17578 -11.34375,-0.05566c-0.08936,3.1084 0.01465,6.7749 0.02051,9.93604l0.03955,8.57373c-0.00293,0.60938 -0.11719,1.06787 -0.11572,1.67725c0.38232,0.27832 18.12158,0.09814 20.31592,0.14795z" fill="#fefefe"/><path d="M49.91821,163.53516c2.59702,-0.24023 6.72217,-0.14355 9.56338,-0.04834c7.28994,0.24609 19.1124,-2.23242 20.01152,8.26465c0.27246,3.17871 0.23101,7.05908 0.12407,10.23486c-0.24565,7.30371 2.19609,18.58008 -8.10835,19.68311c-3.14634,0.3999 -7.26313,0.18018 -10.47773,0.15527c-9.71514,-0.07617 -20.35049,2.1416 -19.77305,-11.61914c-0.07295,-4.59229 0.16274,-9.36914 -0.01143,-13.94238c-0.25093,-6.59619 0.83218,-11.8418 8.67158,-12.72803zM50.20679,172.4751c0.21006,4.13672 0.06533,8.65137 0.10356,12.82324c0.01421,1.55127 0.09463,5.99414 -0.08276,7.36816c0.38159,0.23438 0.17388,0.14648 0.71235,0.11572l12.46128,0.01611c1.94927,0.00293 5.3502,0.10107 7.20996,-0.09814c0.0731,-1.08545 -0.04585,-2.96045 -0.04951,-4.13965l-0.00542,-10.51025c-0.00234,-1.7417 -0.11426,-3.71631 0.00161,-5.41113l-0.18296,-0.1626l-0.14546,0.02637l-12.85913,0.02197c-2.15801,0 -5.07876,0.09082 -7.16353,-0.0498z" fill="#fefefe"/><path d="M229.32861,164.85645c4.77246,-0.28564 11.09326,0.30762 15.7002,0.01465c14.3042,-0.90967 14.14893,6.14209 13.6875,17.72168c-0.2959,7.40625 2.57666,19.90869 -8.75098,20.47119c-4.24219,0.08789 -9.25635,-0.10547 -13.3125,0.01904c-8.75684,0.2666 -16.3667,0.47607 -16.26562,-10.82227c0.02197,-2.44336 -0.08936,-5.19141 0.01758,-7.59961c0.36328,-8.15771 -2.63672,-18.79102 8.92383,-19.80469zM249.34131,194.1123l0.32227,-0.02344c0.20947,-0.31934 -0.05713,-18.2168 0.11426,-20.38184c-3.8042,0.17432 -8.16943,0.05566 -12.01611,0.06885c-2.32764,0.00732 -6.19482,0.12744 -8.36572,-0.03662c0.17725,3.8877 -0.02197,8.25146 0.04395,12.18604c0.0249,1.54102 0.10547,6.96533 -0.10107,8.26318c1.89258,-0.14502 4.37988,-0.03662 6.32666,-0.01904l9.09521,0.01025c1.31836,-0.00146 3.30176,0.04395 4.58057,-0.06738z" fill="#fefefe"/><path d="M229.32861,109.19238c1.52197,-0.09023 3.33838,0.01465 4.89551,0.01377c4.92773,0.02534 9.82617,-0.02329 14.75684,0.00278c2.39063,0.0126 5.0127,0.55005 6.81152,2.23931c1.99805,1.87632 2.90918,4.06392 2.95313,6.8146c0.0498,3.02432 -0.06299,6.12949 -0.0293,9.16084c-0.10254,3.3397 0.35156,9.99902 -0.24609,12.90542c-0.31201,1.58584 -1.05029,3.0564 -2.13721,4.25273c-1.6626,1.7981 -3.92139,2.70088 -6.33984,2.81367c-4.32715,0.08936 -8.75684,-0.03809 -13.08545,0.01611c-7.12793,0.08936 -15.37207,1.08105 -16.39453,-8.35942c-0.12451,-3.2814 -0.23437,-6.69858 -0.1084,-9.98394c0.3208,-8.33818 -2.56201,-18.86909 8.92383,-19.87588zM229.33887,138.52515c1.89258,-0.14517 4.37988,-0.03721 6.32666,-0.01978l9.09375,0.01055c1.31104,-0.0019 3.31055,0.04512 4.5791,-0.06797l0.3252,-0.023c0.21094,-0.32109 -0.06006,-18.19717 0.11426,-20.38242c-3.80273,0.17534 -8.1709,0.05669 -12.01611,0.0687c-2.32178,0.00732 -6.20215,0.12803 -8.36572,-0.03618c0.17725,3.88799 -0.02197,8.25103 0.04395,12.18647c0.0249,1.54263 0.10547,6.96401 -0.10107,8.26362z" fill="#fefefe"/><path d="M169.58643,109.19502c2.78906,-0.17139 6.97852,0.06475 9.96973,0.01465c3.83936,0.1563 7.87354,-0.30396 11.6792,0.15234c9.4541,1.13335 7.76514,11.06118 7.77246,17.41099l0.03076,7.37227c0.00879,1.96831 0.09814,4.03374 -0.2417,5.97378c-0.7207,4.10537 -3.86719,6.80039 -7.97607,7.25449c-6.47754,0.25928 -13.29785,-0.0498 -19.76367,0.03955c-11.75684,0.1626 -10.4707,-9.50317 -10.35645,-17.99912c0.04102,-3.12334 -0.08203,-6.56177 -0.03369,-9.70371c-0.0249,-6.17212 2.43311,-9.94687 8.91943,-10.51523zM169.59082,138.53335c2.07568,-0.17534 4.18652,0.00557 6.25488,-0.03018c4.51465,-0.07837 9.54199,0.17856 14.00684,-0.05859l0.24463,-0.15527c-0.37646,-5.61211 0.04688,-11.57388 -0.11865,-17.21763c-0.02783,-0.9895 0.01172,-2.03467 0.06006,-3.02388c-5.59863,0.24478 -11.33643,-0.05464 -16.94824,0.06899c-1.12354,0.02476 -2.32471,0.03706 -3.44238,-0.03398c0.25195,2.71875 0.05127,7.73936 0.08203,10.61792c0.02197,2.05239 0.14063,8.33716 -0.13916,9.83262z" fill="#fefefe"/><path d="M109.85684,109.19092c3.06475,-0.13037 7.02861,-0.08145 10.1436,0.02095c4.87178,0.16011 12.31025,-1.07212 16.19238,2.09883c4.41021,3.60234 2.94873,10.84585 3.10093,15.95654c0.12466,4.19121 0.13638,8.8897 -0.24844,13.03901c-0.44517,4.00723 -4.42178,6.86514 -8.39414,7.0834c-6.68965,0.21094 -13.57485,-0.10107 -20.27432,0.00586c-5.11963,0.08203 -9.11353,-3.42832 -9.32563,-8.64272c-0.22764,-5.59541 -0.02314,-11.36118 -0.0958,-16.97461c-0.21328,-6.91318 1.06714,-11.83799 8.90142,-12.58726zM109.93638,118.09336c0.2272,3.92886 0.01626,8.48423 0.08862,12.46421c0.02769,1.52666 0.08774,6.7582 -0.1771,7.979c1.63022,-0.13652 3.49263,-0.09141 5.14014,-0.04409c5.10645,0.14648 10.27793,-0.11572 15.37397,-0.01201c-0.19248,-5.79712 -0.04995,-11.63525 -0.11646,-17.43853c-0.01157,-1.00649 -0.00835,-1.97974 0.08232,-2.98286c-3.93662,0.13462 -8.19155,0.0501 -12.15161,0.0498c-2.49346,-0.00015 -5.8585,0.11968 -8.23989,-0.01553z" fill="#fefefe"/><path d="M50.05254,109.19399c0.7916,-0.06489 1.94663,-0.02109 2.75332,-0.00205c6.13872,0.14502 12.38818,-0.18896 18.5061,0.11675c5.13076,0.35566 8.33481,4.27251 8.27812,9.32563c-0.07764,6.89912 0.27598,14.00977 -0.15996,20.89717c-0.27729,4.38179 -3.53569,6.96021 -7.63242,7.80835c-4.75913,0.27393 -9.81665,-0.04834 -14.61753,0.06885c-2.84385,-0.16699 -6.02695,0.34717 -8.80884,-0.26367c-6.43491,-1.41152 -7.22446,-6.45806 -7.10713,-12.06445c0.07339,-3.51006 0.04805,-7.29243 -0.00776,-10.61338c-0.12246,-7.27793 -0.61333,-14.40278 8.79609,-15.27319zM50.14102,138.51826c2.3228,-0.13564 4.98896,-0.01436 7.35381,-0.0041c4.32583,0.02139 8.65181,0.00264 12.97734,-0.05625c0.29854,-0.41353 0.10972,-2.56567 0.10532,-3.25518l-0.02168,-11.29526c-0.00483,-1.72031 -0.12876,-4.23765 0.00996,-5.85c-3.90161,0.14268 -8.15156,0.04102 -12.08291,0.04717c-2.46973,0.00381 -5.88706,0.12231 -8.27769,-0.00615c0.2001,4.28906 0.07983,8.77178 0.11821,13.08486c0.01421,1.59478 0.11206,6.11704 -0.18237,7.33491z" fill="#fefefe"/><path d="M49.06963,218.01563c3.3709,-0.39258 8.28633,-0.09668 11.75273,-0.09229c8.29395,0.01025 18.66211,-1.88818 18.77329,9.84229c0.05273,5.55762 0.00937,11.30273 0.01802,16.88086c0.09141,5.80078 -1.39014,10.13232 -7.64897,11.35693c-2.9061,0.35742 -7.53062,0.12305 -10.60532,0.06592c-9.54551,-0.17871 -20.64565,2.56494 -20.09531,-11.2998c0.09785,-2.46387 -0.05244,-5.45068 0.01479,-7.96729c0.3041,-7.3125 -2.27505,-17.22949 7.79077,-18.78662zM50.2752,247.19092c1.98574,0.12012 4.46792,0.0249 6.48779,0.03955c4.58818,0.03369 9.2124,-0.06738 13.7981,0.01465c0.21826,-0.41455 -0.23013,-18.02197 0.02856,-20.46973l-20.34932,0.00732c0.15322,4.10156 0.05039,8.5415 0.08101,12.67822c0.01421,1.91602 0.12188,6.03369 -0.04614,7.72998z" fill="#fefefe"/><path d="M108.92241,218.01416c0.80361,-0.10254 2.25879,-0.12598 3.0772,-0.10254c6.54243,0.19482 13.35601,-0.29443 19.86138,0.21387c3.59282,0.4585 6.90586,3.43799 7.26313,7.17773c0.50859,5.32178 -0.01831,11.23096 0.19072,16.604c0.25708,6.60498 -0.0123,12.8877 -8.01768,14.10059c-0.69814,0.104 -2.98315,0.0791 -3.74868,0.07764l-6.37324,-0.01611c-12.72671,-0.0293 -21.23979,2.1709 -20.2106,-14.0625c0.10488,-1.65234 -0.05303,-3.83203 0.00571,-5.52393c0.25005,-7.20117 -2.09517,-17.11084 7.95205,-18.46875zM109.88701,247.23779h20.54692c-0.28477,-1.50439 -0.21899,-8.2998 -0.18105,-10.23633c0.05493,-2.80225 -0.15542,-7.63037 0.04775,-10.23047l-20.35752,0.01172c0.21577,4.18799 0.0104,8.86963 0.07573,13.10156c0.02314,1.49561 0.07764,6.20361 -0.13184,7.35352z" fill="#fefefe"/><path d="M168.64746,218.01709c0.18164,-0.02344 0.47754,-0.03955 0.66504,-0.04248c5.23242,-0.11719 10.48828,-0.03809 15.7207,-0.06006c2.35986,-0.00879 4.53955,-0.08789 6.8584,0.27979c4.43701,0.70459 7.13232,4.53516 7.11768,8.89746c0.04688,4.66553 0.01758,9.23877 0.01758,13.89697c-0.1377,2.87988 0.34863,6.41162 -0.52734,9.18311c-1.31396,3.77197 -4.81055,5.92236 -8.74072,5.91064c-4.10596,-0.01172 -8.23975,0.03223 -12.34277,-0.02051c-3.22412,-0.04248 -6.56396,0.26074 -9.73828,-0.24463c-3.62109,-0.57715 -6.00439,-3.42041 -6.7793,-6.87012c-0.43066,-1.9043 -0.11719,-3.40137 1.33594,-4.71973c3.50537,-2.95752 6.15088,-0.44092 7.69189,2.91064c1.17041,0.19189 5.56348,0.10693 7.01953,0.09375c4.33008,-0.04102 8.84473,0.0791 13.15723,-0.03223c-0.22266,-1.83398 -0.13916,-6.14941 -0.12451,-8.19727c0.02783,-3.94336 -0.12451,-8.33789 0.05713,-12.23877c-6.59473,0.14648 -13.73437,0.01318 -20.37158,0.01465c0.20654,2.06543 0.4043,6.79541 -0.89355,8.4126c-2.74951,3.42334 -7.61426,2.00391 -7.99951,-2.64551c-0.5376,-6.50244 -0.17139,-13.48828 7.87646,-14.52832z" fill="#fefefe"/></g></svg></svg>