<svg id="svg" version="1.1" viewBox="0 0 298.7551867219917 300" width="298.7551867219917" height="300" xmlns="http://www.w3.org/2000/svg"><svg xmlns="http://www.w3.org/2000/svg"><defs><clipPath id="clip-1"><rect x="0" y="0" transform="scale(0.14645,0.14648)" width="2040" height="2048" fill="none"/></clipPath><linearGradient x1="160.05516" y1="170.37012" x2="159.5792" y2="171.83789" gradientUnits="userSpaceOnUse" id="color-1"><stop offset="0" stop-color="#fd9759"/><stop offset="1" stop-color="#ffe236"/></linearGradient><linearGradient x1="155.01733" y1="139.13569" x2="151.24774" y2="106.56123" gradientUnits="userSpaceOnUse" id="color-2"><stop offset="0" stop-color="#ffff04"/><stop offset="1" stop-color="#f9cb08"/></linearGradient><linearGradient x1="148.83866" y1="159.95801" x2="148.97632" y2="136.79385" gradientUnits="userSpaceOnUse" id="color-3"><stop offset="0" stop-color="#d38c02"/><stop offset="1" stop-color="#965e04"/></linearGradient><linearGradient x1="148.80937" y1="154.52051" x2="149.24579" y2="167.81689" gradientUnits="userSpaceOnUse" id="color-4"><stop offset="0" stop-color="#eb9a00"/><stop offset="1" stop-color="#ffef10"/></linearGradient><linearGradient x1="138.29905" y1="73.25024" x2="150.20649" y2="109.51143" gradientUnits="userSpaceOnUse" id="color-5"><stop offset="0" stop-color="#f91907"/><stop offset="1" stop-color="#ed7423"/></linearGradient></defs><g clip-path="url(#clip-1)" fill="none" fill-rule="nonzero" stroke="none" stroke-width="1" stroke-linecap="butt" stroke-linejoin="miter" stroke-miterlimit="10" stroke-dasharray="" stroke-dashoffset="0" font-family="none" font-weight="none" font-size="none" text-anchor="none" style="mix-blend-mode: normal"><path d="M149.05248,24.87583c68.22163,-0.37866 123.8267,54.64658 124.17964,122.88589c0.35148,68.23828 -54.68099,123.83496 -122.90261,124.16162c-68.18589,0.32666 -123.73298,-54.68408 -124.08533,-122.88574c-0.35236,-68.20166 54.62329,-123.78325 122.8083,-124.16177z" fill="#010101"/><path d="M147.12375,168.8584c1.83939,-0.104 3.68318,-0.09375 5.52111,0.0293c5.06273,0.53467 9.38443,1.43115 14.00195,3.75439c0.2885,0.14502 1.75738,0.91699 1.95948,1.11475c11.05248,6.08496 17.54894,16.16895 19.93166,28.36084c1.52453,10.94385 -0.88309,21.41016 -7.49817,30.375c-1.35465,1.83691 -4.27337,5.04639 -6.14206,6.41162c-2.4208,2.12549 -4.78155,3.6123 -7.66219,5.05957c-1.51428,0.68994 -3.03295,1.36963 -4.55602,2.03906c-3.00513,0.83936 -5.8433,1.75928 -8.9773,2.04199c-11.11779,1.18799 -24.19229,-2.75244 -32.03886,-10.89404c-1.30207,-1.1748 -3.38223,-3.68701 -4.39961,-5.13135c-2.00166,-2.39355 -4.18287,-6.79834 -5.14591,-9.70312c-3.40727,-7.26563 -2.89207,-16.42822 -1.23017,-24.03223c3.16842,-11.13867 9.02724,-18.20654 18.65521,-24.26221c0.88001,0.37354 0.3916,0.0542 1.37017,0.104c0.6435,-0.22412 3.39746,-1.58936 4.21025,-1.95117c1.45716,-0.56689 2.88606,-1.10889 4.41967,-1.42676c1.30456,-0.34277 2.63256,-0.5874 3.97315,-0.73535c-0.39673,-0.5332 -1.02968,-0.48486 -1.65267,-0.54199c1.83237,-0.36328 3.39805,-0.53174 5.26029,-0.6123z" fill="#fdf905"/><path d="M152.64486,168.8877c5.06273,0.53467 9.38443,1.43115 14.00195,3.75439c0.2885,0.14502 1.75738,0.91699 1.95948,1.11475c11.05248,6.08496 17.54894,16.16895 19.93166,28.36084c1.52453,10.94385 -0.88309,21.41016 -7.49817,30.375c-1.35465,1.83691 -4.27337,5.04639 -6.14206,6.41162c-2.4208,2.12549 -4.78155,3.6123 -7.66219,5.05957c-1.51428,0.68994 -3.03295,1.36963 -4.55602,2.03906c-3.00513,0.83936 -5.8433,1.75928 -8.9773,2.04199c0.00293,-0.33984 -0.03661,-0.77344 -0.05711,-1.12207c0.48621,-0.35742 1.13937,-0.69141 1.67244,-1.01221c10.30852,-6.17725 16.08445,-18.17871 13.25214,-30.04541c-1.35172,-5.66602 -5.84037,-8.93262 -10.55162,-11.68213c2.72102,-1.75635 5.51526,-3.40576 7.17598,-6.28564c2.57017,-4.46045 2.20845,-10.56299 0.92995,-15.35742c-1.48645,-5.56934 -3.67147,-7.85889 -8.51013,-10.65234c-1.30779,-0.55078 -4.43154,-1.46191 -5.28826,-1.94678l-0.25629,-0.06738l-0.14791,-0.15381c0.09959,-0.44971 0.27679,-0.45557 0.72346,-0.83203z" fill="#f91505"/><path d="M187.72077,202.30371l0.81718,-0.18604c1.52453,10.94385 -0.88309,21.41016 -7.49817,30.375c-1.35465,1.83691 -4.27337,5.04639 -6.14206,6.41162c-2.4208,2.12549 -4.78155,3.6123 -7.66219,5.05957c-1.51428,0.68994 -3.03295,1.36963 -4.55602,2.03906c-3.00513,0.83936 -5.8433,1.75928 -8.9773,2.04199c0.00293,-0.33984 -0.03661,-0.77344 -0.05711,-1.12207c1.07933,0.13184 2.78985,-0.28564 3.87064,-0.50977c6.87137,-1.42676 11.81108,-4.30811 17.27801,-8.48145c6.89773,-6.01904 11.68514,-15.2373 13.05297,-24.30469c0.4906,-3.25781 0.19478,-8.01562 -0.12595,-11.32324z" fill="#fdf462"/><path d="M168.6063,173.75684c11.05248,6.08496 17.54894,16.16895 19.93166,28.36084l-0.81718,0.18604c-0.19624,-1.3623 -0.47742,-2.71143 -0.84062,-4.03857c-2.90554,-10.68604 -9.31706,-18.54785 -18.8743,-24.00439z" fill="#fcf5a9"/><path d="M152.64486,168.8877c5.06273,0.53467 9.38443,1.43115 14.00195,3.75439c0.2885,0.14502 1.75738,0.91699 1.95948,1.11475l-0.60044,0.50391c-3.19112,-1.61133 -5.85209,-2.73193 -9.36392,-3.48047c-0.59312,0.00439 -1.17159,0.00586 -1.76617,0.03369l-0.0703,0.14795c0.29583,0.36768 0.57701,0.5376 0.8084,0.92578c-1.30779,-0.55078 -4.43154,-1.46191 -5.28826,-1.94678l-0.25629,-0.06738l-0.14791,-0.15381c0.09959,-0.44971 0.27679,-0.45557 0.72346,-0.83203z" fill="url(#color-1)"/><path d="M152.3256,169.94092c2.30217,-0.05859 4.06834,0.33398 6.31633,0.83936c-0.59312,0.00439 -1.17159,0.00586 -1.76617,0.03369l-0.0703,0.14795c0.29583,0.36768 0.57701,0.5376 0.8084,0.92578c-1.30779,-0.55078 -4.43154,-1.46191 -5.28826,-1.94678z" fill="#9a3c00"/><path d="M130.91306,174.12598c0.6435,-0.22412 3.39746,-1.58936 4.21025,-1.95117c0.76402,0.13623 0.78863,0.01611 1.28772,0.44531c0.21587,1.29199 -1.49319,2.33936 -2.13361,3.37061c-1.46478,2.35693 -2.70095,5.74365 -3.23476,8.47852c-0.32775,1.67871 0.06576,5.5415 0.07117,7.46924l-0.00337,12.68115c-0.00088,1.56299 -0.15729,4.64063 0.08172,6.10107c0.02416,2.6543 0.32863,24.35303 -0.33317,25.16455c-0.68889,0.84668 -2.01484,1.12646 -3.04335,1.11621c-1.71374,-0.01758 -3.42236,-0.66064 -4.96285,-1.36377c-0.89832,0.34131 -1.05311,-0.52881 -1.85887,-0.44678c-0.24442,0.41602 -0.20781,0.19482 -0.20591,0.65039c0.40317,0.35596 0.69285,0.55957 0.9607,1.03125l-0.08538,0.27832c-1.30207,-1.1748 -3.38223,-3.68701 -4.39961,-5.13135c-2.00166,-2.39355 -4.18287,-6.79834 -5.14591,-9.70312c-3.40727,-7.26563 -2.89207,-16.42822 -1.23017,-24.03223c3.16842,-11.13867 9.02724,-18.20654 18.65521,-24.26221c0.88001,0.37354 0.3916,0.0542 1.37017,0.104z" fill="#0201fb"/><path d="M110.88767,198.28418c3.16842,-11.13867 9.02724,-18.20654 18.65521,-24.26221c0.88001,0.37354 0.3916,0.0542 1.37017,0.104c-9.86053,5.81104 -16.11594,13.28467 -19.35319,24.41162z" fill="#f7facd"/><path d="M112.11784,222.31641c-3.40727,-7.26563 -2.89207,-16.42822 -1.23017,-24.03223l0.6722,0.25342c-1.3668,5.55029 -1.53024,11.32764 -0.47962,16.94678c0.20371,1.10156 0.98252,3.48633 1.06893,4.32275c-0.1091,1.58203 0.71789,2.3291 0.53571,3.11719c-0.30593,-0.24609 -0.32497,-0.2915 -0.56705,-0.60791z" fill="#eaeaea"/><path d="M112.14918,219.80713c1.22577,3.49951 2.88445,8.05664 5.13507,11.03027c0.12038,0.71777 0.22026,0.62402 -0.0205,1.18213c-2.00166,-2.39355 -4.18287,-6.79834 -5.14591,-9.70312c0.24208,0.31641 0.26112,0.36182 0.56705,0.60791c0.18218,-0.78809 -0.64481,-1.53516 -0.53571,-3.11719z" fill="#f7facd"/><path d="M117.28426,230.8374c1.76895,2.1665 3.07894,3.4292 5.56856,4.80029c-0.89832,0.34131 -1.05311,-0.52881 -1.85887,-0.44678c-0.24442,0.41602 -0.20781,0.19482 -0.20591,0.65039c0.40317,0.35596 0.69285,0.55957 0.9607,1.03125l-0.08538,0.27832c-1.30207,-1.1748 -3.38223,-3.68701 -4.39961,-5.13135c0.24076,-0.55811 0.14088,-0.46436 0.0205,-1.18213z" fill="#fefd8d"/><path d="M135.12331,172.1748c1.45716,-0.56689 2.88606,-1.10889 4.41967,-1.42676l0.62812,1.04443c-2.96851,1.66113 -4.09631,2.56787 -5.75909,5.55322c-4.16251,7.47363 -3.1176,14.93262 -3.20225,23.07275c-0.03471,3.32812 0.14411,6.96387 -0.01757,10.30225c-0.239,-1.46045 -0.0826,-4.53809 -0.08172,-6.10107l0.00337,-12.68115c-0.00542,-1.92773 -0.39893,-5.79053 -0.07117,-7.46924c0.53381,-2.73486 1.76998,-6.12158 3.23476,-8.47852c0.64042,-1.03125 2.34948,-2.07861 2.13361,-3.37061c-0.4991,-0.4292 -0.5237,-0.30908 -1.28772,-0.44531z" fill="#020464"/><path d="M141.86346,169.4707c1.83237,-0.36328 3.39805,-0.53174 5.26029,-0.6123c0.45546,0.27393 0.62094,0.33545 0.95045,0.76318l-1.03832,0.22559c-2.16934,0.44238 -4.89695,1.03271 -6.86478,1.94531l-0.62812,-1.04443c1.30456,-0.34277 2.63256,-0.5874 3.97315,-0.73535c-0.39673,-0.5332 -1.02968,-0.48486 -1.65267,-0.54199z" fill="#010101"/><path d="M141.86346,169.4707c1.83237,-0.36328 3.39805,-0.53174 5.26029,-0.6123c0.45546,0.27393 0.62094,0.33545 0.95045,0.76318l-1.03832,0.22559c-1.48499,-0.12012 -2.2701,0.17285 -3.51975,0.16553c-0.39673,-0.5332 -1.02968,-0.48486 -1.65267,-0.54199z" fill="#fefd8d"/><path d="M178.88553,67.32935c1.38394,1.53501 3.11057,3.49644 4.15035,5.32661c4.73322,8.32734 6.43642,18.35845 6.19331,27.84961c-0.0205,0.84712 -0.27239,3.32651 -0.44081,4.09277c-0.55358,2.95342 -1.29461,5.14863 -2.54674,7.89434c-1.46009,3.19937 -2.92019,5.65371 -3.76959,9.11265c-0.09666,1.25361 0.06004,1.67007 0.53454,2.84458c2.02538,0.629 2.77959,0.43579 4.73029,-0.5751c-1.82182,5.44702 -4.09031,8.68975 -9.2907,11.35972c-1.55236,0.79746 -4.77862,2.13911 -6.51843,2.26113c-0.88016,0.06167 -3.64218,-0.42935 -4.6805,-0.57495c-2.39004,-0.34351 -4.79033,-0.6085 -7.19795,-0.79468c-12.77325,-0.87788 -25.26825,-0.51064 -37.75284,2.38506c-1.53669,-3.80728 -2.2537,-6.56968 -2.22953,-10.70625c-0.94298,-15.6561 16.9772,-22.67051 28.44808,-28.23472c5.41567,-2.64785 10.78448,-5.39209 16.10349,-8.23154c1.3444,-0.98086 2.95973,-1.82124 4.2104,-2.8207c6.55211,-5.24033 10.69954,-12.67793 10.05663,-21.18853z" fill="url(#color-2)"/><path d="M178.88553,67.32935c1.38394,1.53501 3.11057,3.49644 4.15035,5.32661c4.73322,8.32734 6.43642,18.35845 6.19331,27.84961c-0.0205,0.84712 -0.27239,3.32651 -0.44081,4.09277c-0.55358,2.95342 -1.29461,5.14863 -2.54674,7.89434c-1.46009,3.19937 -2.92019,5.65371 -3.76959,9.11265l-0.02197,-0.14326c-0.0659,-0.45483 -0.11277,-0.55884 0.04686,-0.99595c-0.26068,-1.23105 -6.83036,-6.04336 -8.18062,-7.00371c-1.37808,-1.13643 -2.90408,-2.7104 -4.43007,-3.60498c-0.61069,-0.38394 -3.28484,-2.10117 -3.81792,-2.07832c-1.97852,0.08452 -2.6185,-0.64438 -4.29973,-1.05527c-9.6949,-2.36982 -21.03251,2.47705 -27.90359,9.30601c-1.83193,1.82065 -3.12287,4.17319 -5.40146,5.60361c-1.94088,1.22241 -3.92292,2.41743 -6.00395,3.38994c-3.17867,1.32188 -1.32609,0.73403 -2.39268,2.78145c-0.94298,-15.6561 16.9772,-22.67051 28.44808,-28.23472c5.41567,-2.64785 10.78448,-5.39209 16.10349,-8.23154c1.3444,-0.98086 2.95973,-1.82124 4.2104,-2.8207c6.55211,-5.24033 10.69954,-12.67793 10.05663,-21.18853z" fill="#f09906"/><path d="M178.88553,67.32935c1.38394,1.53501 3.11057,3.49644 4.15035,5.32661c4.73322,8.32734 6.43642,18.35845 6.19331,27.84961c-0.0205,0.84712 -0.27239,3.32651 -0.44081,4.09277c-0.23285,-0.71558 0.05419,-2.92808 -0.71613,-2.92939c-0.59165,0.03545 -2.17037,0.64321 -2.6888,0.57715c-5.34245,-0.68218 -10.61606,-3.69272 -14.95973,-6.76304c-1.68123,-1.1896 -2.79424,-3.12085 -4.80351,-4.25376c-0.3339,0.05347 -0.66488,0.08862 -1.00171,0.10928c1.3444,-0.98086 2.95973,-1.82124 4.2104,-2.8207c6.55211,-5.24033 10.69954,-12.67793 10.05663,-21.18853z" fill="#f91505"/><path d="M250.53551,182.99414c1.4557,-0.17871 13.79107,2.09619 15.78716,2.4873c-4.50037,16.42676 -17.87552,38.44482 -30.43349,49.94092c-1.32682,-1.44727 -1.98438,-2.05371 -3.55138,-3.25049c-1.21699,2.07715 -2.63022,3.87012 -4.10788,5.75977c-1.85258,-1.56299 -3.09739,-2.21338 -5.19893,-3.31494c1.07054,-2.17676 2.24945,-4.29785 3.88382,-6.10254c-2.97437,-1.9043 -6.25482,-3.03662 -9.58506,-4.11328c-0.8084,2.23975 -1.48645,4.5249 -2.03124,6.84375c-1.69295,-0.52002 -4.73761,-1.00342 -6.4906,-1.15869c-0.02636,-2.08887 -0.02343,-4.17773 0.26361,-6.25049c-0.04247,-0.06592 -0.08494,-0.1333 -0.12741,-0.19922l-0.53454,-0.04688c-3.58653,-0.08496 -7.0061,0.42041 -10.5443,0.89063c0.75128,1.48682 1.46156,4.87646 1.97999,6.71484c-2.04589,0.97266 -4.23383,1.41064 -6.33976,2.67773c-1.15402,-1.98779 -2.51452,-4.39453 -3.43422,-6.47314c-0.98121,0.83496 -3.39614,2.41553 -4.54137,3.21094c2.20552,-3.41602 3.18379,-5.82715 4.33195,-9.75146l4.86502,1.17627c0.51989,-1.15723 2.2597,-8.55469 1.84672,-9.78076c-0.79229,-0.60352 -3.72565,-0.82324 -4.89871,-1.00928c-0.00586,-4.06494 -0.41299,-6.57129 -0.77618,-10.57031c14.59361,-4.4209 29.21796,-8.74658 43.86868,-12.97412c5.13742,-1.52197 10.73908,-3.03809 15.76812,-4.70654z" fill="#eaeaea"/><path d="M238.08299,195.2915c0.57554,-0.06592 0.32658,-0.12305 0.79229,0.0791c0.16109,0.66504 0.03515,1.80176 0.05126,2.52393c0.04833,2.15918 -0.20503,5.56055 0.22114,7.61719l-7.92726,1.82666c-0.45692,0.01611 -0.59312,0.06885 -0.99732,-0.13623c-0.39248,-0.7251 -0.23871,-8.62646 -0.25189,-9.93164c2.6639,-0.55664 5.43178,-1.3418 8.11179,-1.979z" fill="#010101"/><path d="M237.19258,196.75488c0.06004,-0.00439 0.32658,0.04541 0.39834,0.05566c0.27532,0.79102 0.14791,6.46582 0.13913,7.75049l-6.16256,1.4458h-0.28265c-0.32804,-0.59912 -0.17574,-6.74561 -0.16842,-7.875c2.16305,-0.30615 3.95558,-0.91406 6.07615,-1.37695z" fill="#fdf905"/><path d="M221.70271,199.34033c0.10691,0.08936 0.29876,0.28125 0.3134,0.3999c0.22992,1.88232 0.33244,8.58984 -0.09812,10.07373c-0.54186,0.64014 -6.26214,1.80322 -7.30193,1.91602c-0.49353,-1.76074 0.16402,-6.79395 -0.536,-9.80127c2.19673,-0.80566 6.268,-1.11621 7.62265,-2.58838z" fill="#010101"/><path d="M215.69685,202.6377c1.78082,-0.36475 3.54845,-0.78516 5.3029,-1.2627c0.00732,1.72998 0.1318,6.05713 -0.04686,7.58057c-0.07615,0.06885 -0.15231,0.1377 -0.22992,0.20801c-1.35758,0.37646 -3.62021,0.80127 -5.07591,1.12939c-0.07176,-1.67285 -0.14352,-6.06885 0.04979,-7.65527z" fill="#fdf905"/><path d="M215.69685,202.6377c0.19917,1.91016 0.03222,4.43848 0.09959,6.41895c1.1174,0.04834 4.07859,0.01318 4.92653,0.10693c-1.35758,0.37646 -3.62021,0.80127 -5.07591,1.12939c-0.07176,-1.67285 -0.14352,-6.06885 0.04979,-7.65527z" fill="#fdf462"/><path d="M207.99512,203.30859l0.16549,0.08496c0.38223,1.00342 0.20942,8.80664 0.2021,10.37695c-2.71662,0.19629 -5.2619,1.2832 -7.69295,1.29492c-0.43495,-0.5918 -0.27972,-8.15771 -0.35441,-9.49219c1.46595,-0.08936 6.40127,-1.44287 7.67977,-2.26465z" fill="#010101"/><path d="M207.03442,205.27588c0.35733,0.33398 0.19478,6.38818 0.18892,7.32861c-1.82914,0.38232 -3.68904,0.81592 -5.51818,1.22021c-0.30608,-0.55957 -0.10251,-6.24756 -0.08201,-7.34326c1.55968,-0.22559 3.61875,-0.90527 5.41128,-1.20557z" fill="#fdf905"/><path d="M27.50203,142.70566c19.13512,0.24771 38.42431,-0.12817 57.5836,0.05845c0.60527,0.00469 1.32463,-0.05845 1.85272,0.19028c0.08831,0.16699 0.17881,0.31436 0.24018,0.4897c-0.04496,0.65947 -0.10398,0.91787 0.05492,1.54409c0.7132,0.38877 4.32053,0.21064 5.33498,0.19482c-0.05711,2.22275 -0.00395,4.65879 -0.00015,6.89707c-4.01035,0.13916 -6.90842,1.15869 -10.06746,3.74121c-4.07552,3.33105 -5.48011,7.35059 -5.93293,12.47168c-1.17569,-0.05127 -2.48611,0.00732 -3.67264,0.03516c0.18965,1.45166 0.58433,3.16553 0.83007,4.6582c0.97257,-0.00293 1.94513,0 2.9177,0.01025c-0.0681,2.89453 -0.03764,5.91504 -0.04994,8.81982l-25.78404,-0.03223c-3.64262,0.00146 -9.22992,0.19775 -12.67366,-0.03809c-1.40766,1.98779 -2.79234,3.64746 -4.37003,5.4917c-1.11682,-2.90186 -1.93473,-6.12158 -2.71355,-9.13477c-3.13532,-12.12744 -3.76095,-22.96729 -3.54977,-35.39736z" fill="#02a9ed"/><path d="M248.80596,76.74185c0.66488,0.13916 2.54381,3.36313 3.04174,4.11519c7.2331,10.92686 12.62094,22.9856 16.0537,35.62954c-4.03612,0.94775 -8.86893,2.49302 -12.97974,3.58535l-38.83671,10.58584c-2.54674,0.64189 -5.55919,1.40405 -8.04149,2.19639c-1.83207,-6.16758 -5.25751,-13.99761 -9.29363,-19.0626c4.70247,-3.81885 10.44911,-7.80601 15.34635,-11.46987c11.47718,-8.6521 23.04662,-17.1791 34.70979,-25.57983z" fill="#fdf905"/><path d="M51.13268,75.82705c0.66048,0.22222 6.74484,5.11377 7.84613,5.94331c13.76822,10.28364 27.4474,20.68608 41.03608,31.20586c-4.8703,7.07798 -6.67791,10.68237 -9.4868,18.89722c-2.49827,-0.79482 -4.8082,-1.52417 -7.35201,-2.18467c-3.17808,-1.02349 -6.38985,-1.88042 -9.59253,-2.8229l-22.19575,-6.43652l-12.06663,-3.51899c-2.38257,-0.70225 -4.88772,-1.51611 -7.29109,-2.08154c4.67391,-14.50225 9.86815,-26.61328 19.10261,-39.00176z" fill="#fdf905"/><path d="M110.89353,32.23198c0.25819,0.11558 0.28587,0.36709 0.35631,0.59971c1.96139,6.47051 4.11257,12.88462 6.16358,19.32759l11.639,36.29883c-0.76651,0.2124 -1.53478,0.41851 -2.30466,0.61816c-5.2411,1.33228 -4.11989,-3.75659 -4.93312,-7.40669l-0.04613,-0.20215c-3.57203,3.11411 -7.72092,12.59312 -9.42514,17.18394c-1.16324,-1.8022 -2.75309,-3.82925 -4.06205,-5.57212l-17.23114,-23.50547c-4.6452,-6.26719 -9.9692,-13.10757 -14.36851,-19.4688c10.33327,-7.84292 22.02382,-13.56196 34.21186,-17.873z" fill="#fdf905"/><path d="M115.28186,142.86929c1.49451,-0.97192 2.93629,-1.90166 4.60888,-2.54912c12.6782,-4.90737 39.1671,-4.45195 52.26253,-1.68208c3.89407,0.82368 7.27117,1.94854 10.6146,4.1666c-1.78667,5.43896 -5.77886,12.67383 -8.46766,17.86084c-0.40273,0.75146 -0.95045,1.84131 -1.41469,2.52246c-0.54772,1.08252 -2.062,3.35596 -2.77081,4.55273c-8.58042,-3.89062 -32.55611,-4.11475 -41.01411,-0.08936c-1.28406,-1.49121 -2.89368,-3.65039 -3.80268,-5.35107c-0.70339,-1.0166 -1.60332,-2.66748 -2.25004,-3.77197c-2.07972,-3.10986 -6.67996,-12.13931 -7.76602,-15.65903z" fill="url(#color-3)"/><path d="M124.47108,160.36816c2.38169,-1.33594 6.53351,-3.43506 9.34225,-4.08398c9.25716,-2.1416 21.09856,-2.46094 30.3629,-0.45703c2.60679,0.71045 4.99829,2.18262 7.16866,3.74854c0.61069,0.44092 1.92141,0.70752 2.16744,1.43115c0.15816,0.46729 -0.50818,1.36816 -0.6268,2.18115c-0.54772,1.08252 -2.062,3.35596 -2.77081,4.55273c-8.58042,-3.89062 -32.55611,-4.11475 -41.01411,-0.08936c-1.28406,-1.49121 -2.89368,-3.65039 -3.80268,-5.35107c0.01552,-0.77637 -0.39278,-1.26416 -0.82685,-1.93213z" fill="url(#color-4)"/><path d="M123.04789,158.52832c2.67518,-2.02881 5.61323,-3.08643 8.68074,-4.28613c3.51184,-1.37256 6.84999,-1.6377 10.53229,-2.15186c2.24345,-0.31201 4.51721,-0.72217 6.77398,-0.97705c-0.40273,-0.21973 -0.46864,-0.19482 -0.91823,-0.24316c0.85965,-0.03076 2.42958,-0.12891 3.21748,-0.02783c0.04979,0.15967 0.09959,0.3208 0.14791,0.48047c6.98267,1.23779 14.51013,0.87598 19.62704,6.55225c0.89773,0.99463 2.41494,1.40918 3.19112,2.79053c-0.40273,0.75146 -0.95045,1.84131 -1.41469,2.52246c0.11862,-0.81299 0.78496,-1.71387 0.6268,-2.18115c-0.24603,-0.72363 -1.55675,-0.99023 -2.16744,-1.43115c-2.17037,-1.56592 -4.56187,-3.03809 -7.16866,-3.74854c-9.26434,-2.00391 -21.10574,-1.68457 -30.3629,0.45703c-2.80874,0.64893 -6.96056,2.74805 -9.34225,4.08398c0.43407,0.66797 0.84237,1.15576 0.82685,1.93213c-0.70339,-1.0166 -1.60332,-2.66748 -2.25004,-3.77197z" fill="#f09906"/><path d="M75.57423,50.948c0.71862,0.27026 32.95563,44.16973 36.51462,49.23457c-0.82172,1.39805 -4.48294,4.25815 -5.97291,5.79946c-2.11208,2.18496 -3.46219,3.74927 -5.44071,6.14268c-1.47488,-1.41372 -5.03461,-3.94556 -6.79683,-5.3001c-4.81216,-3.45981 -9.91457,-7.61367 -14.69187,-11.24766l-27.34415,-20.65298c6.69138,-9.11367 14.68777,-17.19229 23.73185,-23.97598z" fill="#f09906"/><path d="M224.58775,51.65273c0.88601,0.21123 3.25995,2.30991 4.08445,3.01318c7.1423,6.09287 14.17769,13.373 19.6124,21.05186c-6.09373,4.2772 -12.1113,8.66338 -18.04686,13.15635l-22.88845,17.00508c-3.07689,2.33467 -6.2021,4.51978 -9.23651,6.92886c-2.47205,-3.34702 -5.09641,-5.98081 -8.01367,-8.90361c-0.04247,-2.50825 0.3837,-4.91279 0.2021,-7.37651c1.80571,-2.74204 3.70954,-4.80117 5.6866,-7.36069l10.165,-13.39966l11.16231,-14.78789c2.17916,-2.89805 4.88406,-6.72114 7.27264,-9.32695z" fill="#f09906"/><path d="M186.17134,142.75327c5.93263,-0.15293 11.9341,0.08716 17.87552,-0.0189c2.95973,-0.05273 5.94289,-0.0627 8.89968,0.08467c-0.65463,4.64531 -3.11789,3.57671 -5.35416,7.39775c0.08494,1.94092 0.59165,3.55371 0.59751,5.66602c-0.77178,1.49561 -2.49109,2.78467 -3.5133,3.8584c-3.35074,3.51709 0.12741,4.74463 0.8699,7.86621c0.06737,0.27686 -0.59019,2.8418 -0.59312,3.87158l0.01904,23.729c-2.4164,0.68701 -4.82695,1.39453 -7.23163,2.11963c-2.3754,0.70166 -6.67806,1.73584 -8.78399,2.58984c-0.55943,-1.69482 -0.90359,-3.39844 -1.53771,-5.14307c-2.45594,-6.77051 -6.64291,-12.7793 -12.14352,-17.42725c-1.67391,-1.40186 -3.5133,-2.58252 -5.26043,-3.9082c0.13766,-1.34766 0.29143,-3.48193 0.77911,-4.67725c0.73664,-1.80615 2.40762,-3.72363 3.30827,-5.46533c1.3239,-2.56494 2.63754,-5.17236 3.938,-7.74609c1.95802,-3.87598 4.53698,-8.63525 5.87405,-12.75981z" fill="#02a9ed"/><path d="M189.01684,32.39385c11.82719,3.74326 24.80547,10.93975 34.70247,18.37808c-1.78228,1.8939 -5.98389,7.74302 -7.77789,10.10171l-15.91604,21.09302c-3.31413,4.31616 -6.44227,8.41553 -9.86478,12.66255c-0.46571,-7.0481 -2.66536,-16.03271 -6.24603,-22.12778c-1.46888,-2.49976 -3.82377,-5.37275 -5.85648,-7.42295c3.629,-10.84292 7.20967,-21.90864 10.95875,-32.68462z" fill="#fdf905"/><path d="M160.7918,39.61655c3.79595,7.6897 10.46668,12.11733 12.79082,21.75059c0.86698,6.60425 -0.90652,9.42891 -4.90456,14.68608c-6.26947,8.23975 -14.84696,12.52061 -23.662,17.46797c-7.334,4.11636 -15.763,8.30962 -21.51037,14.53638c-3.65624,3.96123 -5.67649,8.58853 -7.56612,13.52402c-3.80825,-6.22544 -4.95802,-13.71958 -3.19112,-20.80063c0.55138,-2.22114 2.33673,-7.18916 3.60527,-9.17417c0.95558,-2.47134 3.08802,-5.95386 4.73659,-8.00522c0.34401,1.7877 0.64481,5.12725 2.1793,6.09609c1.26868,0.80083 2.54908,0.44194 3.90183,0.21211c0.00015,0 1.15519,-0.31846 1.29548,-0.36138c1.08753,-0.33296 1.77012,-0.65479 2.75733,-1.19561c2.34362,-1.32334 3.9525,-2.29087 6.11979,-3.94263c2.53254,-1.96875 4.91072,-4.12822 7.11374,-6.45967c5.14825,-5.42197 15.75992,-18.77695 16.87732,-25.94048c0.3793,-2.42432 -0.47742,-4.93213 -0.74103,-7.33667c-0.18745,-1.70479 -0.02929,-3.36475 0.19771,-5.05679z" fill="url(#color-5)"/><path d="M160.7918,39.61655c3.79595,7.6897 10.46668,12.11733 12.79082,21.75059c-0.48035,1.26782 -5.62948,3.79702 -6.89919,4.9251c-2.0576,1.87456 -4.11521,3.90469 -6.05565,5.88794c-0.77471,0.79233 -2.67562,2.09941 -3.19258,2.80708c-2.46619,3.37954 -4.13278,5.2979 -7.89212,7.22373c-1.1628,0.59531 -2.9978,2.81396 -4.5752,3.24727c-1.83647,0.92593 -3.91706,0.96357 -5.44584,1.56592c-2.07913,0.81943 -5.57252,1.9604 -7.82358,1.95645c-0.78789,0.72393 -0.64188,0.41089 -1.57711,0.77358l-0.05917,-0.11689c0.43027,-0.51562 0.45985,-0.54243 1.0288,-0.90894l0.13327,-0.37559c2.34362,-1.32334 3.9525,-2.29087 6.11979,-3.94263c2.53254,-1.96875 4.91072,-4.12822 7.11374,-6.45967c5.14825,-5.42197 15.75992,-18.77695 16.87732,-25.94048c0.3793,-2.42432 -0.47742,-4.93213 -0.74103,-7.33667c-0.18745,-1.70479 -0.02929,-3.36475 0.19771,-5.05679z" fill="#f91505"/><path d="M116.35372,91.60679c0.95558,-2.47134 3.08802,-5.95386 4.73659,-8.00522c0.34401,1.7877 0.64481,5.12725 2.1793,6.09609c1.26868,0.80083 2.54908,0.44194 3.90183,0.21211c-1.57022,1.34854 -6.45677,1.23296 -8.03007,-0.02021c-1.36988,0.28037 -1.82167,1.04019 -2.78765,1.71724z" fill="#f91505"/><path d="M199.61533,225.49365c2.16598,-0.52881 5.79204,-0.72949 8.05614,-0.78223l-0.00732,6.75879c2.83525,-0.34424 5.88577,0.28564 8.48377,1.43115c0.50085,-1.44141 1.32682,-5.35254 1.73102,-7.03711c2.63461,0.68994 4.63363,1.64795 7.06322,2.82422c-0.78057,1.38281 -1.75592,2.99707 -2.43691,4.396c-1.87015,3.84229 3.42543,2.9165 5.61777,6.69873c-0.14352,1.31543 0.25043,1.23633 0.49207,2.35107c-4.60434,3.81006 -8.40908,6.50537 -13.36783,9.81006c-1.55821,-1.15283 -2.76056,-2.46094 -4.64242,-3.16553c-4.21186,-1.57617 -8.79278,-0.28418 -11.66903,3.1582c-2.47645,2.96338 -2.40176,5.88281 -2.07957,9.50977c-1.93752,0.67529 -3.92629,1.56006 -5.93263,2.26172c-6.45985,2.29688 -13.09544,4.06494 -19.84232,5.28809c-0.14645,-3.72949 -0.16256,-5.39795 -0.01172,-9.13916c2.55553,0.05859 3.97315,0.28564 6.40566,0.87891c0.23578,-2.44336 1.14083,-6.854 2.09275,-9.03076c-1.69734,-0.96533 -4.15182,-1.54248 -6.09666,-2.25c0.75275,-2.77295 2.30217,-5.47412 3.66414,-8.00391c1.79692,1.27295 3.53966,2.354 5.42592,3.49219c1.49085,-1.91895 3.134,-4.35059 5.19746,-5.59277c-1.40151,-2.82715 -2.13669,-3.16113 -4.12985,-5.64404c1.92433,-1.56445 3.81938,-3.08203 5.89749,-4.43994c1.28435,2.05518 2.29485,4.21143 3.61582,6.2959c2.23041,-1.63037 5.4435,-2.60303 8.09275,-3.48779c-0.41445,-2.0625 -1.11301,-4.48242 -1.61972,-6.58154z" fill="#fdf905"/><path d="M263.0598,142.74785c2.90554,-0.08936 6.10544,-0.02036 9.03442,-0.02153c0.00293,3.32959 0.07469,6.9895 -0.06297,10.29712c-0.4496,10.61426 -2.22016,21.13037 -5.27069,31.30664c-1.15255,-0.22705 -2.75909,-0.45117 -3.99951,-0.64893c-3.66122,-0.58008 -8.65511,-1.9834 -12.22846,-1.8208c-1.01928,0.04688 -5.65731,1.54248 -6.78057,1.88965c-2.93922,0.82471 -5.79058,1.78418 -8.74152,2.56201c-0.28997,-6.44385 -0.04833,-14.51221 -0.02343,-21.07324c1.61533,-1.02539 2.56432,-2.04492 2.89822,-4.021c0.58433,-3.44092 4.1855,-1.49854 6.62973,-2.0127c2.36807,-0.49805 2.7093,-2.96045 3.98047,-4.71826c4.165,-1.48975 8.26995,0.65332 11.11399,-3.3457c1.95948,-2.75391 2.26995,-5.04639 1.78521,-8.32954z" fill="#02a9ed"/><path d="M31.73981,115.91001c4.93839,1.55361 10.29505,3.0356 15.28748,4.48447l29.26439,8.51309c4.22651,1.24717 9.91194,2.65342 13.92756,4.04443c-0.7775,3.28945 -1.23031,5.32808 -1.65033,8.66265l-2.12761,-0.02871l-58.74186,0.02212c-0.14088,-6.93735 2.16861,-19.02041 4.04037,-25.69805z" fill="#f09906"/><path d="M267.8062,117.79321l0.33976,-0.01509c0.32951,0.37236 0.72639,2.46782 0.85819,3.05962c1.58604,6.83247 2.56871,13.79136 2.93483,20.79609c-6.33683,-0.28462 -14.38272,-0.06006 -20.79424,-0.06108l-38.09861,0.02124l-3.21748,0.01201c-0.15377,-2.10732 -1.02368,-5.49478 -1.53039,-7.66831c6.84647,-1.58423 14.83085,-3.96636 21.67293,-5.87241l27.35367,-7.39644c3.5177,-0.94263 6.93874,-1.97021 10.48133,-2.87563z" fill="#f09906"/><path d="M109.30764,216.03809c0.19258,0.21826 1.52087,5.24268 1.8205,6.07324c4.42275,12.26953 15.06019,22.50146 27.95851,25.63623c0.65111,7.18066 2.12585,15.6665 3.02929,22.9541c-3.08567,-0.22559 -5.88592,-0.5625 -8.95885,-0.96533c-7.88157,-0.97998 -17.41172,-3.36914 -24.87576,-6.10254c-0.16446,-6.7251 -0.02914,-14.26172 -0.00337,-21.03076c3.18013,-0.00879 6.68435,0.08496 9.81967,-0.11572c-2.40776,-2.80078 -6.86273,-6.84814 -8.84433,-9.49365c-0.14674,-5.10791 -0.08699,-11.83154 0.05433,-16.95557z" fill="#7ec527"/><path d="M93.43891,218.25439c0.5795,0.26953 4.36871,4.37256 5.04384,5.08154l11.05965,11.67627c2.02363,2.1416 4.14406,4.51904 6.26507,6.5332c-2.85033,-0.01025 -5.70066,0.00879 -8.5507,0.05713c-0.20649,2.03613 -0.06986,4.40039 -0.1091,6.47314c-0.09329,4.91895 0.1775,10.21143 -0.0722,15.09082c-2.96046,-1.1543 -6.90813,-2.61914 -9.61845,-4.15869l1.90237,-0.09961c-0.03222,-5.13721 -0.03793,-10.27588 -0.01699,-15.41455c0.00293,-0.49951 0.06722,-0.99609 -0.14616,-1.42676c-1.04638,-0.1333 -3.14103,-0.07178 -4.28172,-0.06885l-7.62631,0.02197c0.01494,3.90674 -0.00059,7.81348 -0.04628,11.72021c-1.0351,-0.67236 -2.09275,-1.3623 -3.14894,-1.99951c-6.23915,-3.76465 -11.63124,-8.33789 -17.16773,-13.03125c3.13459,-2.65576 6.71774,-5.05225 9.89216,-7.62891c5.44086,-4.4165 11.00093,-8.63672 16.62148,-12.82617z" fill="#eaeaea"/><path d="M214.25873,142.79209l45.96876,-0.01685c0.15816,3.00659 0.34708,5.65005 -1.80571,8.16665c-2.90554,3.39551 -10.28802,-0.47314 -12.01464,4.80029c-1.15987,3.66211 -4.24262,1.9541 -6.42177,2.29834c-6.0703,0.95947 -0.13473,6.8042 -9.23359,6.86719c-1.3649,0.00293 -2.57017,-0.04102 -3.93215,-0.10986c-0.90359,-0.75293 -1.74567,-1.35059 -2.42372,-2.30859c0.9856,-2.00684 1.9053,-2.38037 2.52185,-4.87354c-0.46278,-1.32422 -2.31975,-5.48145 -3.91018,-5.35693c-0.75275,1.19824 0.59897,4.22168 -0.60337,6.20947c-1.49817,2.47412 -4.44325,1.32568 -6.38516,3.06445c-1.12326,1.00635 -0.69856,3.45117 -1.2536,4.74756c-0.34562,0.80713 -1.32829,1.98926 -1.89797,2.72607l-5.92531,-0.01318c0.08348,-3.52588 -1.53039,-3.25928 -2.41201,-6.01465c-0.56529,-1.771 3.49719,-4.20996 4.42861,-5.90625c1.09983,-2.00391 0.25043,-4.22168 -0.25336,-6.4585c2.29046,-3.57715 4.7713,-2.30273 5.55333,-7.82168z" fill="#eaeaea"/><path d="M99.25013,142.79473c4.86019,-0.04937 9.92907,-0.20479 14.773,-0.0438c0.78086,2.17588 1.98687,4.56987 3.01274,6.65874c2.39151,4.86475 4.99697,9.61963 7.80879,14.25439c2.97086,4.86035 3.77881,3.13477 4.24994,9.44092c-1.73088,1.25537 -3.78189,2.51367 -5.3877,3.82178c-6.62519,5.40088 -9.64789,10.66846 -12.8062,18.31934l-1.60478,-0.01172c-0.20649,-6.9126 -0.06107,-15.2959 0.01186,-22.2334c0.87459,-0.05127 1.7155,-0.09814 2.58804,-0.18604c0.49163,-1.03711 1.60405,-3.10693 1.28392,-4.12793c-0.70105,-0.75732 -3.14835,-0.46875 -4.15035,-0.44385c-0.20869,-8.3291 -6.34913,-15.36914 -14.73786,-16.06055v-6.98818c1.34088,0.03545 3.83959,0.3082 4.85506,-0.28828c0.25072,-0.46523 0.25497,-0.9627 0.05843,-1.46748z" fill="#02a9ed"/><path d="M111.17296,103.22578c-0.74411,4.4376 0.06356,8.51836 1.19195,12.80435l0.6517,1.86797l0.35294,0.90293l1.15563,2.58999c0.21411,0.47988 0.44227,0.95347 0.6845,1.41987c0.29041,0.548 0.43744,0.84009 1.00376,1.01572c0.64467,-0.48384 0.70632,-1.45386 0.89861,-2.21338c1.17144,-4.63008 4.23002,-10.1001 7.59292,-13.4751c0.09519,0.43037 1.50784,1.54043 1.9958,2.22422l0.5959,0.18325c-8.54381,6.74429 -10.44545,18.61084 -6.02724,28.2728c-2.07576,0.78955 -3.73107,1.64077 -5.53122,2.52378c-1.22255,0.59985 -6.3837,0.3271 -8.06683,0.30132c-0.94284,0.02681 -1.99287,-0.00454 -2.94494,-0.01289l-2.14401,-0.01304l-0.16959,0.01978l-8.14943,-0.0564c0.01655,-0.9687 0.32585,-2.26904 -0.8494,-2.64419c-1.05516,0.49365 -0.85746,1.71445 -0.83886,2.68828l-2.57911,-0.04087c1.55089,-15.02271 9.99072,-28.58789 21.17691,-38.3584z" fill="#fdf905"/><path d="M114.52516,121.39102c0.21411,0.47988 0.44227,0.95347 0.6845,1.41987c0.29041,0.548 0.43744,0.84009 1.00376,1.01572c0.64467,-0.48384 0.70632,-1.45386 0.89861,-2.21338c1.17144,-4.63008 4.23002,-10.1001 7.59292,-13.4751c0.09519,0.43037 1.50784,1.54043 1.9958,2.22422l0.5959,0.18325c-8.54381,6.74429 -10.44545,18.61084 -6.02724,28.2728c-2.07576,0.78955 -3.73107,1.64077 -5.53122,2.52378c-1.22255,0.59985 -6.3837,0.3271 -8.06683,0.30132c-0.72419,-0.13242 -0.99468,-0.03838 -1.31408,-0.47578c-0.24047,-1.45591 0.91779,-3.37983 1.20527,-4.79165c0.17588,-1.40669 0.71262,-3.39111 0.73195,-4.76587c0.04159,-2.97817 0.29553,-4.71094 2.26219,-7.07798c1.07654,-1.29565 2.17374,-2.69268 3.96846,-3.14121z" fill="#eaeaea"/><path d="M110.79102,118.79312c0.47127,-1.20806 0.61552,-1.90913 1.57388,-2.76299l0.6517,1.86797l0.35294,0.90293l1.15563,2.58999c-1.79473,0.44854 -2.89192,1.84556 -3.96846,3.14121c-1.96666,2.36704 -2.2206,4.0998 -2.26219,7.07798c-0.01933,1.37476 -0.55607,3.35918 -0.73195,4.76587c-0.28748,1.41182 -1.44574,3.33574 -1.20527,4.79165c0.3194,0.4374 0.5899,0.34336 1.31408,0.47578c-0.94284,0.02681 -1.99287,-0.00454 -2.94494,-0.01289l-2.14401,-0.01304l-0.16959,0.01978l-0.55138,-0.20947c0.15362,-1.1833 0.75333,-0.54521 0.97505,-2.23008c0.53058,-4.03169 0.02914,-8.81177 1.35963,-12.62637c2.66976,-1.38589 1.42831,-0.92314 2.3032,-3.18135c0.30666,-0.79131 1.6887,-2.33862 2.26175,-3.5644c0.59956,-0.41133 1.36124,-0.72407 2.02992,-1.03257z" fill="#fefd8d"/><path d="M113.36954,118.80103l1.15563,2.58999c-1.79473,0.44854 -2.89192,1.84556 -3.96846,3.14121c-1.96666,2.36704 -2.2206,4.0998 -2.26219,7.07798c-0.01933,1.37476 -0.55607,3.35918 -0.73195,4.76587c-0.28748,1.41182 -1.44574,3.33574 -1.20527,4.79165c0.3194,0.4374 0.5899,0.34336 1.31408,0.47578c-0.94284,0.02681 -1.99287,-0.00454 -2.94494,-0.01289c-0.02109,-0.0479 -0.04232,-0.0958 -0.06356,-0.1437c0.05741,-0.98247 0.86039,-0.61875 0.89158,-1.94707c0.01655,-0.70327 0.02958,-1.3043 0.00732,-2.01006c-0.01611,-0.51138 -0.12975,-1.71387 -0.07059,-2.15156c0.31091,-2.30127 0.71687,-4.91821 1.63363,-7.06113c0.42031,-0.98247 1.72927,-1.50967 2.12409,-2.5478c0.6287,-2.05269 1.44472,-6.7248 4.12062,-6.96826z" fill="#fcf5a9"/><path d="M82.3135,201.01611c8.37584,-0.18604 17.39195,-0.01904 25.81948,-0.02051c0.02255,10.15723 0.09841,20.57373 -0.03061,30.72217c-2.45126,-2.20752 -6.47845,-6.76611 -8.89734,-9.33105c-1.78404,-1.82373 -3.53717,-3.67822 -5.25853,-5.56055c-8.91901,-0.35889 -18.76197,0.16406 -27.84603,-0.08789c0.02812,-3.95947 -0.09417,-8.3584 0.07308,-12.27686c3.96744,-0.14063 4.88509,1.05029 8.61835,1.4458c1.1404,0.12012 3.25629,-1.16455 4.4081,-1.37109c0.90403,-0.16113 2.43837,-0.08496 3.40683,-0.07031c-0.01948,-0.96094 -0.20766,-2.4375 -0.29334,-3.44971z" fill="#eaeaea"/><path d="M77.77505,173.0332l30.40669,0.00439c-0.1277,3.16846 -0.05975,6.62549 -0.06151,9.82031c-0.02548,4.1001 -0.01289,8.2002 0.03778,12.30029c-0.68245,0.13184 -6.63837,0.04541 -7.61372,0.04395l-18.53527,0.03369c-0.39497,-2.81104 -1.84804,-2.24121 -4.19692,-2.14453c-0.10046,-6.646 0.03603,-13.38428 -0.03705,-20.05811z" fill="#eaeaea"/><path d="M93.12595,174.36182c1.49963,-0.04834 3.25863,0.70898 4.30779,1.77393c0.84105,0.86426 1.4311,1.94092 1.70657,3.11426c0.31032,1.33301 0.22289,4.00488 0.22246,5.47559l0.00059,7.7417c-1.84218,0.0542 -3.76329,0.03955 -5.61206,0.04834c-2.15338,0.01025 -4.33415,-0.0249 -6.48987,-0.04248l-0.00205,-7.5249c-0.00674,-1.43408 -0.08948,-3.97852 0.13795,-5.28955c0.16475,-0.98437 0.55123,-1.91748 1.13029,-2.73047c1.17598,-1.64355 2.70535,-2.22656 4.59834,-2.56641z" fill="#010101"/><path d="M92.50574,175.51758c2.45843,-0.19922 5.30715,1.23486 5.51672,3.92139c0.31311,4.01074 0.13078,8.25146 0.10017,12.29736l-3.88294,-0.01172l-5.7938,-0.00586c-0.02475,-2.85352 -0.56061,-11.43457 0.62563,-13.68164c0.7794,-1.47803 1.9277,-2.03027 3.43422,-2.51953z" fill="#fdf905"/><path d="M135.75714,49.81406c0.97974,2.01753 2.38946,6.62344 5.42211,5.78218c4.33854,-1.20352 4.84071,-7.62495 4.28611,-11.29541c-0.54713,-3.61992 -2.02831,-7.01382 -1.43827,-10.77949c0.29158,-2.00464 0.37535,-3.17681 1.37632,-5.00361c1.0433,4.68955 3.82919,6.71074 7.36593,9.60103c3.08421,2.521 3.5133,4.50981 4.15914,8.2311c0.96949,5.58955 -2.88504,12.88213 -6.12595,17.10688c-2.598,4.48799 -10.16353,13.46836 -15.36349,15.29897c-2.91623,1.02671 -6.49119,-2.16826 -6.61655,-5.04111c-0.03368,-0.77153 -0.28045,-1.70405 -0.27796,-2.59922c-0.84193,-4.36978 2.83144,-10.66274 4.51867,-14.59658c0.95031,-2.21528 1.82314,-4.45356 2.69392,-6.70474z" fill="#f91505"/><path d="M128.54454,71.11538l0.27942,0.31729c0.08479,0.98291 0.37549,2.99707 0.72477,3.89561c1.1442,0.43887 13.88582,-5.10835 14.8083,-4.92847c0.00952,0.31758 0.01508,0.18501 -0.01596,0.51387l-0.02416,0.23613c0.74821,-0.6583 1.36886,-1.45649 2.04545,-2.1832c1.50974,-1.62085 2.71794,-3.47988 3.98033,-5.29072c0.15377,-0.0731 0.30608,-0.14619 0.45985,-0.21914c-2.598,4.48799 -10.16353,13.46836 -15.36349,15.29897c-2.91623,1.02671 -6.49119,-2.16826 -6.61655,-5.04111c-0.03368,-0.77153 -0.28045,-1.70405 -0.27796,-2.59922z" fill="#ef5319"/><path d="M130.48587,27.43989c0.51228,-0.10371 0.31281,-0.1686 0.66165,0.04761c0.84428,7.43101 2.19966,14.83784 3.10017,22.27573c0.35675,2.94697 -3.54742,9.59897 -4.77525,12.46948c-1.75094,3.98936 -2.77066,9.10356 -1.07332,13.32847c1.93708,4.82109 6.12785,4.78037 10.1092,3.06006c0.13298,1.30576 0.24281,2.02969 0.52751,3.30688c-1.59775,1.49648 -6.85746,5.2084 -8.75338,5.88691c-0.33405,-0.27876 -0.32907,-0.56294 -0.49368,-1.0563c-2.0084,-5.89438 -3.8658,-12.01436 -5.75865,-17.95459l-6.64423,-20.60903c-1.67186,-5.24678 -3.4515,-11.27534 -5.30203,-16.39292c6.99468,-2.07495 11.32663,-3.1437 18.402,-4.3623z" fill="#f09906"/><path d="M167.02026,27.04233c6.4247,1.13364 14.7093,2.77266 20.92311,5.01621c-1.70466,4.1458 -3.70808,10.92261 -5.17549,15.32754c-2.57164,7.7165 -5.36148,15.61963 -7.83793,23.33672c-1.07054,3.36035 -2.1733,6.71001 -3.30974,10.04824c-0.61801,1.86387 -1.21552,3.92036 -2.05028,5.70234c-0.34269,0.73037 -1.35611,1.41108 -2.02538,1.86665c-1.06907,0.66475 -2.06053,1.26636 -3.15743,1.88101c-1.95802,-0.58433 -3.93361,-0.94834 -5.94142,-1.29873c-0.00293,-0.629 0.06004,-1.25537 0.10837,-1.8832c1.44545,-1.53735 3.05199,-2.39971 4.46082,-3.70767c4.06248,-3.77256 9.06078,-9.27451 11.04955,-14.48672c2.47498,-6.79248 -1.59043,-14.01841 -5.48011,-19.40684c-1.14962,-1.59111 -3.2907,-3.86909 -4.04491,-5.55396c0.88455,-5.01665 1.36637,-12.09785 2.48084,-16.8416z" fill="#f09906"/><path d="M189.76373,105.51416c9.9175,9.86514 16.87381,22.00181 18.5155,36.08643l-9.80766,0.0186l-2.99634,0.02124l-0.43788,-0.00557c-1.31072,0.02476 -2.62289,0.02607 -3.93361,0.00381c-1.16427,0.0167 -7.69295,0.2001 -8.22895,-0.0832c-2.24945,-1.19004 -5.79351,-2.52612 -8.27581,-3.44106c4.33927,-1.94634 8.62143,-3.73477 11.41567,-7.91133c0.62534,-0.93604 1.60947,-3.09741 2.13815,-4.18037l0.09812,-0.2874c0.34123,-0.9999 1.06761,-2.68608 0.62826,-3.57803c-1.30193,0.38467 -3.28338,1.95454 -4.55895,1.55977c-1.77935,-0.55093 -0.14791,-4.34062 0.30022,-5.31006c0.2021,-0.59004 0.59165,-1.35894 0.86405,-1.94033l0.63852,-1.25288l1.19063,-2.65488c0.78936,-1.82124 2.07518,-5.10381 2.45009,-7.04473z" fill="#fdf462"/><path d="M189.76373,105.51416c9.9175,9.86514 16.87381,22.00181 18.5155,36.08643l-9.80766,0.0186c0.4496,-0.18618 0.29436,-0.03545 0.51111,-0.43828c-0.23432,-0.89751 -1.18477,-1.16777 -1.96095,-1.65981c0.00146,-0.90234 0.23578,-1.86855 0.23285,-2.64478c-0.02343,-4.76089 -0.64144,-10.65908 -2.71955,-14.95034c-0.50818,-1.04663 -2.20259,-2.48833 -2.90993,-3.43506c-0.2475,-0.37632 -0.37052,-1.46836 -0.69417,-1.76543c-0.92848,-0.84961 -1.66951,-0.96299 -2.51745,-2.00962c-0.14791,-1.1584 0.04686,-1.78286 -1.09983,-2.15698c0.78936,-1.82124 2.07518,-5.10381 2.45009,-7.04473z" fill="#fdf905"/><path d="M189.16183,123.87393c0.54918,0.50654 1.03393,0.87935 0.94313,1.66025c-0.30754,2.64141 2.18648,5.40469 2.52477,7.71782c0.37491,2.55542 -0.13034,5.34536 0.19917,8.17632l-1.72516,0.21035c-1.16427,0.0167 -7.69295,0.2001 -8.22895,-0.0832c-2.24945,-1.19004 -5.79351,-2.52612 -8.27581,-3.44106c4.33927,-1.94634 8.62143,-3.73477 11.41567,-7.91133c0.62534,-0.93604 1.60947,-3.09741 2.13815,-4.18037c0.67073,-0.54624 0.7835,-1.29902 1.00903,-2.14878z" fill="#eaeaea"/><path d="M185.4845,116.46665c1.23017,0.65171 1.76471,1.98647 2.57896,3.13638c0.96803,1.48096 2.84696,2.88677 3.32145,4.59697c1.03686,3.74546 2.2392,7.18271 2.32121,11.12329c0.0205,0.98306 -0.99732,4.21743 0.26361,4.86064c0.94166,0.48047 0.92702,0.38892 1.06761,1.45093c-1.31072,0.02476 -2.62289,0.02607 -3.93361,0.00381l1.72516,-0.21035c-0.32951,-2.83096 0.17574,-5.6209 -0.19917,-8.17632c-0.3383,-2.31313 -2.83232,-5.07642 -2.52477,-7.71782c0.0908,-0.78091 -0.39395,-1.15371 -0.94313,-1.66025c-0.22553,0.84976 -0.3383,1.60254 -1.00903,2.14878l0.09812,-0.2874c0.34123,-0.9999 1.06761,-2.68608 0.62826,-3.57803c-1.30193,0.38467 -3.28338,1.95454 -4.55895,1.55977c-1.77935,-0.55093 -0.14791,-4.34062 0.30022,-5.31006c0.2021,-0.59004 0.59165,-1.35894 0.86405,-1.94033z" fill="#fcf5a9"/><path d="M184.62045,118.40698c0.53454,-0.39507 0.72199,-0.82925 1.0515,-1.39131l0.19331,0.06079c0.33244,1.62935 2.08689,3.1623 2.72834,4.65015c0.09519,0.22104 0.11716,0.25708 0.28557,0.43066c-1.30193,0.38467 -3.28338,1.95454 -4.55895,1.55977c-1.77935,-0.55093 -0.14791,-4.34062 0.30022,-5.31006z" fill="#f7facd"/><path d="M186.12302,115.21377c0.79814,0.36914 0.6268,0.31582 1.03393,0.93589c1.01196,1.54189 1.66659,3.38247 2.74152,4.84849c0.35587,0.48428 1.43959,0.94351 1.80278,1.50703c0.39834,0.61875 0.88748,2.24692 1.30339,2.71172c0.47742,-0.40957 0.03368,-1.3771 0.54186,-1.58086c0.45399,0.34365 0.61508,0.52617 1.00903,0.94658c-0.00293,0.86909 -0.05419,2.76768 0.08787,3.52339c0.26947,1.42837 0.95924,2.80488 1.11301,4.34429c0.24018,2.42373 0.07469,5.22554 -0.0703,7.66772c0.37052,0.54199 0.55358,0.61377 0.59458,1.16792c-0.24164,0.27964 -0.43349,0.26909 -0.80547,0.35449l-0.43788,-0.00557c-0.14059,-1.06201 -0.12595,-0.97046 -1.06761,-1.45093c-1.26092,-0.64321 -0.2431,-3.87759 -0.26361,-4.86064c-0.08201,-3.94058 -1.28435,-7.37783 -2.32121,-11.12329c-0.47449,-1.71021 -2.35343,-3.11602 -3.32145,-4.59697c-0.81425,-1.1499 -1.34879,-2.48467 -2.57896,-3.13638z" fill="#fefd8d"/><path d="M148.46082,25.85186c3.83988,-0.04058 7.7442,0.06753 11.56505,0.45059c1.93019,0.19336 3.86331,0.404 5.79937,0.53804c-0.16549,0.74971 -0.26507,1.58833 -0.36319,2.3521c-0.57701,4.53062 -1.35904,9.07544 -1.82329,13.61543c-0.76007,-1.20073 -2.52624,-5.227 -3.23359,-5.47822c-0.78643,0.75835 -0.59019,1.70815 -0.7132,2.68213c-0.51257,4.00869 0.78936,7.62114 0.94899,11.52012c0.04101,1.02466 -0.98121,3.04512 -1.40591,4.0957c-1.92141,4.75474 -4.80205,8.91753 -7.99317,12.8981c-3.49426,4.54453 -6.99468,8.69912 -11.2783,12.54756c-0.13722,-1.22549 -0.22524,-2.00464 -0.51125,-3.19307c1.11521,-1.39556 3.48767,-3.47593 4.87469,-4.91221c3.51726,-3.64175 5.68177,-6.59048 8.43354,-10.79355c3.36685,-5.02075 6.12595,-10.82578 5.01001,-16.89844c-0.9607,-5.22231 -3.08274,-6.8792 -7.13351,-10.08999c-1.80864,-1.43335 -3.21455,-2.91299 -3.8721,-5.14116c-0.27386,-0.86338 -0.43173,-3.35449 -1.29299,-3.54229c-1.91203,1.28335 -2.56051,9.17432 -2.22455,11.31152c0.78672,5.00361 3.06868,10.24453 0.19419,15.04951c-0.44008,0.71089 -1.51369,1.79268 -2.38008,1.88818c-3.53805,0.39023 -3.92204,-4.97974 -4.62558,-7.33345c-0.11013,-0.36841 -0.87737,-0.14238 -1.33913,-0.47578c-0.28352,-1.07666 -0.87444,-5.58311 -1.04257,-7.00854c-0.45458,-3.85356 -1.5733,-9.04277 -1.73586,-12.78472c4.79107,-0.81401 11.29382,-1.23369 16.14245,-1.29756z" fill="#fdf905"/><path d="M38.94201,182.98682c12.42294,0.04102 25.27205,0.17285 37.66717,-0.00879c0.11042,3.35156 0.0328,7.15723 0.03603,10.54248c-3.68699,0.75879 -3.18116,-0.78955 -6.466,-1.76367c-0.93932,-0.27832 -3.36627,-0.20068 -4.46039,-0.19629c-0.37637,0.00586 -0.25218,-0.01025 -0.60879,0.10254c-0.21982,0.78662 -0.14279,6.9624 -0.14103,8.17383l-26.1875,-0.00732c-1.6988,-3.62549 -3.22011,-7.33301 -4.55865,-11.10791c0.74645,-1.08838 3.83388,-4.77979 4.71916,-5.73486z" fill="#eaeaea"/><path d="M86.56109,217.74756c1.80425,-0.08057 3.35953,0.03076 5.15733,0.1377c-2.78062,2.54297 -6.42089,4.92773 -9.44242,7.2876c-5.27786,4.12207 -10.79766,8.69092 -16.24423,12.57129c-1.78404,-1.35791 -4.52936,-4.33154 -6.09885,-5.98682c-4.43139,-4.93652 -7.16925,-8.58398 -11.08982,-13.89258c12.33039,-0.18018 25.46639,0.35889 37.71799,-0.11719z" fill="#f91505"/><path d="M90.9588,153.41455c4.11682,-0.29297 7.31906,0.44824 10.70525,2.87695c4.56275,3.27393 5.49109,6.72803 6.31545,12.00586c-4.22416,0.08057 -8.62377,0.01904 -12.86112,0.01758l-17.25121,-0.00146c0.32263,-7.89404 5.19937,-13.67725 13.09163,-14.89893z" fill="#eaeaea"/><path d="M39.28836,200.99707l25.67025,-0.01172c0.1545,5.14014 -0.05917,10.58057 0.04144,15.79541c-5.46693,0.09229 -11.25956,0.01172 -16.7423,0.00879c-2.73771,-3.62109 -7.06659,-11.64551 -8.96939,-15.79248z" fill="#eaeaea"/><path d="M175.2785,241.84863l0.12009,0.20068c-1.68269,3.12451 -2.31535,5.18701 -3.73444,8.13135c2.103,0.76904 4.26605,1.3418 6.40273,2.07275c-0.74249,1.91748 -1.2331,4.74609 -1.65633,6.81592c-1.80864,-0.05566 -4.42568,-0.45557 -6.23871,-0.72803c-0.57115,3.2959 -0.54332,7.48975 -0.25336,10.82227c-3.22041,0.43945 -6.1772,0.85547 -9.41811,1.22461c-1.96827,0.14941 -3.938,0.27246 -5.9092,0.36768c0.45838,-3.23877 0.94899,-6.47168 1.51135,-9.69434c0.31633,-1.80908 0.48474,-4.5 0.96217,-6.19922c0.18745,0.03955 0.92995,0.17871 1.0515,0.14941c1.75153,-0.44092 6.67513,-1.41064 7.85843,-2.5415c0.21089,-0.73242 -0.77178,-3.99609 -0.99439,-5.03613c4.29827,-2.23828 5.77886,-2.15039 10.29827,-5.58545z" fill="#eaeaea"/><path d="M216.45399,162.49219c1.76324,-0.85547 3.34635,-1.01074 5.15646,-1.70508c0.9607,0.69873 1.51721,0.80566 1.59922,2.0127c0.6517,1.19678 1.08226,1.51758 2.12204,2.34961l-0.01464,15.18604c-0.00146,2.86084 -0.06737,5.99268 0.04686,8.82715c-0.92409,0.27539 -6.53161,2.01709 -7.25214,2.10352c-1.08372,0.43652 -2.29485,0.75 -3.4225,1.06201c-0.18306,-6.29004 0.05272,-12.65625 -0.02636,-18.95215c-0.01904,-1.46777 0.05419,-2.96924 -0.12741,-4.42822c0.41591,-0.78809 0.93141,-1.64209 1.37955,-2.42285c0.29583,-1.06348 0.42909,-2.88867 0.53893,-4.03271z" fill="#02a9ed"/><path d="M140.20098,248.08887c5.26439,1.07373 10.67772,1.19678 15.98648,0.36621c0.12595,4.29492 -0.32951,6.06006 -0.9651,10.27295c-0.47303,3.16113 -0.96949,6.31934 -1.48938,9.47461c-0.16402,0.9082 -0.30754,1.84131 -0.45838,2.75537c-1.96973,-0.27686 -7.76705,-0.05127 -9.94284,0.01611c-0.16388,-1.34326 -0.37945,-2.68506 -0.57715,-4.02539c-0.92468,-6.26514 -1.41923,-12.63281 -2.55362,-18.85986z" fill="#9d6509"/><path d="M206.05907,169.99365c2.54381,-0.03516 5.08909,-0.0542 7.6329,-0.06006c-0.09519,7.43994 -0.15231,15.42188 0.01757,22.84424l-1.5421,0.51123c-2.01953,0.61377 -4.05223,1.27295 -6.12009,1.69043z" fill="#828182"/><path d="M146.28841,93.97808c6.37842,-3.93193 7.18389,-4.83149 14.7421,-2.97539c0.56383,0.10562 1.02514,0.19966 1.58165,0.34028c-5.23114,2.66558 -10.47693,5.30303 -15.73737,7.91206c-5.57588,2.74746 -11.31257,5.28442 -16.41572,8.85483c-0.8989,0.62886 -2.31228,1.95542 -3.16241,2.43574l-0.5959,-0.18325c-0.48797,-0.68379 -1.90061,-1.79385 -1.9958,-2.22422c2.11208,-3.44912 17.42944,-12.27407 21.58345,-14.16006z" fill="#fdf462"/><path d="M146.28841,93.97808c6.37842,-3.93193 7.18389,-4.83149 14.7421,-2.97539c-1.28435,0.28652 -4.12399,-0.64995 -5.52697,-0.6334c-0.82597,0.00981 -2.33293,0.43374 -3.19844,0.64805c-1.31364,0.32563 -4.75665,3.13447 -6.0167,2.96074z" fill="#fdf905"/><path d="M233.732,165.9126l0.03368,0.01904c0.22846,0.37646 0.12741,18.65479 0.25775,20.94287c-2.26556,0.479 -4.98072,1.42529 -7.28582,2.09033l-0.21967,-0.05566c-0.37052,-1.15283 -0.10251,-20.36865 -0.09812,-22.98926c2.25531,0.11572 5.04515,0.06006 7.31218,-0.00732z" fill="#828182"/><path d="M88.44955,243.17139l9.74162,-0.00879c-0.10808,4.88379 0.0495,9.75439 -0.05638,14.63232c-4.66585,0.03662 -5.77784,-1.19678 -9.68831,-3.4292c-0.13913,-3.479 -0.03793,-7.6875 0.00308,-11.19434z" fill="#fdf905"/><path d="M143.59844,165.88184c8.16041,-0.5083 18.38985,-0.14648 26.07401,2.6001c-0.42031,1.40625 -0.62241,3.13916 -0.90212,4.63037c-3.01684,-2.15479 -9.1135,-3.83496 -12.76593,-4.49707c-10.04008,-1.61426 -16.63334,0.00879 -25.76383,3.99023c-0.05214,-1.20996 -0.29934,-2.96191 -0.44022,-4.21582c4.03451,-1.80322 9.42397,-2.12988 13.7981,-2.50781z" fill="#9d6509"/><path d="M205.52892,248.90625c3.95997,-0.37207 6.12155,0.76318 8.99927,3.32666c-2.46034,1.85596 -7.71345,4.59961 -10.60288,6.01465c-2.06346,1.02246 -4.2558,1.97461 -6.35441,2.97949c-1.20967,-6.2959 1.55089,-11.05518 7.95802,-12.3208z" fill="#828182"/><path d="M81.97886,196.37256c2.20537,0.11133 4.7259,-0.0249 6.96627,0.02344c7.07669,0.15527 14.72321,-0.23291 21.74498,0.06592c-0.32717,0.93311 -0.56441,1.79443 -0.82905,2.74658l-0.1895,0.5083c-0.5133,0.2666 -25.04022,0.09375 -27.49368,0.07764c-0.01538,-1.27734 -0.06297,-2.15332 -0.19902,-3.42188z" fill="#eaeaea"/><path d="M74.34054,169.5l37.51369,-0.00293l-0.6826,2.11377l-0.08318,0.1084c-0.85965,0.35889 -32.15763,0.15967 -36.35148,0.15967z" fill="#eaeaea"/><path d="M79.3236,198.83789c0.48562,-0.00439 1.07947,0.04834 1.57213,0.07617c0.23593,1.18213 0.3689,2.7627 0.49148,3.9873c-6.03559,0.56982 -3.61962,2.79346 -11.36456,0.73535c-1.0266,-0.31641 -1.78843,-0.5127 -2.83788,-0.74561c1.55367,-1.64355 3.01684,-2.86816 5.12819,-3.69287c2.70857,0.51563 4.32067,0.11279 7.01064,-0.36035z" fill="#f91505"/><path d="M181.60068,232.96436l0.63852,0.36035l-0.28411,0.56836c0.00586,0.01172 3.93361,4.07373 4.56187,4.8999c-2.12058,1.76807 -2.57457,2.82129 -4.2558,4.75488c-0.94899,-0.5083 -5.49182,-4.02832 -6.11569,-3.87598c-0.04979,0.01172 -0.09373,0.03662 -0.14059,0.05566l-0.44667,-0.38379c2.34171,-2.14453 4.0083,-3.98145 6.04247,-6.37939z" fill="#7ec527"/><path d="M189.60117,211.81201c0.32072,0.06738 0.61655,0.11133 0.9197,0.22559c0.83183,0.60059 4.13132,0.77197 5.19307,0.83789c-0.54186,2.55908 -1.20527,5.25732 -1.60215,7.82227c-1.32243,-0.33691 -3.65682,-1.0708 -4.92214,-0.8335c-0.33976,0.24316 -0.30754,0.29736 -0.46278,0.70313c-0.27825,-0.30322 -0.16256,-0.17139 -0.67659,-0.30469c0.87576,-3.23584 1.15841,-5.15918 1.55089,-8.45068z" fill="#7ec527"/><path d="M67.88538,194.5166c-0.31281,-3.94922 3.85145,-1.37842 5.34742,-0.2124c2.98301,1.55273 6.35177,-1.70801 7.52424,0.71045c0.2308,0.47607 0.01699,1.92041 -0.0558,2.54883c-1.82665,0.22266 -5.49578,1.16455 -7.23837,0.64746c-0.31399,-0.09229 -1.79033,-1.36816 -2.2909,-1.67871l-1.03583,-0.18457c-0.79258,-0.71338 -1.39492,-1.18945 -2.25077,-1.83105z" fill="#0201fb"/><path d="M67.88538,194.5166c-0.31281,-3.94922 3.85145,-1.37842 5.34742,-0.2124c-1.5153,-0.2168 -3.06327,-1.72119 -4.27776,-1.29053c0.18658,0.51855 0.10705,0.76611 0.03354,1.29199c0.37227,0.85547 1.38072,0.91846 2.1834,2.22656l-1.03583,-0.18457c-0.79258,-0.71338 -1.39492,-1.18945 -2.25077,-1.83105z" fill="#020464"/><path d="M163.52453,246.53906l0.27239,0.05713c-0.24018,1.32861 0.68538,4.05908 1.09544,5.42139c-1.9463,0.49072 -3.75055,0.94922 -5.66903,1.53809c-0.36905,0.12744 -0.35148,0.11279 -0.74689,0.09814c-1.19063,-0.98437 -0.71906,-4.17187 -0.57847,-5.52539c1.88626,-0.48926 3.76227,-1.01807 5.62656,-1.58936z" fill="#7ec527"/><path d="M177.55577,66.75776c0.32951,0.55195 0.57261,2.39443 0.57554,3.06914c0.02343,5.08418 -2.80156,11.15522 -6.27972,14.74438l-0.1567,0.04937l-0.1318,-0.11924c0.74542,-1.90913 1.51281,-4.51318 2.17769,-6.50566z" fill="#fdf462"/><path d="M66.35206,193.47363l1.53332,1.04297c0.85585,0.6416 1.45819,1.11768 2.25077,1.83105c0.43905,0.57129 1.10276,1.2627 1.59761,1.81055c-2.35416,1.31104 -3.46483,2.10938 -5.35328,4.00781c-0.04555,-2.89746 -0.05492,-5.79492 -0.02841,-8.69238z" fill="#fcf5a9"/><path d="M232.71711,233.80957c0.81572,0.83496 1.567,1.604 2.33293,2.48437c-2.10447,2.14893 -4.1401,3.88623 -6.43495,5.84033c-0.24164,-1.11475 -0.63559,-1.03564 -0.49207,-2.35107c1.09397,-0.86133 3.63925,-4.63477 4.59409,-5.97363z" fill="#fdf462"/><path d="M129.54289,174.02197c3.27327,-2.0874 8.58233,-3.90234 12.32058,-4.55127c0.62299,0.05713 1.25594,0.00879 1.65267,0.54199c-1.34059,0.14795 -2.66859,0.39258 -3.97315,0.73535c-1.53361,0.31787 -2.96251,0.85986 -4.41967,1.42676c-0.81279,0.36182 -3.56676,1.72705 -4.21025,1.95117c-0.97857,-0.0498 -0.49016,0.26953 -1.37017,-0.104z" fill="#e2d8f0"/><path d="M188.05028,220.2627c0.51403,0.1333 0.39834,0.00146 0.67659,0.30469c-1.02953,3.32813 -1.62851,5.21924 -3.51477,8.29102c-0.92116,1.49854 -2.09861,3.03662 -2.97291,4.46631l-0.63852,-0.36035c3.14425,-3.96533 4.9895,-7.89404 6.4496,-12.70166z" fill="#a2b66e"/><path d="M224.55992,155.06543c0.4247,0.85693 0.92702,1.78857 1.23163,2.68945c-0.85087,2.12842 -2.25531,3.13623 -2.58189,5.04492c-0.08201,-1.20703 -0.63852,-1.31396 -1.59922,-2.0127c2.23334,-1.54395 2.32853,-3.16992 2.94948,-5.72168z" fill="#4c92bb"/><path d="M189.60117,211.81201c0.20063,-2.01416 0.27972,-3.3252 0.14498,-5.3584c-0.12302,-1.83838 -0.51989,-3.98145 -0.58726,-5.76855c1.53185,3.24609 1.39858,7.75488 1.36197,11.35254c-0.30315,-0.11426 -0.59897,-0.1582 -0.9197,-0.22559z" fill="#a2b66e"/><path d="M175.55821,239.34375l0.44667,0.38379c-2.10593,1.67578 -4.8782,3.75146 -7.36637,4.78564l-0.44374,-0.09082c2.31096,-1.16016 5.39224,-3.41455 7.36344,-5.07861z" fill="#a2b66e"/><path d="M85.08562,142.76411c1.21025,-0.01846 6.45253,-0.18384 7.3318,0.16978l0.15611,0.25605l-0.10032,0.22705c-0.7712,0.06226 -4.58589,0.10107 -5.2947,0.0271c-0.06136,-0.17534 -0.15187,-0.32271 -0.24018,-0.4897c-0.52809,-0.24873 -1.24745,-0.1856 -1.85272,-0.19028z" fill="#4c92bb"/><path d="M162.67952,246.00293c1.52307,-0.66943 3.04174,-1.34912 4.55602,-2.03906l0.1113,0.3457c0.38077,0.16992 0.42031,0.12891 0.84794,0.11279l0.44374,0.09082c-0.71906,0.43652 -3.52502,1.92041 -4.26605,1.82959c0.25482,-0.55664 2.61411,-0.75732 2.41054,-1.45898c-0.90505,0.25488 -3.4679,1.19531 -4.10349,1.11914z" fill="#111902"/><path d="M99.20503,143.43867c-1.1524,0.00601 -4.27293,0.43975 -4.98819,-0.34438l0.11701,-0.27847c1.02104,-0.13389 3.68655,-0.02358 4.91628,-0.02109z" fill="#4c92bb"/><path d="M163.85843,278.37158c4.96168,-0.39844 9.16915,1.90723 9.89846,7.19092c0.33244,2.40381 0.07615,4.56299 -1.48938,6.55957c-1.91555,2.44189 -3.89993,3.24609 -6.88016,3.66797c-4.88992,0.27979 -9.19697,-1.67871 -10.00098,-6.99316c-0.39834,-2.47266 0.21674,-4.99951 1.70466,-7.01221c1.65194,-2.19141 4.17232,-3.04541 6.76739,-3.41309zM165.73005,295.01074c1.71052,-0.39697 3.90432,-1.13379 4.75958,-2.79346c2.58628,-5.01416 0.11569,-13.64062 -6.60483,-13.11475c-9.76519,1.45752 -6.80107,16.82666 1.84525,15.9082z" fill="#010101"/><path d="M185.39077,273.2417c2.31389,-0.17139 4.66,-0.00293 6.53014,1.37549c5.03051,3.70898 4.79033,11.67041 -0.75567,14.80957c-1.40591,0.79541 -2.40176,1.02979 -3.90871,1.32861c-2.10447,0.22559 -4.12692,0.10986 -6.02197,-1.02246c-4.32023,-2.57959 -5.54308,-8.13574 -2.80596,-12.33105c1.5465,-2.37158 4.24115,-3.61963 6.96217,-4.16016zM187.77056,289.83398c0.80986,-0.03662 1.39566,-0.41895 2.10447,-0.75146c2.35489,-1.10449 3.69051,-3.13037 3.50598,-5.77148c-0.30315,-4.34619 -3.01245,-9.82617 -8.15572,-9.19189c-10.65267,1.6582 -5.26629,17.25732 2.37833,15.74854z" fill="#010101"/><path d="M107.52009,7.37925c1.90998,-0.32348 4.63773,0.54113 6.08304,1.73997c3.67015,3.04425 4.2249,8.99591 1.08269,12.62008c-1.88245,2.17119 -4.32433,3.02271 -7.01035,3.25562c-2.03271,0.2127 -4.55294,-0.49277 -6.17706,-1.75269c-1.75826,-1.35967 -2.89075,-3.37383 -3.13913,-5.58281c-0.68465,-5.96467 3.57379,-9.66062 9.1608,-10.28017zM108.45751,24.19731c2.07723,-0.48691 4.23266,-1.23955 5.34786,-3.17285c2.09656,-3.63472 0.03046,-10.01996 -3.55563,-12.07024c-1.31174,-0.74999 -2.2496,-0.77232 -3.62534,-0.66057c-10.264,1.03228 -6.06165,16.63667 1.8331,15.90366z" fill="#010101"/><path d="M209.91067,14.88076c0.87869,-0.0041 1.45277,0.34995 2.13815,0.88096c2.25677,1.75166 4.95729,2.58853 7.32536,4.12983c7.7896,5.07158 3.71394,17.30479 -5.8887,15.96167c-1.91701,-0.55811 -10.6146,-4.89272 -11.54454,-6.17036l0.11716,-0.18779c0.71613,-0.11558 1.3195,0.17988 2.02978,0.4207c1.89212,-1.92686 6.39102,-10.26255 7.76471,-13.01558c-0.99439,-0.80068 -1.53039,-0.76846 -1.94191,-2.01943zM214.58238,34.25098c3.7813,-0.40415 6.8743,-4.82227 6.44081,-8.53843c-0.39102,-3.36416 -3.84574,-6.96665 -7.15255,-7.58115l-0.07615,0.14766c-1.23896,2.40161 -6.85965,10.80352 -6.28997,12.9498c0.25921,0.97954 1.30046,1.65718 2.14987,2.08184c1.60947,0.80581 3.14865,0.9832 4.928,0.94028z" fill="#010101"/><path d="M32.63651,210.71777c0.57525,0.21973 3.50613,5.69385 3.63881,6.39258l-0.17266,0.10693c-0.85013,-0.43066 -1.24335,-1.04443 -1.88787,-1.77979c-1.14113,2.31445 -3.01523,6.01465 -4.33224,8.16943c3.30403,0.22266 5.81796,0.76758 9.26624,0.68115c-0.24208,-1.16162 -0.39512,-1.95117 -0.51403,-3.12451c1.16456,1.39307 1.51662,3.04541 2.50339,4.15723c1.86517,2.10059 4.23207,3.78662 6.08509,5.97803c1.74772,2.06689 2.58174,4.79736 0.28103,6.83936c-0.95089,0.80713 -2.83246,0.33398 -3.99014,0.11719c0.99644,2.0127 1.12722,4.91162 -0.83402,6.32813c-4.66527,3.37061 -8.86615,-2.34375 -11.67415,-5.17529c-0.5423,-0.52148 -1.47825,-1.32275 -1.7937,-1.94678l0.22641,-0.27539c0.79902,-0.00146 1.29812,0.79395 2.08733,0.85254c0.26859,0.01758 0.53395,-0.06738 0.74308,-0.23584c0.82231,-0.65625 1.69793,-1.89111 2.53927,-2.59277c2.65614,-2.21631 5.02743,-4.86035 7.59102,-7.13672c-0.40566,-0.40869 -1.4352,-1.47363 -1.82709,-1.69336c-2.78604,-1.56592 -7.60288,-1.54102 -10.8845,-1.96729c-2.19468,1.10156 -3.6971,1.86035 -5.72863,3.29443c0.29231,1.0415 1.06234,2.17236 0.83432,2.91797l-0.26449,0.05713c-0.73649,-0.79248 -3.98604,-6.22705 -3.86624,-7.22461l0.23871,-0.02344c0.9897,0.63867 1.4784,1.29932 2.18267,2.21924c1.45116,-1.03271 3.87342,-1.74023 4.96812,-3.22412c1.07742,-1.46045 1.87938,-3.23584 2.68982,-4.875c0.74367,-1.50439 1.80908,-3.27246 2.27962,-4.86328c-0.35616,-0.85107 -0.48972,-1.05615 -0.38516,-1.97314zM42.61831,240.07764c-0.90608,-2.3833 -1.79121,-3.4292 -3.70984,-5.13721l-0.24647,-0.04395l-0.11745,0.13037c-1.1215,1.22754 -4.28889,3.75293 -4.70686,5.24414c-0.12155,0.43359 1.19634,2.19873 1.62412,2.51807c0.87181,0.65186 1.33942,0.93018 2.42988,1.14697c2.69685,-0.24609 3.94181,-1.2085 4.72663,-3.8584zM39.42089,234.16992c1.02851,1.22021 2.06888,2.29834 3.57144,2.9458c2.30862,0.01758 3.91633,-0.75732 4.47342,-3.09668c-0.74308,-1.76953 -1.497,-3.25195 -3.16871,-4.37988c-1.59234,1.77686 -3.29143,2.72314 -4.87615,4.53076z" fill="#010101"/><path d="M14.99824,124.71108c3.14908,-0.14458 5.0453,1.72148 5.5422,4.77686c0.0949,0.60425 0.12375,1.21685 0.08597,1.82739c-0.04906,0.8707 -1.05502,8.55425 -1.21186,8.77954l-0.29085,0.02476c-0.54406,-0.52822 -0.35616,-1.96772 -0.32819,-2.70366c-1.86693,-0.60776 -8.88157,-1.39043 -11.21556,-1.68296c-1.22572,-0.16479 -2.18337,-0.19248 -3.44106,-0.46304c-0.26454,0.78442 -0.57096,2.31123 -0.97013,2.89556l-0.18448,-0.01216c-0.12904,-0.20435 -0.2341,-0.49219 -0.19333,-0.73872c0.74085,-4.48052 -0.30861,-8.70981 3.03821,-12.24902c2.9174,-0.63062 3.86324,-0.28301 5.39755,2.28354l0.25772,0.04102c1.02032,-1.61821 1.38858,-2.44702 3.51381,-2.7791zM11.3761,133.99526c1.24335,0.17285 2.48769,0.33823 3.733,0.49644c2.21826,0.21196 4.5301,0.71089 4.60683,-2.36821c0.02167,-0.86792 0.02826,-1.52959 -0.13283,-2.40322c-1.04491,-1.17656 -1.83676,-2.40234 -3.41299,-2.51104c-4.64859,0.17974 -4.21711,3.14897 -4.79402,6.78604zM4.042,132.98657c1.54546,0.30601 2.96727,0.44956 4.51794,0.66226l1.93891,0.21577c0.36078,-1.777 0.40546,-2.30977 0.35695,-4.10684c-1.09968,-1.829 -1.98735,-2.64902 -4.20685,-2.56392c-2.53327,0.70356 -2.45277,3.61729 -2.60695,5.79272z" fill="#010101"/><path d="M262.20308,55.80264c0.05565,0.00103 0.52282,0.00586 0.58872,0.04775c1.39419,0.89443 3.77984,4.41006 4.67025,5.67231c0.8289,1.34063 1.57432,3.17959 1.031,4.73555c-1.18184,3.38716 -4.11667,2.64785 -6.72931,1.85977c-2.20991,5.44014 -4.57213,7.9541 -0.40127,13.19941c4.17086,-2.01899 8.67269,-4.96758 12.91091,-7.25215c-0.24457,-0.97646 -1.09544,-2.32808 -0.82451,-3.01597c0.22407,0.06416 0.29583,0.02168 0.41591,0.21094c1.2331,1.95176 2.30364,4.01206 3.56163,5.96016c0.19624,0.30264 0.15231,0.41191 0.11423,0.71968c-0.98999,0.37441 -0.91677,-1.33418 -2.14401,-1.70771c-1.36783,0.25972 -6.32365,3.329 -7.75738,4.19604c-1.31511,0.73447 -3.44008,1.82388 -4.60288,2.71304c-0.67952,0.51958 0.34269,1.97241 0.46278,3.12861l-0.17427,0.16831c-0.61362,-0.37925 -5.55773,-9.23291 -6.64144,-10.89331c-0.20503,-1.51421 2.76056,-7.10771 3.52502,-9.0583c-0.3837,-0.55137 -0.85233,-1.3894 -1.49524,-1.52241c-1.33415,0.48794 -4.28655,3.14897 -5.37613,4.2063c0.28704,0.72583 0.66634,1.49341 0.55797,2.26362l-0.21528,0.03853c-0.84647,-0.57114 -4.29973,-5.04375 -4.3217,-6.02065l0.24164,-0.0356c0.77618,0.39302 1.21552,0.96592 1.81743,1.60708c3.8516,-2.27725 8.02831,-5.89131 11.60752,-8.64404c0.57701,-0.44399 -0.72346,-1.90356 -0.82158,-2.57695zM259.49378,64.0084c0.98853,1.03608 1.63583,2.06499 2.71662,2.93818c2.72541,0.30483 4.04638,-0.45923 4.80644,-3.22808c-0.32512,-1.00884 -0.93581,-3.01904 -1.87747,-3.54507l-0.36905,0.01084c-1.31511,0.90249 -4.22944,3.42554 -5.27654,3.82412z" fill="#010101"/><path d="M25.85975,107.32207c0.27693,0.85386 -0.80605,3.55884 -1.10583,4.74155c-1.86092,0.6249 -6.79068,1.70522 -8.8269,2.21382c-0.47669,0.76055 -0.65814,1.54995 -0.92292,2.41289c1.82768,0.48032 4.62397,1.4584 6.45721,1.63374c0.5937,0.05669 1.80586,-1.93843 2.35929,-2.63877c-0.15421,0.97954 -1.84306,7.28921 -2.27684,7.96084l-0.1176,-0.11528c-0.09373,-0.95962 0.0596,-1.68516 0.20239,-2.63584c-2.13493,-0.65215 -4.27864,-1.275 -6.43071,-1.86841c-1.82705,-0.44824 -5.95066,-1.81201 -7.58206,-1.87134c-1.21505,0.40737 -1.06984,2.1895 -1.95693,2.34917l-0.11402,-0.25518c0.01776,-1.42017 1.50681,-6.81592 2.05889,-8.38154c0.40903,-1.03154 1.27829,-2.44453 2.42487,-2.77471c3.80219,-1.09482 4.87402,1.25171 5.99581,4.06538c2.7361,-1.03916 6.41357,-1.15342 8.51555,-3.21167c0.21997,-0.21548 1.05751,-1.29814 1.31979,-1.62466zM7.43114,114.73184c1.37192,0.35786 3.30923,0.81621 4.61025,1.2501c0.83199,0.20728 1.50956,0.39141 2.36947,0.48516c0.11953,-0.78267 0.27531,-1.61631 0.3336,-2.4041c0.20913,-2.8248 -1.67334,-4.08984 -4.28131,-3.71763c-1.3347,0.63516 -2.08326,1.57661 -2.56915,2.96338c-0.16199,0.47183 -0.31629,0.94629 -0.46285,1.4231z" fill="#010101"/><path d="M240.54772,239.42578c0.35001,0.18018 0.22407,0.05127 0.34855,0.43066c-0.22114,0.66504 -0.68684,1.15137 -1.13058,1.70947c1.21992,1.0708 10.79473,11.56201 10.56041,12.62402c-0.80986,0.44531 -17.94435,-1.93652 -19.77056,-2.31152c2.09275,2.06543 3.85013,4.28613 5.74957,6.52148c0.93288,1.09863 1.93459,2.10352 2.87625,3.2124c0.61216,-0.52734 2.09714,-1.4751 2.93044,-1.4209l0.05272,0.12598c-0.34562,0.92871 -4.31438,4.21729 -5.1462,4.61865l-0.23871,-0.09521c-0.04979,-0.51416 0.19038,-0.76465 0.47303,-1.21436l0.99146,-1.17334l-5.51379,-6.6167c-1.15402,-1.39746 -2.34464,-2.94141 -3.59385,-4.22754c-1.52014,-0.48926 -2.03417,1.1543 -3.21748,0.62256l-0.04101,-0.19336c1.53332,-1.64502 2.07371,-2.82715 4.58238,-2.46094c4.06688,0.59326 8.13229,1.18506 12.21528,1.66113c1.71931,0.20068 3.48694,0.36768 5.1257,0.93311c-2.12643,-2.19141 -3.93215,-4.81934 -6.12887,-6.97705c-0.90066,-0.88477 -1.94191,-1.93799 -2.52477,-3.0498c-0.57994,0.36914 -2.08396,1.53516 -2.67708,1.22314c0.28265,-0.75732 3.23505,-3.22412 4.07713,-3.94189z" fill="#010101"/><path d="M136.2867,1.08688c0.51755,-0.11341 0.2538,-0.12387 0.80649,0.14271l-0.00981,0.18563c-0.66488,0.36818 -1.28216,0.66721 -1.96358,0.99525c0.25497,2.84751 3.19771,14.6267 2.48392,16.46581c-0.52092,-0.10122 -3.31677,-2.24121 -3.93932,-2.74277c-3.97286,-3.20027 -8.11223,-6.13986 -11.73376,-9.7391c0.70032,4.29652 1.42802,8.58847 2.18311,12.87577c0.75216,-0.00029 2.50471,-0.10342 3.05902,0.34014c-0.472,0.55283 -5.2701,1.29829 -6.23402,1.35908l-0.32263,-0.31392c0.83197,-0.65581 1.36212,-0.74927 2.37305,-1.10288c-0.05975,-2.98022 -1.55865,-10.37629 -2.20771,-13.58216c-0.20766,-1.02564 -2.12438,-1.01042 -2.91023,-1.35158l0.04877,-0.24186c0.81264,-0.60754 2.72043,-0.79207 3.79375,-0.95238c1.28714,0.95855 2.74064,2.21965 4.01181,3.25534c3.40259,2.77229 7.4043,5.7616 10.67567,8.63266c-0.21089,-2.21487 -1.65414,-11.24108 -2.64237,-12.85257c-0.73927,0.0778 -1.88392,0.32644 -2.40527,-0.09141l-0.00923,-0.23237c0.61186,-0.5182 3.84838,-0.85459 4.94235,-1.04937z" fill="#010101"/><path d="M63.80093,248.63672c4.29666,-0.57568 9.27444,2.90771 11.2146,6.6123c-0.27928,0.70898 -1.05956,2.53271 -1.69192,2.88281c-0.24823,-0.37354 -0.1012,-1.83984 -0.16593,-2.44629c-0.22597,-2.9209 -3.42939,-5.34375 -6.1466,-5.65576c-6.38326,-0.7002 -11.85194,8.01416 -7.40415,13.17188c1.08709,1.26123 4.60127,4.02979 6.00542,2.13867c0.83608,-0.99756 1.58867,-2.27344 2.29075,-3.38525c-0.56558,-0.63428 -2.34757,-1.9292 -2.17959,-2.62061c0.85658,-0.09668 6.43891,3.97559 6.70017,4.77393l-0.22216,0.17285c-0.66488,-0.00732 -1.41191,-0.646 -1.99185,-1.04736c-0.65946,0.88037 -2.86702,4.21436 -3.91237,4.22754c-2.0803,0.02637 -4.78741,-1.41943 -6.47933,-2.62939c-6.94855,-4.96875 -4.80908,-15.0835 3.98296,-16.19531z" fill="#010101"/><path d="M11.39244,200.79346c0.97924,0.2915 1.08967,1.23926 1.99885,2.24268c1.43868,0.09521 2.87974,0.14941 4.32152,0.16406c1.83193,0.00293 12.40303,-0.43359 13.47547,0.50244c-0.01933,1.86182 -11.21928,9.8877 -12.90974,11.70996c-0.4638,0.49951 -0.38985,0.91846 -0.32526,1.59229l0.02065,0.19629c0.01787,0.09375 0.03573,0.1875 0.0536,0.28125c-0.0019,0.30176 -0.13766,0.58594 -0.37008,0.77637l-0.20942,-0.15088c-0.50188,-1.19971 -2.19278,-5.65137 -1.89036,-6.71191l0.24384,0.0498c0.55636,0.65039 0.77545,1.30078 1.11784,2.08887c1.65297,-0.91699 3.961,-3.07617 5.38858,-4.40039c-0.49998,-1.56738 -1.25067,-3.35889 -1.81069,-4.96729c-1.93664,0.04541 -4.79561,-0.09668 -6.70556,0.16406c-0.56608,0.07764 0.4132,1.93945 0.08069,2.67773l-0.30403,0.06006c-0.3985,-0.70312 -2.25081,-5.60596 -2.1759,-6.27539zM23.31682,208.59521c0.70852,-0.89355 1.51032,-1.70947 2.39195,-2.43311c1.01591,-0.70459 1.74874,-1.4707 2.68792,-2.10937c-1.68474,0.0293 -5.4473,0.18311 -6.95924,0.00439c0.72961,1.60107 1.02807,2.94727 1.87938,4.53809z" fill="#010101"/><path d="M17.06698,86.40952c1.04901,0.02036 2.9899,0.80317 3.95646,1.25054c-0.96012,0.12847 -2.39473,0.21709 -3.27767,0.49644c-3.08245,0.97515 -4.57866,6.0208 -3.53178,8.82261c0.74545,1.99512 2.46373,3.73755 4.36625,4.62612c3.64262,1.70156 9.03925,0.39639 10.70525,-3.48032c1.96886,-4.69512 -0.40083,-5.10029 -4.17174,-6.28652c-0.49939,0.93018 -0.97681,1.99248 -1.78784,2.65825l-0.12536,-0.16743c0.19858,-1.50601 1.11272,-3.30278 1.75035,-4.72017c0.30608,-0.81401 0.74952,-2.28003 1.47781,-2.75068c0.19785,0.55898 -0.29949,2.75508 0.01128,2.91782c2.33615,1.21377 5.13669,1.02158 4.6329,4.46074c-0.52634,3.62007 -2.06507,8.08931 -5.59346,9.74883c-7.23061,3.40107 -14.19816,-2.60391 -12.45007,-10.30591c0.5673,-2.49946 1.95775,-5.84487 4.03762,-7.27031z" fill="#010101"/><path d="M216.9153,256.53516c2.09714,0.37354 8.67415,6.06152 10.78008,7.44727c0.85233,0.55957 2.03856,1.74463 3.21162,2.34521c1.62997,0.83643 2.20698,0.02051 3.01684,0.30322l-0.06737,0.2373c-0.69563,0.6709 -5.20332,3.90967 -5.99414,3.43945c0.38955,-0.83203 1.21259,-1.3667 1.94191,-1.94092c-1.35611,-1.02832 -3.9878,-3.37207 -5.32048,-4.13965c-0.63852,0.03809 -0.60337,0.15967 -1.23017,0.57568c-3.20576,2.18262 -3.80913,1.90723 -2.42226,5.86963c0.23285,0.66797 0.37637,2.32617 0.86405,2.70117c0.80693,0.06592 1.76031,-0.33984 2.7093,-0.47461v0.1626c-0.10398,0.09668 -0.21089,0.19043 -0.31779,0.28271c-0.72053,0.61377 -4.69514,3.26367 -5.55626,3.1875c0.23578,-0.82764 1.59629,-1.37402 1.66512,-2.08154c0.34562,-3.5918 -3.78716,-14.95605 -3.28045,-17.91504zM219.63193,266.10205c0.77032,-0.48047 1.91701,-1.15576 2.60239,-1.71387c0.45399,-0.30908 0.95924,-0.66943 1.42348,-0.94922c-1.82768,-1.21582 -3.53381,-2.57813 -5.32048,-3.78076c0.45106,2.61621 0.49207,3.80127 1.29461,6.44385z" fill="#010101"/><path d="M86.98623,260.85205c0.35909,-0.02783 0.2475,-0.01611 0.61816,0.09668c0.54245,0.9375 -2.18736,15.38965 -2.32165,17.67187c0.60805,0.54785 1.20176,0.96533 1.5011,1.70068l-0.12975,0.18018c-0.90754,-0.10693 -5.64076,-2.66016 -5.93102,-3.47314l0.23886,-0.12012c0.7999,0.00293 1.39961,0.33984 2.14782,0.65918c0.73546,-2.41699 0.90271,-4.48535 1.49202,-6.89063c-1.5216,-0.68408 -3.00674,-1.44727 -4.44911,-2.28516l-0.13136,-0.06152c-0.66268,0.06738 -4.53405,3.7749 -5.47908,4.50732c0.82978,0.62695 1.57842,1.09863 2.20859,1.92627l-0.09973,0.15234c-1.09295,-0.11133 -5.57691,-2.58838 -5.90935,-3.46289l0.20722,-0.16553c0.68348,-0.01904 1.43549,0.4292 2.11618,0.72363c1.07728,-0.49072 1.50725,-0.76465 2.41377,-1.5293c3.84076,-3.2373 7.48689,-6.61084 11.50735,-9.62988zM80.35738,267.33838c0.58462,0.36768 1.14713,0.70898 1.70203,1.12354l2.60415,1.35498c0.12551,-0.89941 1.03071,-6.26514 0.67996,-6.60352c-1.17188,0.95801 -3.95558,3.44092 -4.98614,4.125z" fill="#010101"/><path d="M129.10749,276.51855c1.02001,0.28418 1.28084,3.74854 1.42275,4.7124c0.38326,2.57813 0.75099,5.15771 1.1032,7.74023c0.2084,1.53369 0.41621,3.73682 0.83681,5.16504c0.74162,0.49658 1.33371,0.73242 1.86532,1.3916l-0.09124,0.18164c-0.95675,0.05566 -6.52692,-0.95801 -7.095,-1.71094l0.23476,-0.26514c0.77266,-0.33105 1.83603,0.07471 2.69202,0.2915c-0.19317,-2.26904 -0.35821,-4.78125 -0.66912,-7.01807c-1.42158,-0.35449 -2.95035,-0.63574 -4.42158,-0.99609c-0.17413,-0.03516 -0.5795,-0.1333 -0.69915,-0.0498c-1.10891,0.77637 -3.11189,4.87793 -3.74542,6.01172c0.8844,0.27979 1.69968,0.48633 2.45067,1.02832l-0.00908,0.16699c-0.99629,0.20508 -5.88108,-0.75146 -6.5401,-1.35352l0.14645,-0.16846c0.87474,-0.25488 1.78169,-0.17285 2.6989,-0.15381c0.86214,-1.72559 3.2103,-4.80615 4.25023,-6.61816c0.98194,-1.70947 4.21245,-7.21582 5.56959,-8.35547zM124.33693,285.2124c0.50056,0.01904 1.24496,-0.02051 1.64096,0.1875c1.13629,0.31055 2.16129,0.41748 3.30256,0.63867c-0.26493,-1.09424 -0.92102,-4.93359 -1.0496,-6.1333l-0.16695,-0.17432c-1.31233,1.79004 -2.52053,3.89795 -3.72697,5.48145z" fill="#010101"/><path d="M141.42499,0.90646c0.85072,-0.09657 3.79536,0.03047 4.85258,0.0451l9.82202,0.0908c-0.20796,1.62772 -0.08348,2.72285 0.0249,4.33305c-0.72639,-1.05095 -1.30339,-2.63739 -1.97706,-3.39076c-1.26092,-0.59047 -6.1318,-0.14392 -7.85331,-0.09262c0.03983,2.26258 0.006,4.59246 0.10193,6.84063c2.07357,0.12126 4.62763,-0.00567 6.74088,-0.06045c0.12448,-0.73247 0.24603,-1.94386 0.79668,-2.42221l0.19624,0.22118c0.19624,0.76003 0.39834,5.15096 0.15816,5.84829l-0.21235,0.09466c-0.55943,-0.63123 -0.59751,-1.988 -1.21113,-2.42438c-1.30486,-0.92767 -4.75812,-0.48105 -6.37344,-0.43951l-0.1321,0.13689c-0.05214,0.68943 -0.10061,7.14863 0.26976,7.23432c2.04882,0.47432 5.0349,0.15937 7.1628,0.05771c2.33878,-0.11177 2.69026,-2.61289 4.02148,-4.31867c-0.20942,1.73779 -0.6063,3.23556 -0.76886,5.07379c-4.82695,0.20405 -9.65975,0.28726 -14.4908,0.24932c-0.5237,-0.00234 -1.00478,0.03384 -1.33737,-0.29854c0.16929,-0.82983 2.09465,-0.16948 2.80815,-0.97207c0.15802,-0.92124 0.09387,-3.9645 0.07835,-5.11018c-0.04393,-3.23052 0.09373,-6.59489 -0.16519,-9.79676c-0.75524,-0.04906 -2.05013,-0.04726 -2.61762,-0.50448z" fill="#010101"/><path d="M90.50247,13.47633l0.30915,0.08502c0.21616,0.72217 -2.77681,17.24827 -3.32116,19.32249c2.02202,-0.51167 5.15016,-2.53022 6.81367,-3.23423c4.27205,-1.8082 1.3132,-5.23198 2.48245,-5.7063c0.76432,0.51504 1.55265,2.97788 2.10461,4.02993l0.07747,0.14473c-2.99663,1.64136 -8.27567,4.50146 -11.32458,5.69033l-2.52697,1.58291c0.59517,-4.10229 1.60757,-8.54033 2.15982,-12.72993c0.18277,-1.38604 0.9402,-5.84766 1.30896,-6.92637c-2.26805,0.61084 -6.13341,3.04819 -8.00488,4.48286c-0.55445,1.18286 -0.32014,1.64927 -0.76153,2.81074l-0.17823,0.07412c-0.57554,-0.72671 -0.88631,-3.73608 -0.60893,-4.64019l0.268,-0.13022c0.31267,0.50903 0.17837,0.46875 0.62739,0.65068c1.31262,-0.32578 8.9713,-4.55826 10.57476,-5.50658z" fill="#010101"/><path d="M250.6146,41.86392l0.23432,0.08496c0.18599,0.47871 0.03222,0.8042 -0.0659,1.37695c2.10447,2.80342 6.01172,5.95312 8.49988,9.20054c0.49939,-0.06108 1.92433,-0.35054 2.03417,0.39771c-1.00024,0.75352 -2.73127,2.67319 -3.69929,3.01553l-0.16109,-0.18003c0.11277,-0.95317 0.53893,-1.59932 0.97828,-2.46006l-0.12741,-0.1916c-0.63559,-0.94058 -2.35489,-3.22954 -3.50159,-3.44077c-0.86405,0.58052 -2.69319,2.4999 -3.50452,3.3123l-5.90627,5.89702l-0.28411,0.34365c-0.05419,0.91025 1.16427,2.51777 1.6988,3.40444c-2.3959,-0.99082 -3.43422,-2.98594 -5.28972,-4.67812c-0.39688,-0.3627 -1.14669,-1.1272 -1.22285,-1.64766c0.8084,-0.18091 1.98145,0.78633 2.72394,1.25376c1.5421,-1.30269 2.92897,-2.85249 4.43007,-4.18945c2.07078,-1.84263 3.69783,-4.01426 5.78765,-5.82817c-1.0105,-0.96548 -2.00928,-1.94385 -2.99634,-2.93467c-0.80986,0.0123 -3.21162,0.25635 -3.70369,-0.21328c0.21821,-0.56104 3.35367,-2.12974 4.07567,-2.52305z" fill="#010101"/><path d="M286.73175,98.21265c0.59751,-0.10898 0.93581,-0.13901 1.12473,0.44868c-0.13034,0.60264 -0.33537,0.70371 -0.80986,1.15342c0.89773,4.07622 2.85868,8.14863 3.59092,11.84121c0.58872,0.19072 1.3195,0.55063 1.89651,0.81357c-0.80254,0.31685 -4.5238,1.6623 -5.1462,1.52769c0.02197,-0.56411 1.45131,-1.54248 1.99609,-2.14248l0.10398,-0.11704c-0.27679,-1.904 -0.69563,-3.06284 -1.40298,-4.86079c-3.50012,0.95479 -8.27288,2.72549 -11.90627,3.87627c-2.28753,0.57671 -1.49524,1.67549 -1.44691,3.58345l-0.19038,0.14692c-0.72492,-0.61611 -2.60971,-6.7938 -2.57017,-7.88599l0.15816,-0.09214c0.51843,0.53364 1.39566,1.83179 1.90237,2.50869c4.72004,-1.25742 8.93483,-3.04204 13.44838,-4.35015c-1.21552,-4.11079 -1.15694,-4.05161 -5.12717,-5.67041l-0.04247,-0.2228c0.68684,-0.54507 3.33024,-0.47622 4.42128,-0.55811z" fill="#010101"/><path d="M28.21552,65.12549c0.36744,0.33457 0.21938,0.64702 0.18028,1.08223c-0.20884,2.32529 1.46434,4.9522 2.22485,7.07607c1.42436,3.97734 3.65931,5.21382 7.3012,6.97383c0.49719,-0.65024 1.33415,-1.93389 2.11047,-2.11084c-0.0476,0.57144 -3.72023,7.05161 -4.29285,7.35732c-0.62241,-2.221 2.90408,-2.44849 -1.75153,-5.09517c-3.00308,-1.70728 -3.56573,-1.23706 -6.87108,-1.13657c-2.1462,0.25913 -4.20308,0.20625 -6.42397,0.51401c-0.64071,0.5748 -0.82172,0.90132 -1.57286,1.43584l-0.19639,-0.04351c-0.19683,-1.13013 2.51979,-4.54321 3.1072,-5.75244c0.2122,-0.43696 0.51594,-0.58169 0.95646,-0.6627l0.13561,0.22412c-0.20971,0.6999 -0.74235,1.67505 -1.08079,2.3543c3.2639,-0.12583 6.06825,-0.26895 9.31794,-0.47212c-1.3627,-2.15713 -2.39429,-5.75669 -3.98867,-8.19932c-0.58257,0.52324 -1.27235,1.56489 -2.09363,1.52461c-0.04584,-0.69756 2.40805,-4.23018 2.93776,-5.06968z" fill="#010101"/><path d="M239.22382,34.18374c1.99756,0.12202 3.07249,0.57744 4.58238,1.85933c2.85721,2.42549 1.20967,3.77681 -0.6927,5.91694c0.25482,-1.56006 1.06175,-3.28506 0.20796,-4.79897c-0.73517,-1.30723 -2.9568,-2.60581 -4.39199,-1.67344c-2.38418,1.51802 -0.9607,4.07944 -0.03954,6.05127c1.43373,3.06943 2.39736,6.57671 -1.14962,8.68711c-1.43373,0.85386 -2.74591,0.61318 -4.26898,0.1938c-2.66976,-0.97002 -3.79302,-2.75347 -5.10373,-5.06865c0.4496,-0.71704 2.18062,-3.11763 3.07689,-2.95986c0.02636,0.67295 -0.91384,2.28164 -0.81425,2.88691c0.58872,3.5502 4.0991,6.20508 6.94166,2.89233c1.03246,-1.31865 -0.1362,-3.6123 -0.74542,-4.90649c-1.61826,-3.43477 -2.99341,-8.39312 2.39736,-9.08027z" fill="#010101"/><path d="M270.18306,195.17578c0.97828,0.68262 3.48108,1.75049 4.88553,2.60156c-1.00464,-0.01465 -2.23188,-0.16699 -3.2453,-0.271c-1.46742,1.49561 -1.8145,3 -2.63608,4.94971c2.60239,0.86719 5.5299,2.2207 8.10154,3.25781c1.5875,0.64014 3.41811,1.69189 5.0803,2.05225c0.48182,-0.65186 1.59043,-2.39795 2.35929,-2.36865c0.0864,0.31641 -1.30193,3.25049 -1.54943,3.68408c-0.51111,0.89795 -1.13205,3.8584 -1.90237,4.20117l-0.19038,-0.23291c-0.03368,-0.71631 0.25482,-1.95117 0.3998,-2.7085c-0.30461,-0.25928 -0.7835,-0.58154 -1.12326,-0.82324c-2.66976,-1.72705 -9.48255,-3.5376 -11.96925,-5.19287c-0.56529,1.2832 -1.44252,3.1084 -1.56993,4.49268c-0.11862,1.27002 1.60508,1.62305 1.37222,3.42041l-0.22553,0.09961c-1.10569,-0.82764 -2.96705,-2.26318 -3.9175,-3.1875l0.00293,-0.20215c0.39834,-0.32812 0.85819,-0.36182 1.37808,-0.47168c1.52453,-3.03369 3.66561,-8.09766 4.88992,-11.44922c0.0703,-0.19336 -0.23871,-0.56689 -0.3837,-0.74854l-0.16549,-0.20508c0.04686,-0.57422 0.01025,-0.375 0.40859,-0.89795z" fill="#010101"/><path d="M110.12336,272.08594c2.35153,-0.18018 6.29099,1.55566 7.70056,3.45557c-0.16578,0.71924 -0.30447,1.72119 -0.75626,2.25c-0.82231,-0.52881 -0.77252,-2.79053 -3.26317,-4.0415c-6.59004,-3.30615 -11.83612,6.02637 -9.94825,11.51367c0.53717,1.56152 2.02202,2.60449 3.52765,3.22852c4.96856,1.64941 5.103,-1.56445 7.00464,-1.19385l0.03925,0.30322c-0.35631,0.93164 -1.0805,2.02881 -1.74786,2.77002c-3.02153,0.03516 -5.91198,-0.83203 -8.4454,-2.59863c-5.58892,-3.89648 -3.45165,-12.77783 2.46327,-15.04395c1.29109,-0.49512 2.02377,-0.55225 3.42558,-0.64307z" fill="#010101"/><path d="M275.7115,177.31934c0.53014,0.30762 0.56529,1.53076 0.99292,2.28662c1.60361,2.84033 4.19136,5.30859 5.92238,7.95117c1.33561,0.66357 4.69075,1.42383 6.28557,1.78711c0.30022,-0.62256 1.10715,-2.44189 1.55236,-2.8374l0.23139,0.12744c0.11423,0.57422 -1.91115,7.33887 -2.26849,7.80029l-0.15084,-0.12598c-0.17427,-1.11621 -0.07762,-1.84424 0.00879,-2.96924c-6.39102,-1.6333 -4.11081,-2.02441 -10.74933,0.06152c-1.04711,0.42187 -2.89968,0.98584 -4.01269,1.3125c-1.46742,0.43066 -1.97413,2.25879 -2.78106,2.22363c-0.0249,-0.11279 -0.04979,-0.22559 -0.07469,-0.33838c0.93141,-1.92627 1.23603,-4.06787 1.93312,-6.06738c0.14352,-0.41309 0.33537,-0.38379 0.57994,-0.47021c0.51989,0.72803 -0.68538,1.9043 0.31779,2.45068c0.38077,-0.01025 7.72663,-2.34521 8.59507,-2.60596c-2.22016,-2.35547 -4.0493,-4.63184 -6.21235,-6.97119c-0.45399,0.64307 -0.77325,1.54541 -1.51135,1.7373c-0.227,-0.58594 1.06907,-4.30811 1.34147,-5.35254z" fill="#010101"/><path d="M274.1445,83.67979c0.19038,-0.00923 0.38077,-0.01611 0.57115,-0.02065c5.79204,-0.13652 9.74176,3.79937 10.07859,9.5458c0.02197,0.36357 -0.13766,1.10068 -0.45106,1.30005c-0.49353,0.3145 -1.22285,1.11182 -1.78228,1.10493l-0.22553,-0.25752c0.07322,-0.86323 1.25799,-2.27227 1.22577,-2.98784c-0.36905,-7.97344 -9.05931,-7.87485 -13.61386,-3.69478c-1.03393,0.92769 -1.90676,1.72837 -2.24066,3.1415c-0.63998,2.70703 0.73957,5.35928 2.93776,6.90308c1.22431,0.85972 2.27142,0.99653 3.68465,1.28628c-0.8494,0.22412 -3.54845,0.95654 -4.14157,0.46597c-3.27752,-2.71274 -4.92214,-9.0375 -2.52331,-12.74326c1.60801,-2.48394 3.92482,-3.41572 6.48035,-4.04355z" fill="#010101"/><path d="M207.20869,264.01758c0.37784,-0.03955 0.3588,-0.00732 0.74835,0.05713c0.66634,0.46436 1.85843,1.771 1.21259,2.57813l-0.27972,-0.02344c-2.98316,-2.80664 -8.02538,-0.26074 -8.77081,3.3999c-1.56261,7.66699 7.17305,16.56006 13.06175,7.64355c0.58433,-0.88623 0.38662,-2.12402 1.1218,-2.63086c0.26214,1.19971 0.45106,2.2749 0.64877,3.48779c-1.67098,1.9248 -4.40225,3.16406 -6.94899,3.69873c-4.73029,1.1001 -9.56602,-2.15479 -10.17379,-7.00049c-0.78643,-6.271 3.52795,-10.40771 9.38003,-11.21045z" fill="#010101"/><path d="M138.64598,279.03369c1.31467,0.07617 7.29666,0.4585 8.04135,0.85693c-0.45179,0.47607 -2.42753,0.45264 -3.13049,0.48633c-0.07308,2.9209 -0.2021,5.84033 -0.38692,8.75684c-0.09109,1.60693 -0.32629,4.37109 -0.20034,5.87549c0.58067,0.65332 5.91447,0.71924 6.84442,0.2417c0.85672,-0.44092 2.08836,-2.5708 2.90408,-2.95166c0.23871,0.38086 0.09666,0.50244 -0.00732,1.09717c-0.30315,1.26562 -0.50378,2.05225 -0.63412,3.34277c-3.30681,-0.11133 -6.65463,-0.29736 -9.95426,-0.52002c-1.12165,-0.07617 -3.7608,0.10986 -4.61401,-0.41016l0.09519,-0.21094c1.03583,-0.47754 1.65018,-0.43799 2.77286,-0.54346c0.35733,-2.354 0.396,-5.39941 0.52502,-7.78418c0.12243,-2.26172 0.35777,-4.74023 0.37154,-6.97705c-1.07113,-0.35596 -2.44086,-0.09961 -2.627,-1.25977z" fill="#010101"/><path d="M257.74957,220.91602c1.35319,0.08496 1.95655,0.96533 3.19258,1.8501c-0.63559,-0.05859 -1.30339,-0.12598 -1.93459,-0.13623c-2.83671,-0.04687 -5.37466,2.354 -5.6412,5.15479c-0.17281,1.8208 0.33097,3.33691 1.34147,4.80469c3.16622,4.60693 9.43715,7.33447 13.05004,1.43555c0.5814,-0.94775 0.95338,-1.94824 0.93874,-3.07031c0.00586,-0.80566 -0.78789,-2.02295 -0.32512,-2.6748c0.46278,0.14062 0.32219,0.10693 0.66927,0.60645c0.41299,0.71924 0.84794,1.42529 1.30632,2.11523c-1.95362,4.66113 -6.18306,9.43945 -11.59287,7.80762c-9.12375,-2.74951 -8.77667,-13.61719 -1.00464,-17.89307z" fill="#010101"/><path d="M15.99351,180.95654c0.94254,-0.11572 1.89768,-0.07764 2.82778,0.11426c2.35929,0.4834 4.43329,1.87646 5.77198,3.87891c1.5298,2.31592 1.80718,5.24268 1.42831,7.93799c-0.12009,0.854 -2.04486,1.35059 -2.64354,1.17627c-0.17091,-1.43115 2.95065,-1.62744 1.60669,-6.14502c-0.47581,-1.62744 -1.6061,-2.98535 -3.12082,-3.74561c-2.58701,-1.30078 -5.57823,-0.80273 -8.20705,0.04395c-1.54702,0.53174 -3.41773,1.87939 -4.05286,3.41309c-0.7216,1.74316 -0.52067,3.70752 0.18354,5.41553c1.00389,2.43457 2.69908,2.90039 4.93363,3.78955c-1.74505,0.05859 -2.87552,0.19189 -4.52394,-0.3252c-2.47315,-4.29053 -3.05278,-11.40381 1.85474,-14.28369c1.35768,-0.79687 2.4121,-1.01953 3.94155,-1.27002z" fill="#010101"/><path d="M50.33205,39.47227c0.1217,0.08159 0.59575,0.3731 0.50144,0.58931c-2.2887,5.1731 -0.49221,11.18584 4.25316,14.24956c2.26878,1.46484 3.97037,0.8978 5.24154,-1.29038c-0.44491,-2.21572 -2.47586,-5.00933 -4.77642,-5.68916c-1.36446,-0.40327 -1.9113,0.70781 -2.93205,1.3415c-0.69402,-1.13013 0.7567,-1.94751 1.56656,-2.41699c0.16373,-0.05347 0.32819,-0.10474 0.49324,-0.1541c1.35919,-0.40986 2.55597,-0.14136 3.79507,0.55459c1.33532,0.73403 2.31301,1.98193 2.70637,3.45439c1.36285,5.10996 -4.04125,8.05122 -8.1112,5.21646c-1.88348,-1.31177 -3.90242,-3.78677 -4.2618,-6.08848c-0.50759,-3.25049 -0.361,-6.97676 1.52409,-9.7667z" fill="#010101"/><path d="M61.59819,30.27275l0.40244,0.47769c-0.02343,0.51914 -0.52883,1.17114 -0.75377,1.7269c-1.07962,2.78848 -0.99483,6.09126 0.15904,8.87944c0.94313,2.27915 4.20879,6.38994 7.11726,5.15889c0.97344,-0.41206 1.25624,-1.35352 1.57169,-2.30508c-0.3112,-1.35396 -0.67601,-1.95044 -1.36915,-2.92412c-1.50535,-2.1145 -3.43481,-3.92725 -5.70505,-1.59434c-0.16109,0.16538 -0.44945,0.01494 -0.63529,-0.06797l-0.01069,-0.26265c0.55958,-0.89912 1.02221,-1.27588 1.94425,-1.77349c0.22509,-0.05215 0.45092,-0.10049 0.67776,-0.14502c1.37442,-0.26602 2.7257,0.11294 3.8579,0.91875c1.25404,0.89385 2.09114,2.25879 2.3196,3.78179c0.76622,5.34917 -4.93517,7.29155 -8.82221,4.06406c-4.58619,-3.80801 -4.32433,-11.49375 -0.75377,-15.93486z" fill="#010101"/><path d="M53.48377,238.29346c0.09578,0.00879 0.53542,0.04541 0.60483,0.09961c1.00683,0.78955 5.19541,4.31396 5.58833,5.06104l-0.17764,0.07617c-0.82055,-0.26807 -1.40913,-0.73682 -2.11267,-1.22754c-3.26727,3.11133 -6.25834,7.50586 -9.34913,10.88965c-0.62241,0.68115 1.00405,1.74316 1.20864,2.64404l-0.26742,0.3501c-0.91443,-0.3999 -6.13766,-4.74316 -5.94596,-5.59277c0.80649,0.03076 1.65897,0.73828 2.34699,1.20996c1.61635,-1.10449 8.49314,-9.0791 10.11067,-11.07275c-0.63017,-0.62988 -1.77056,-1.64209 -2.00664,-2.4375z" fill="#010101"/><path d="M228.90652,26.31489c1.71931,0.21416 2.75177,1.55918 4.13132,2.50972c1.45863,1.00532 2.56871,1.51055 3.64364,2.97275c-1.0515,-0.46904 -2.00342,-1.171 -3.12814,-1.36992c-0.74542,0.38892 -8.10593,10.72617 -8.67562,12.07441c0.66781,0.61406 1.72224,1.42104 1.89212,2.2582l-0.18745,-0.02109c-0.90945,-0.0958 -5.93556,-3.73257 -6.42324,-4.57764l0.13766,-0.12422c0.94752,0.13594 1.59629,0.58271 2.46766,1.02876c3.05052,-3.66899 5.63827,-8.27095 8.63022,-12.13213c-0.85233,-0.70884 -1.93166,-1.66934 -2.48816,-2.61885z" fill="#010101"/><path d="M185.64999,5.92813c2.28899,0.81768 4.2763,1.70131 6.71174,1.64747c-0.28557,0.57677 -0.5404,1.2647 -0.78204,1.86932c-1.83939,-0.26622 -3.93947,-1.1828 -5.85062,-1.65546c-0.6063,1.4667 -1.10129,2.90672 -1.73688,4.37937c8.05907,-0.23232 8.03271,10.77883 0.25189,11.13303c-1.55528,0.00542 -4.93825,-1.00547 -5.21504,-2.71567c0.25482,-0.54727 0.07176,-0.31963 0.6063,-0.67427c0.70149,0.04951 1.47181,0.7771 1.91262,1.33184c1.46156,1.83911 4.02294,1.72397 5.54601,-0.04263c1.23456,-1.43145 1.30632,-2.76094 1.20088,-4.64751c-1.6783,-2.71947 -2.89968,-2.88357 -5.88723,-2.42673c0.7381,-1.93869 2.27142,-6.70891 3.24237,-8.19875z" fill="#010101"/><path d="M263.06712,211.27441c0.4906,0.16992 0.33244,0.01611 0.55358,0.40723c-0.14645,0.64746 -0.6971,1.79297 -0.97681,2.63232c3.7403,2.35107 7.69295,4.54688 11.46546,6.86865c1.84379,1.13525 2.38858,-1.34033 3.3361,-1.48828l0.13034,0.22852c-0.18013,1.14404 -1.66366,2.82422 -2.27288,3.8877c-0.57701,1.00928 -1.08226,2.94434 -2.20552,3.32227c-0.01757,-1.36963 0.84062,-1.85303 0.66634,-2.93848c-1.36783,-2.22363 -7.93605,-5.10059 -10.26605,-6.73242c-0.4247,-0.29736 -1.41469,-0.90234 -1.88626,-1.06934c-0.74982,0.28125 -1.4308,1.75635 -2.3959,2.21191l-0.19331,-0.14941c-0.1113,-0.83057 1.55089,-2.6748 2.05467,-3.50244c0.74103,-1.22021 1.34733,-2.4082 1.99024,-3.67822z" fill="#010101"/><path d="M293.76129,122.56289c0.41006,0.39448 1.52307,7.22432 1.3854,7.84102l-0.19917,-0.03325c-0.536,-0.71133 -0.74249,-1.44316 -1.05443,-2.28267c-2.14254,0.15981 -4.74054,0.7043 -6.88455,1.08867c-2.41347,0.43271 -5.4435,0.82354 -7.77203,1.51304c-0.06737,1.2022 0.44374,2.1731 -0.33097,3.07456c-0.39834,-1.10171 -1.71491,-7.20352 -1.24921,-8.23418l0.20796,0.12114c0.54186,0.85796 0.66341,1.55156 0.9153,2.53257c2.50866,-0.17051 11.98536,-1.62671 14.28899,-2.42256c0.99439,-1.02158 0.02783,-2.02808 0.6927,-3.19834z" fill="#010101"/><path d="M38.63446,51.91025c0.41665,0.18501 10.90486,9.48633 11.97979,10.56973c0.55343,-0.51035 1.38863,-1.39263 2.20581,-1.13643l0.03822,0.32856c-0.52399,1.25947 -2.9051,3.56279 -3.9919,4.86094c-0.41474,-1.0585 -0.01918,-1.59478 0.41093,-2.65723c-2.56007,-2.44878 -5.49461,-4.85083 -8.20991,-7.14434c-0.67,-0.56587 -1.26195,-1.00576 -1.89314,-1.6415c-0.24413,1.08164 -0.1318,2.9978 -0.81089,3.80552l-0.18496,-0.08159c-0.6208,-1.36919 -0.59326,-5.66133 0.45604,-6.90366z" fill="#010101"/><path d="M174.87137,3.0457l0.49646,0.18016c0.0659,0.10169 0.13034,0.20338 0.19624,0.30507c-0.91091,4.75403 -1.96241,9.80708 -3.02124,14.50291c-0.16109,0.71323 1.58897,1.86577 1.94484,2.17778l-0.17867,0.08013c-1.13205,-0.09785 -4.77715,-0.62124 -5.63095,-1.17261l0.01025,-0.32798c0.3134,-0.09302 0.63559,-0.15146 0.9607,-0.17432c0.51111,-0.04043 0.59751,0.00615 1.04271,-0.27686c0.81133,-1.58188 2.20405,-10.99692 2.67708,-13.29524c-0.7176,0.45877 -2.72687,1.56751 -3.56602,1.41838l-0.12009,-0.26035c0.38223,-0.91006 4.206,-2.77235 5.18867,-3.15708z" fill="#010101"/><path d="M191.47132,23.98506c1.10569,-0.02695 1.23456,0.08774 2.18941,0.7166c0.22407,0.51006 0.43935,1.12368 0.64144,1.65132l-0.43495,1.78608c-1.34586,1.51201 -2.09861,1.5542 -4.05077,1.93711c-0.36612,0.00937 -0.36612,-0.00879 -0.72346,-0.11792l-0.04393,-0.2335c0.54772,-0.66255 2.29339,-0.93882 3.402,-2.08901c0.45692,-1.78096 -2.60239,-1.10742 -0.97974,-3.65068z" fill="#010101"/><path d="M75.67981,39.26396c5.47967,-0.2105 3.37579,6.43887 1.72853,6.77783l-0.14674,-0.3832c2.67488,-6.24565 -1.48367,-3.02944 -2.81342,-4.28101c-0.13664,-0.58345 -0.11482,-0.56265 0.02299,-1.16089c0.38838,-0.55444 0.59517,-0.60835 1.20864,-0.95273z" fill="#010101"/></g></svg></svg>