<svg id="svg" version="1.1" viewBox="0 0 300 241.20000000000002" width="300" height="241.20000000000002" xmlns="http://www.w3.org/2000/svg"><svg xmlns="http://www.w3.org/2000/svg"><defs><clipPath id="clip-1"><rect x="0" y="0" transform="scale(0.15,0.15)" width="2000" height="1608" fill="none"/></clipPath></defs><g clip-path="url(#clip-1)" fill="none" fill-rule="nonzero" stroke="none" stroke-width="1" stroke-linecap="butt" stroke-linejoin="miter" stroke-miterlimit="10" stroke-dasharray="" stroke-dashoffset="0" font-family="none" font-weight="none" font-size="none" text-anchor="none" style="mix-blend-mode: normal"><path d="M78.86985,62.9676c2.0394,0.1623 4.48005,0.087 6.55125,0.08145l9.89055,-0.0063l32.8137,0.003l114.44115,-0.00045l36.9675,-0.0024l11.5575,-0.0063c2.1165,-0.00645 4.7175,-0.0987 6.7965,0.0321c0.45,1.5321 0.258,7.6407 0.2505,9.53835l-0.021,13.49535v66.2826l0.0165,19.698c0.0045,1.653 0.1305,7.737 -0.099,9.0645c-1.584,1.6605 -5.58,4.674 -7.548,6.291l-20.13,16.2075l-29.133,23.4525c-3.6645,3.0345 -7.359,6.0315 -11.0865,8.988c-1.7145,1.3515 -3.3555,2.8605 -5.235,3.927c-0.5805,0.462 -1.797,0.4245 -2.5335,0.4305l-94.16355,-0.0105h-34.40415c-3.18975,-0.006 -6.37935,0.003 -9.56895,0.03c-1.73415,0.0195 -3.8193,0.1515 -5.4888,0.057c-0.06885,-1.7235 -0.03885,-4.1355 0.1209,-5.8485zM174.2115,140.0943c-9.1365,0.23745 -18.678,0.1077 -27.84825,0.1038l-10.6938,-0.0162c-1.44495,-0.0063 -3.85275,0.0624 -5.2071,-0.04095l0.0465,23.21505c5.3004,-0.1515 10.89195,-0.072 16.2075,-0.075l27.53265,-0.009c-0.1305,3.0675 -0.057,6.174 -0.066,9.2475l-0.03,16.5435c0.003,2.2035 0.237,8.0895 -0.1695,9.84c1.7895,-0.234 4.065,-0.1545 5.9235,-0.153l8.88,0.0075l9.2325,-0.021c1.3665,-0.009 3.723,-0.099 5.043,-0.0075c0.1695,-0.2685 0.03,-32.0055 0.0675,-35.4315c5.787,-0.129 11.9175,-0.0165 17.733,-0.018l26.0235,0.018c-0.201,-1.2555 -0.1305,-3.4875 -0.129,-4.8525l0.006,-7.2405l0.012,-7.1289c0.003,-0.96855 -0.03,-3.06345 0.117,-3.96c-4.434,0.0987 -42.591,0.3354 -43.6875,-0.19665c-0.2445,-1.07265 -0.1455,-9.2895 -0.12,-10.95255c0.126,-8.05395 -0.159,-16.42185 0.045,-24.4389c-1.653,0.2211 -3.7785,0.0603 -5.475,0.075c-7.7265,0.0663 -15.4995,-0.13335 -23.22,0.0273c-0.7815,1.47735 0.099,31.13565 -0.2235,35.4645z" fill="#ffffff"/><path d="M78.74355,240.5205c-0.06885,-1.7235 -0.03885,-4.1355 0.1209,-5.8485l0.01695,5.3865l95.6766,0.0045l32.556,-0.0045c5.661,0.003 12.192,0.171 17.7885,-0.045c-0.5805,0.462 -1.797,0.4245 -2.5335,0.4305l-94.16355,-0.0105h-34.40415c-3.18975,-0.006 -6.37935,0.003 -9.56895,0.03c-1.73415,0.0195 -3.8193,0.1515 -5.4888,0.057z" fill="#000000"/><path d="M1.40788,31.62075c3.11201,-0.85005 8.43543,-1.3626 11.79555,-1.8582l26.04571,-3.7236l85.62045,-12.26149l68.8314,-9.89802l16.3275,-2.32493c1.7745,-0.23849 5.1285,-0.87834 6.837,-0.78651c0.732,0.63419 5.3685,22.52355 6.078,25.63485c0.7395,3.1371 1.4415,6.28245 2.1105,9.43545c0.222,1.0149 0.8595,3.35955 0.825,4.30305c-0.9825,-0.1761 -3.9315,-0.10275 -5.0655,-0.0999l-9.381,0.0165l-34.6185,0.0045l-82.9818,-0.00315c-14.17485,-0.00105 -28.78905,-0.19575 -42.92865,0.01845l-0.55815,0.01275c-0.25065,0.37965 -0.2763,1.20855 -0.26925,1.6626c0.0846,5.50005 0.0408,11.02245 0.0405,16.5231l-0.0006,36.6999l0.00465,109.2924c-1.9863,0.0525 -8.48745,1.098 -10.49085,1.488l-26.63463,-120.921l-7.72671,-35.0892l-2.5596,-11.4945c-0.36474,-1.66695 -1.14885,-5.0214 -1.30103,-6.63105z" fill="#ffffff"/><path d="M50.90355,40.07775c14.1396,-0.2142 28.7538,-0.0195 42.92865,-0.01845l82.9818,0.00315l34.6185,-0.0045l9.381,-0.0165c1.134,-0.00285 4.083,-0.0762 5.0655,0.0999c0.1065,0.32295 0.102,0.16425 0.009,0.49215c-2.1465,0.1824 -7.0215,0.05475 -9.336,0.05085l-17.6445,-0.00615l-57.54825,-0.0036l-60.3423,0.0117l-18.7992,-0.00285c-2.78895,0.0027 -7.39815,0.1461 -10.0113,-0.05805l0.5415,-0.0936l0.07755,-0.18015c-0.88605,0.10875 -1.0833,0.0057 -1.92195,-0.2739z" fill-opacity="0.01176" fill="#000000"/></g></svg></svg>