<svg id="svg" version="1.1" viewBox="0 0 300 300" width="300" height="300" xmlns="http://www.w3.org/2000/svg"><svg xmlns="http://www.w3.org/2000/svg"><defs><clipPath id="clip-1"><rect x="0" y="0" transform="scale(0.14648,0.14648)" width="2048" height="2048" fill="none"/></clipPath></defs><g clip-path="url(#clip-1)" fill="none" fill-rule="nonzero" stroke="none" stroke-width="1" stroke-linecap="butt" stroke-linejoin="miter" stroke-miterlimit="10" stroke-dasharray="" stroke-dashoffset="0" font-family="none" font-weight="none" font-size="none" text-anchor="none" style="mix-blend-mode: normal"><path d="M213.8833,86.00376c2.51074,-0.49409 3.47314,0.45454 4.81787,2.34595c0.15527,2.02954 0.04102,5.54443 0.03809,7.71284l-0.01904,14.71465c-0.00146,1.90957 -0.12744,6.3731 0.25635,7.9563c7.5498,0.27188 15.2168,-0.25649 22.76367,0.13711c1.22168,0.06357 2.13721,1.43994 2.7832,2.32397c0.04834,1.94092 0.17139,2.77471 -0.74414,4.50352c-1.12793,0.74341 -1.76074,1.11841 -3.06006,1.49209c-5.66748,0.37075 -11.78174,-0.06973 -17.50195,0.09448c-3.0249,-0.02578 -6.13623,0.09302 -9.14209,-0.14165c-4.82373,-0.37661 -3.79687,-7.9333 -3.79395,-11.35034l0.00732,-11.29175l-0.01465,-9.43579c-0.00146,-3.14443 -0.7002,-8.63892 3.60938,-9.06138z" fill="#517de6"/><path d="M180.58447,44.95708c0.96387,-0.0832 1.6875,-0.17476 2.55908,0.25459c2.20752,1.11841 3.36914,3.62578 2.04785,5.88472c-0.66797,1.2583 -2.1167,1.96919 -3.33398,2.58589c-1.11621,0.56616 -2.21191,1.13188 -3.33105,1.65967c-1.05176,0.49556 -2.12402,1.12881 -3.22705,1.46265c-1.29492,0.25386 -1.64502,0.23569 -2.96338,0.22119c-1.18359,-0.68247 -2.23389,-1.54058 -2.60449,-2.92017c-0.27832,-1.0563 -0.10986,-2.18057 0.46582,-3.1084c1.33008,-2.11011 7.96875,-5.50796 10.38721,-6.04014z" fill="#517de6"/><path d="M222.42627,38.11772c1.80176,-0.14707 8.87842,1.00195 10.72559,1.86504c1.60107,0.74854 2.04199,2.08682 2.58984,3.65156c-0.70459,2.41875 -1.68311,3.53276 -4.03711,4.37637c-1.83545,-0.09111 -4.50586,-0.86982 -6.45703,-0.95859c-1.16748,-0.05332 -2.99268,-0.45337 -4.04004,-0.92856c-2.39648,-1.08662 -3.38232,-3.59136 -2.05664,-5.93804c0.73096,-1.33535 1.94531,-1.69263 3.27539,-2.06777z" fill="#517de6"/><path d="M205.78125,38.10645c0.22852,0.00806 0.45703,0.02769 0.68262,0.05889c1.53955,0.21958 2.61182,1.58467 3.48047,2.73179c0.04102,1.0875 0.01465,2.12915 -0.00586,3.21709c-0.58008,0.8168 -1.13086,1.46572 -2.03613,1.94766c-1.91455,1.01821 -8.06396,1.58818 -10.57617,2.06719c-4.88672,-0.646 -5.86084,-7.14478 -0.4541,-8.53828c3.02197,-0.77915 5.89746,-0.90747 8.90918,-1.48433z" fill="#517de6"/><path d="M247.07666,44.54063c1.59375,-0.23481 9.45996,4.07388 11.18262,5.3748c0.95215,0.71836 0.94922,3.04409 0.91113,4.15225c-1.00488,1.36787 -2.41406,2.5998 -4.11182,2.95488c-1.11328,0.02974 -7.00049,-3.05845 -8.46387,-3.82705c-4.71094,-2.47397 -5.03613,-7.04648 0.48193,-8.65488z" fill="#517de6"/><path d="M117.58418,42.62666c-1.01997,0.64072 -3.11836,2.38579 -4.25713,3.21885l-9.07881,6.54727l-26.6165,19.21304c-3.15205,2.2563 -6.23584,4.62319 -9.44839,6.78428c-1.6166,1.07402 -3.70415,2.15845 -5.63276,1.11958c-3.55532,-1.91543 -2.80034,-5.58091 0.14326,-7.65645c1.98354,-1.39849 3.9145,-2.76416 5.79771,-4.11885l12.59648,-9.10063l21.15718,-15.27466c4.05835,-2.93159 8.78936,-6.89414 13.25449,-8.97026c3.94717,-1.83545 9.74077,3.41821 12.85972,5.66602l20.46284,14.79009c1.52051,1.08765 6.4248,4.846 7.71094,5.50459l0.1875,0.09478c0.68994,-0.40283 1.13379,-0.79482 1.7417,-1.29756c1.53955,-0.11851 1.85303,-0.19116 3.44385,-0.11968c1.1792,0.83921 1.55713,1.26416 2.33203,2.4334l0.04248,1.9106c0.02344,0.91816 -0.01904,1.01528 -0.43506,1.84731l-0.10693,0.20962c0.71338,0.9353 3.71484,2.88779 4.81201,3.68145c2.44043,1.76689 4.88965,3.41294 7.24365,5.32397c5.82422,-5.4917 15.90527,-9.89429 23.68066,-11.8355c2.57373,-0.64233 6.04688,-1.91895 8.15332,0.39917c0.59033,0.65054 1.31543,2.23491 1.1748,3.14971c-0.64014,4.18901 -6.19629,4.35879 -9.52588,5.33115c-22.25977,6.50127 -37.81348,27.01904 -38.21777,50.22773c-0.25342,14.54517 4.94385,27.8168 14.94434,38.58193c1.62451,1.74902 3.56689,3.25049 5.43896,4.73145c9.49219,7.77393 20.8667,11.16797 32.98242,11.69678c1.81348,0.03076 3.6416,-0.25049 5.44482,-0.40283c14.84619,-1.25537 28.56299,-9.29004 37.61133,-21.01172c8.4917,-11.00376 12.35303,-26.17896 10.3623,-39.93208c-2.72754,-19.15693 -15.54199,-35.36895 -33.55078,-42.4481c-2.08154,-0.79966 -4.20996,-1.471 -6.37354,-2.01006c-4.36523,-1.09482 -7.40625,-0.86689 -7.2085,-6.4248c0.88916,-1.4959 2.5415,-3.19072 4.46191,-2.89146c29.03467,4.52593 51.72363,30.78647 51.5874,60.23042c-0.01172,2.62544 0.05127,5.08989 -0.22559,7.73203c-1.78857,16.34634 -9.9624,31.32363 -22.7417,41.67275c-12.79834,10.46338 -29.27783,15.31934 -45.70459,13.46777c-0.01465,1.69775 -0.18896,13.72852 0.25195,14.44043c0.31201,0.19482 0.70605,0.35742 1.07373,0.38086c17.5415,1.12793 35.33789,-3.90381 49.59521,-13.98047c16.6582,-11.83008 27.90527,-29.82129 31.24072,-49.979c4.0752,-24.02153 -3.7749,-49.09409 -20.86084,-66.42803c-1.31543,-1.33491 -2.88574,-2.30859 -3.9624,-3.88843c-2.36133,-3.37002 0.13623,-7.46396 4.14697,-6.68276c2.20166,0.64658 3.90527,2.98638 5.45068,4.46353c14.85498,14.19111 23.92236,34.96509 24.57129,55.46704c0.03223,1.0002 -0.19922,2.92925 0.4043,3.65903v1.86196c-0.79834,0.97002 -0.25488,4.79355 -0.39844,6.32153c-0.28711,3.04116 -0.78516,6.18296 -1.37109,9.16465c-3.43066,17.45405 -12.24902,33.39302 -25.21143,45.57319c-14.68066,13.82959 -33.80713,21.97998 -53.9502,22.99072c-3.46436,0.20947 -7.56445,0.0835 -11.03467,-0.01904l0.01172,0.53174c0.22559,10.64648 0.02051,21.96094 0.02637,32.66455l0.00586,10.68457c0.01025,8.05078 0.8833,14.12988 -9.56543,14.13281c-11.59277,0.00439 -23.21338,0.00146 -34.80908,0.00146l-69.53716,0.00146l-39.65815,0.00293l-12.65244,0.00732c-3.72129,0.00146 -9.79233,0.65625 -12.66094,-2.15918c-2.12153,-2.08301 -1.84893,-5.44629 -1.84849,-8.20605l0.00454,-7.1543l0.00879,-23.73779l-0.02915,-82.52432c-2.40366,1.29756 -4.52036,3.25415 -7.36406,3.25225c-4.0686,-0.00278 -6.02314,-2.71479 -8.0609,-5.71919c-0.78693,-1.16016 -1.70856,-2.35415 -2.53572,-3.49277c-1.68335,-2.31548 -3.35511,-4.63931 -5.01521,-6.97163c-1.19975,-1.66392 -2.76905,-3.62988 -3.63289,-5.46445c-1.35875,-2.88545 -0.05601,-7.00708 2.38897,-8.9124c2.58696,-2.01592 5.28335,-3.87187 7.92639,-5.78042l17.14611,-12.34541l11.42739,-8.27417c2.01958,-1.4666 4.01689,-3.10005 6.17007,-4.35293c1.20674,-0.7021 2.19858,-0.67983 3.5272,-0.61333c1.8145,1.15547 2.48921,2.26685 3.11748,4.24907c-0.31157,1.06362 -0.76436,2.3127 -1.65293,3.0104c-4.10391,3.22266 -8.61416,6.39785 -12.85518,9.42993l-20.68813,14.95225c-2.7019,1.96011 -5.64684,3.93311 -8.28476,5.92427c0.12986,0.35859 2.4722,3.37222 2.91098,3.95698c2.79932,3.7311 5.45669,8.0083 8.49478,11.50313c1.08677,-0.94673 3.66592,-2.67363 4.91631,-3.56689l8.677,-6.26646l24.57905,-17.73706l34.04063,-24.57275l9.82163,-7.08721c3.42437,-2.51338 6.83804,-5.02764 10.31514,-7.47231c2.5667,-1.80469 4.85024,-3.05054 7.86768,-1.17378c3.79497,2.36016 7.33301,5.19683 10.97358,7.80366l27.15117,19.54189c1.396,-4.55698 7.37549,-12.51738 10.77832,-15.93208c-3.80859,-2.53286 -7.3667,-5.22144 -11.06689,-7.88379l-21.1415,-15.27905l-11.88926,-8.5686c-2.31489,-1.65498 -5.75259,-3.97075 -7.78887,-5.81865zM35.89248,135.82383c-0.15146,5.14146 -0.07148,10.54761 -0.07192,15.70986l-0.00132,26.37451l-0.00044,79.83691c4.67622,-0.03516 9.35259,-0.04541 14.02896,-0.03076c1.88101,0.01025 7.15415,0.14209 8.81016,-0.14941c0.65566,-1.2627 0.38613,-15.19629 0.38423,-17.85645l-0.00498,-30.58447c-0.00015,-1.83252 -0.04263,-3.69727 -0.00132,-5.53271c0.05361,-2.37305 -0.24888,-4.6875 0.27056,-7.02393c0.5499,-2.47412 3.28257,-4.33594 5.6877,-3.00439c0.89253,0.57275 2.21001,1.69043 2.48306,2.89307c0.17549,3.17285 0.10298,7.13086 0.10269,10.2876l-0.00352,11.93701c-0.00103,1.82959 0.07456,4.49268 -0.03179,6.25781c4.004,-0.08496 8.73223,-0.15234 12.71865,0.01465c-0.17754,-5.86523 -0.08789,-12.01172 -0.08335,-17.89746l-0.01201,-11.4375c0.00044,-9.48486 0.39507,-15.82324 7.5416,-23.146c2.98374,-3.05713 4.33374,-3.50684 7.90195,-5.36572c-2.7668,-2.78027 -5.22583,-8.7876 -5.82949,-12.63867c-0.27363,-1.74756 -0.34541,-3.64014 -0.33926,-5.41846c-0.00059,-1.4165 0.03486,-2.83301 0.10635,-4.24761c-6.70254,0.42114 -14.29673,-0.20669 -20.95239,0.15146c-0.40239,0.44121 -0.67002,0.71191 -0.99595,1.20762l-0.02461,22.702c0.00161,2.95898 0.05918,5.95166 -0.04819,8.90332c-0.13931,0.86279 -0.6375,1.43701 -1.20352,2.03613c-2.70688,2.86816 -6.65156,1.21289 -7.16191,-2.5166c-0.22954,-1.67725 -0.13901,-3.50098 -0.13813,-5.19873l0.01128,-8.42871l-0.00454,-11.03027c-0.00205,-4.6875 -0.74077,-8.57534 2.38418,-12.44092c4.24585,-5.25234 10.08999,-3.52251 16.0166,-3.82207c4.82476,-0.0438 10.04385,-0.0832 14.94155,0.07471c4.96201,-7.95176 9.65347,-12.41353 19.16807,-14.63979c7.18359,-1.62803 14.71978,-0.32637 20.94111,3.61685c4.46587,2.77515 7.77158,6.27686 10.04868,11.03965l11.48687,-0.13477c-0.02051,-0.06226 -0.04248,-0.12422 -0.06299,-0.18677c-1.91895,-5.77998 -1.77246,-16.95425 -0.7749,-23.01489c0.15527,-0.93618 1.9834,-8.76094 1.87646,-8.98652c-0.23584,-0.49512 -33.90688,-24.51431 -37.54233,-27.2562c-1.32568,1.28716 -6.6772,4.8895 -8.48115,6.19849l-20.29014,14.67056l-33.40459,24.13198l-11.42959,8.26523c-2.22437,1.62026 -5.70659,4.26636 -8.01636,5.68037zM199.32861,257.60156c0.50244,-0.854 0.30615,-9.84814 0.30615,-11.61035l-0.00146,-19.76807c-0.00146,-14.10059 0.21826,-28.875 -0.04395,-42.91992c-6.09082,-1.82666 -11.71289,-3.7207 -17.12842,-7.15869c-1.29346,-0.83496 -2.56494,-1.70801 -3.80859,-2.61768c-0.67969,-0.50244 -1.94824,-1.52637 -2.60596,-1.89111c-0.22559,2.69824 -0.07764,7.50293 -0.07764,10.35498l-0.00146,19.66992v34.90723c0.00146,3.29297 -0.35742,19.021 0.35156,20.9751c1.8501,0.33398 8.14014,0.19482 10.30225,0.15967c3.89209,-0.06006 8.91943,0.20801 12.70752,-0.10107zM139.32261,167.09766c6.47256,2.93994 11.38931,7.70068 13.92642,14.43604c0.77783,2.11523 1.27881,4.32129 1.49121,6.56543c0.19482,2.16504 0.12305,4.89697 0.11865,7.0957l-0.01611,10.83838l0.00586,12.39697c0,1.91895 0.08936,4.69922 -0.03516,6.50684c2.09326,-0.04395 4.18799,-0.06299 6.28125,-0.05566c2.10938,0.00439 4.34326,-0.0249 6.43945,0.06592c-0.17871,-5.55322 -0.08936,-11.4082 -0.08789,-16.98047v-27.19482l0.00732,-11.28369c0.00146,-1.65381 0.09082,-4.69336 -0.09814,-6.24902c-4.74609,-5.40088 -8.29834,-11.77734 -10.94238,-18.42949c-3.30469,0.19351 -7.57324,0.10078 -10.95249,0.10547c0.16025,1.20146 0.40972,2.81865 0.41572,3.99932c0.02827,5.57227 -2.30962,14.26611 -6.55371,18.18311zM67.56548,233.38184l-0.00117,14.78613c0.00044,1.29785 -0.22383,8.71582 0.43945,9.39111c4.48667,0.3999 12.49907,0.14209 17.25337,0.14063h32.46064l32.72168,0.00293l9.19482,0.01465c2.32031,0.01465 5.19141,0.08789 7.47217,-0.10547c0.56982,-0.76172 0.34863,-6.7998 0.34717,-8.16357l0.01465,-16.18799c-3.00586,0.30322 -8.57812,0.14355 -11.76709,0.14502l-21.90527,-0.00293zM119.44995,169.03418c10.78521,-1.04443 18.70313,-10.60107 17.72549,-21.39258c-0.97764,-10.79209 -10.48418,-18.77007 -21.28169,-17.8604c-10.89404,0.91772 -18.95918,10.52798 -17.97275,21.41558c0.98643,10.88818 10.64722,18.89355 21.52896,17.8374zM102.79014,173.79932c-2.46563,0.60059 -4.10317,1.03711 -6.26924,2.43311c-9.14575,5.89893 -7.87573,16.01514 -7.87222,25.4165l0.01846,23.29102c15.69595,-0.31201 32.18467,-0.06299 47.92954,-0.06006c3.20537,0.00146 6.63486,-0.05713 9.82163,0.06738c-0.31729,-8.42285 0.01392,-16.97754 -0.10181,-25.40625c-0.10693,-7.7915 1.18887,-15.57568 -5.2459,-21.44092c-2.90508,-2.64844 -5.30962,-3.47607 -9.08057,-4.34033c-8.42593,5.13867 -19.35498,5.15771 -27.95742,0.54639c-0.23086,-0.12451 -1.0125,-0.52295 -1.24248,-0.50684z" fill="#517de6"/></g></svg></svg>