<svg id="svg" version="1.1" viewBox="0 0 300 300" width="300" height="300" xmlns="http://www.w3.org/2000/svg"><svg xmlns="http://www.w3.org/2000/svg"><defs><clipPath id="clip-1"><rect x="0" y="0" transform="scale(0.14648,0.14648)" width="2048" height="2048" fill="none"/></clipPath></defs><g clip-path="url(#clip-1)" fill="none" fill-rule="nonzero" stroke="none" stroke-width="1" stroke-linecap="butt" stroke-linejoin="miter" stroke-miterlimit="10" stroke-dasharray="" stroke-dashoffset="0" font-family="none" font-weight="none" font-size="none" text-anchor="none" style="mix-blend-mode: normal"><path d="M300,46.54424c-0.41895,1.01616 -0.48486,2.40952 -0.73242,3.51021c-1.31543,5.8519 -4.14844,11.24736 -8.22656,15.6501c-2.20752,2.38447 -4.62598,4.71094 -6.94482,7.02524l-12.45557,12.44282l-38.24561,38.25146l-50.48877,50.48657l-16.31396,16.32715c-3.08643,3.09229 -6.16846,6.21387 -9.29736,9.25781c-0.71484,0.69727 -1.76074,1.5498 -2.69971,1.89697c-2.94141,1.08838 -6.22998,1.91016 -9.2499,2.74512l-17.68037,4.89404l-24.42744,6.76172c-4.64004,1.29199 -9.47168,2.74951 -14.17397,3.74268c-1.16206,0.24609 -2.45259,-0.03369 -3.55488,-0.47754c-1.88496,-0.74121 -3.37588,-2.23389 -4.11372,-4.12061c-0.49687,-1.28027 -0.77607,-2.95898 -0.45645,-4.28906c0.9082,-3.7793 2.05518,-7.72266 3.09785,-11.47559l6.24814,-22.53223l5.63159,-20.34521c0.67031,-2.41553 2.19741,-9.09082 3.23232,-10.84175c1.89214,-3.2001 8.37832,-9.08027 11.14687,-11.8459l17.61328,-17.61958l54.26675,-54.26719l34.84131,-34.83809l10.67139,-10.69204c6.11133,-6.13585 9.90527,-10.59151 18.25781,-13.71916c8.41699,-3.08729 17.71289,-2.71988 25.85889,1.02204c5.7583,2.63181 9.43945,6.40689 13.77393,10.83272c2.6792,2.73656 5.45801,5.19823 7.77246,8.29315c1.50293,2.02837 2.7832,4.2126 3.81738,6.51519c0.96826,2.10425 1.63916,4.50293 2.2207,6.74854c0.28271,1.0979 0.14209,2.12886 0.61084,3.26426zM116.87329,148.37549l25.54263,25.55127c1.51157,1.51318 8.57285,8.90332 9.75938,9.54199c3.62402,-3.97559 7.66699,-7.89111 11.48877,-11.71289l17.74951,-17.75098l55.24512,-55.24204l17.49609,-17.49126c2.2002,-2.19756 4.71826,-4.53706 6.83936,-6.74033c-3.14648,-3.30894 -6.58154,-6.64072 -9.82324,-9.87949l-16.48535,-16.48652c-0.81445,-0.8146 -8.45947,-8.62456 -8.86377,-8.81558c-1.66406,1.87529 -3.70166,3.8124 -5.49463,5.60244l-8.72168,8.71802l-27.04834,27.05171l-44.43296,44.43413c-7.65952,7.65996 -15.48545,15.70957 -23.25088,23.21953zM236.48291,28.70742c10.58057,10.32905 21.07324,21.01743 31.54688,31.47554l3.62988,3.67852c1.60107,-1.52417 3.12891,-3.27173 4.68457,-4.76353c4.90137,-4.696 8.38037,-8.61343 8.5415,-15.79995c0.13037,-5.89746 -1.78125,-10.04561 -5.87695,-14.24253c-1.73584,-1.77744 -3.8833,-3.82778 -5.57373,-5.58325c-4.50732,-4.68311 -8.54883,-7.9957 -15.36621,-8.04829c-0.34424,-0.00264 -0.55811,-0.00615 -0.91406,0.02197c-10.27148,0.47417 -13.65381,6.78486 -20.67187,13.26152zM99.04336,201.47754c3.88154,-1.48682 9.57466,-2.66309 13.67227,-3.92871c1.33843,-0.41309 7.11973,-2.08154 8.31035,-2.25586c5.60127,-1.69775 11.28105,-3.10986 16.90356,-4.72266c-2.46196,-2.13867 -5.86113,-5.76123 -8.22979,-8.1416l-14.38784,-14.40234c-0.73945,-0.74121 -4.99189,-5.14746 -5.57725,-5.38916c-0.35684,1.94385 -1.13115,4.51025 -1.66743,6.4585l-3.05889,11.02734l-3.76128,13.63037c-0.67178,2.42285 -1.42134,5.38184 -2.20371,7.72412z" fill="#fefefe"/><path d="M0,63.03926c0.45134,-1.10801 0.33742,-2.20664 0.56794,-3.33354c0.28676,-1.40171 0.6938,-2.91064 1.13809,-4.26621c3.09114,-9.73096 10.0494,-17.76182 19.24124,-22.20703c8.69063,-4.23223 15.12891,-3.86294 24.3939,-3.85854l18.28125,0.00059l25.80293,-0.00571c4.17422,-0.00234 9.17534,0.07236 13.20879,0.01084c9.08833,-0.13857 11.79185,10.40215 4.11826,14.39795c-2.06924,1.07754 -10.95498,0.68467 -13.60151,0.68364l-33.16582,-0.00044l-12.9624,-0.00439c-5.15757,-0.01494 -11.9915,-0.41265 -16.78359,1.20366c-6.14194,2.04463 -11.08184,6.67412 -13.52036,12.67061c-2.31296,5.57344 -1.66641,14.48247 -1.66494,20.57827l0.00278,21.87729l-0.00029,67.24893l0.00264,62.69824l-0.00103,19.74316c-0.00454,3.90527 -0.00103,7.8252 0.05771,11.69092c0.18384,12.06738 10.18828,21.65625 22.19165,21.70459c4.32686,0.01758 8.68345,0.03516 13.01353,0.03516l24.65464,-0.00439l74.93525,-0.00146l65.26025,-0.00146l20.90771,0.00293c3.50684,0.00293 8.09912,0.13477 11.53711,-0.03662c2.97656,-0.12598 5.90479,-0.79834 8.63818,-1.98193c7.24658,-3.21826 12.67676,-11.07861 12.9668,-18.95508c0.08643,-2.36865 0.08936,-4.71533 0.09082,-7.08398v-11.60449l-0.00293,-36.65039c-0.00146,-2.81836 -0.25342,-12.00146 0.31494,-14.28076c0.53906,-2.14893 2.01416,-3.94336 4.01807,-4.88965c3.85693,-1.8501 8.34521,-0.04395 10.13379,3.74268c0.80566,1.70654 0.73096,4.23633 0.73242,6.09375c0,3.37354 -0.01465,6.74707 -0.01904,10.12061l-0.00293,23.78027l0.00732,20.21191c0.00146,3.44531 0.13916,8.26172 -0.11865,11.54297c-0.26514,3.88184 -1.13232,7.69922 -2.56787,11.31445c-3.76172,9.42188 -11.15918,16.93066 -20.52246,20.83594c-8.72754,3.646 -16.29932,2.90479 -25.48682,2.896l-23.35254,-0.00293h-72.87539h-69.26733l-21.65889,0.01172c-8.95591,0.01172 -16.96011,0.65039 -25.45444,-2.85791c-9.25053,-3.82324 -16.60462,-11.16211 -20.44573,-20.40527c-0.84268,-2.06689 -1.43691,-4.19971 -1.94315,-6.37061c-0.21094,-0.90381 -0.45705,-3.20947 -0.79989,-3.94482z" fill="#fefefe"/></g></svg></svg>