<?xml version="1.0" encoding="UTF-8"?>
<svg version="1.1" xmlns="http://www.w3.org/2000/svg" width="512" height="512">
<path d="M0 0 C0.93462067 -0.0071553 1.86924133 -0.01431061 2.83218384 -0.02168274 C3.85087051 -0.02437164 4.86955719 -0.02706055 5.91911316 -0.02983093 C7.53707794 -0.03968773 7.53707794 -0.03968773 9.18772888 -0.04974365 C12.76249769 -0.06947299 16.33722435 -0.08114253 19.91203308 -0.09111023 C21.74846658 -0.09722352 21.74846658 -0.09722352 23.62199974 -0.10346031 C29.44138257 -0.12217509 35.26074895 -0.13673572 41.08015615 -0.14507228 C48.42202123 -0.15576694 55.76341489 -0.1893879 63.10516834 -0.23316669 C68.25879495 -0.25943766 73.41234284 -0.26769645 78.5660305 -0.27127647 C81.02376756 -0.27612045 83.48150162 -0.28767118 85.93917274 -0.30631447 C102.17173391 -0.42173242 116.80144738 0.09355549 131.51750183 7.70967102 C132.50448059 8.2124054 132.50448059 8.2124054 133.51139832 8.72529602 C140.47545153 12.46692335 145.88434376 17.48402123 151.33000183 23.14717102 C151.99386902 23.80330383 152.65773621 24.45943665 153.34172058 25.13545227 C161.42592464 33.61932485 170.33000183 48.11331861 170.33000183 60.14717102 C171.17004313 60.14432312 171.17004313 60.14432312 172.02705497 60.14141768 C205.25427651 60.02941041 238.48145055 59.94367932 271.70881872 59.89184437 C275.70274531 59.8855912 279.69667151 59.87911955 283.69059753 59.87251282 C284.8832237 59.87054549 284.8832237 59.87054549 286.09994332 59.86853842 C298.95637497 59.84681033 311.8126943 59.80740322 324.66905942 59.76140704 C337.87105006 59.71456994 351.07298206 59.68686033 364.27505237 59.67672855 C372.41469687 59.66988437 380.55402378 59.64830578 388.69357047 59.60758869 C394.28302128 59.58106061 399.87230906 59.57319265 405.46181818 59.57966413 C408.68182391 59.58285156 411.9011638 59.57535729 415.12109566 59.55114365 C433.68065064 59.41846607 446.97829809 60.45922706 461.00187683 73.72920227 C468.21341084 81.36822412 472.44592995 91.1475451 472.46701622 101.56888485 C472.46966805 102.21456422 472.47231987 102.86024359 472.47505206 103.525489 C472.48273658 105.69797655 472.48330391 107.87040749 472.48390198 110.04290771 C472.48791718 111.61276978 472.4923555 113.1826308 472.49718153 114.75249058 C472.50914678 119.07375566 472.51479539 123.39500957 472.51936269 127.71628797 C472.52531907 132.37432231 472.53692893 137.03234331 472.5476532 141.69036865 C472.57217793 152.94432714 472.58680526 164.19829004 472.59971327 175.45226702 C472.6034254 178.63133585 472.60739862 181.81040424 472.61146593 184.98947263 C472.63670466 204.73363863 472.65875649 224.47780533 472.67119408 244.22198391 C472.67412375 248.79559774 472.67708541 253.36921154 472.68009949 257.94282532 C472.68084554 259.07956812 472.68159159 260.21631092 472.68236025 261.38750047 C472.69500933 279.79517846 472.72822619 298.20275976 472.76990132 316.61039256 C472.81234435 335.51230004 472.83589193 354.41415805 472.84111464 373.31611305 C472.84452626 383.92750763 472.85625198 394.53875116 472.88921738 405.1500988 C472.91725168 414.18896856 472.9282024 423.2276563 472.91702192 432.26656615 C472.91184377 436.87583145 472.91466698 441.48471579 472.93948746 446.09392548 C472.96205622 450.32040892 472.96118142 454.54623942 472.94228359 458.77273489 C472.93949419 460.29505283 472.94502268 461.81741578 472.96009652 463.33966165 C473.10044065 478.4461287 469.16421744 489.81125922 458.74797058 500.81904602 C450.7454066 508.37377795 440.81777467 512.3028813 429.97124577 512.28418541 C429.22426397 512.28683724 428.47728218 512.28948906 427.70766458 512.29222125 C425.19057482 512.2999149 422.67353384 512.30047345 420.15643311 512.30107117 C418.33908317 512.30508576 416.52173413 512.30952397 414.70438617 512.31435072 C409.69902657 512.32632267 404.69367661 512.33196613 399.6883055 512.33653188 C394.29406897 512.34248569 388.89984398 512.35409616 383.50561523 512.36482239 C370.47188486 512.38935254 357.43815067 512.403975 344.40440431 512.41688246 C340.72319262 512.42059412 337.0419813 512.42456738 333.36076999 512.42863512 C310.50255156 512.45387275 287.64433254 512.47592662 264.78610325 512.48836327 C259.49059611 512.49129298 254.195089 512.49425464 248.89958191 512.49726868 C246.92531238 512.49838775 246.92531238 512.49838775 244.91115861 512.49952944 C223.59354571 512.51218093 202.27603317 512.54540076 180.95845581 512.58707051 C159.07331568 512.62949902 137.18821826 512.65305942 115.30303711 512.65828383 C103.01491093 512.66169703 90.72691512 512.67344155 78.43882942 512.70638657 C67.97265185 512.73440084 57.50663138 512.74538031 47.04041923 512.7341911 C41.70207792 512.72900794 36.36406553 512.73186933 31.02577209 512.75665665 C26.13316525 512.77918441 21.24112294 512.77838169 16.34850597 512.75945278 C14.58392977 512.75665772 12.819315 512.76222364 11.0548007 512.77726571 C-4.72361277 512.90348645 -16.59926236 509.67672243 -28.34187317 498.56513977 C-35.8966051 490.56257579 -39.82570845 480.63494386 -39.80701256 469.78841496 C-39.80966438 469.04143316 -39.81231621 468.29445137 -39.8150484 467.52483377 C-39.82274205 465.00774401 -39.8233006 462.49070303 -39.82389832 459.97360229 C-39.82791291 458.15625236 -39.83235112 456.33890332 -39.83717787 454.52155536 C-39.84914981 449.51619576 -39.85479328 444.5108458 -39.85935903 439.50547469 C-39.86531283 434.11123816 -39.87692331 428.71701317 -39.88764954 423.32278442 C-39.91217969 410.28905405 -39.92680215 397.25531986 -39.9397096 384.2215735 C-39.94342127 380.54036181 -39.94739452 376.85915049 -39.95146227 373.17793918 C-39.9766999 350.31972075 -39.99875377 327.46150173 -40.01119041 304.60327244 C-40.01412013 299.3077653 -40.01708179 294.01225819 -40.02009583 288.7167511 C-40.0212149 286.74248157 -40.0212149 286.74248157 -40.02235658 284.7283278 C-40.03500808 263.4107149 -40.06822791 242.09320236 -40.10989766 220.775625 C-40.15232617 198.89048487 -40.17588657 177.00538745 -40.18111098 155.1202063 C-40.18452418 142.83208012 -40.1962687 130.54408431 -40.22921371 118.25599861 C-40.25722799 107.78982104 -40.26820746 97.32380057 -40.25701825 86.85758842 C-40.25183509 81.51924711 -40.25469648 76.18123472 -40.2794838 70.84294128 C-40.30201156 65.95033444 -40.30120884 61.05829213 -40.28227992 56.16567516 C-40.27948487 54.40109896 -40.28505079 52.63648419 -40.30009286 50.87196989 C-40.4263136 35.09355642 -37.19954958 23.21790683 -26.08796692 11.47529602 C-19.17873244 4.9527097 -9.57824717 0.05052571 0 0 Z M-6.66999817 37.14717102 C-9.65461052 41.62408954 -9.79517306 45.58416438 -9.79025269 50.87356567 C-9.79162735 52.01634979 -9.79300201 53.15913391 -9.79441833 54.33654785 C-9.79082306 55.58092117 -9.78722778 56.82529449 -9.78352356 58.1073761 C-9.78366959 59.42483826 -9.78381561 60.74230042 -9.78396606 62.09968567 C-9.78425261 65.70466021 -9.77837891 69.30960139 -9.77139211 72.91456819 C-9.76513484 76.68486502 -9.76455289 80.45516264 -9.7633667 84.22546387 C-9.76026038 91.36162213 -9.75205642 98.49776505 -9.74201721 105.63391656 C-9.73083436 113.75963153 -9.72534015 121.88534724 -9.72032177 130.01106799 C-9.70987322 146.72311273 -9.69153643 163.43513633 -9.66999817 180.14717102 C0.23000183 180.14717102 10.13000183 180.14717102 20.33000183 180.14717102 C20.36738464 176.52361633 20.40476746 172.90006165 20.44328308 169.16670227 C20.48950129 165.65516643 20.54073403 162.14373706 20.592453 158.63227844 C20.625696 156.19289119 20.65372984 153.75342714 20.67643738 151.31391907 C20.709994 147.8061807 20.76231232 144.29914577 20.81828308 140.79170227 C20.824673 139.70194595 20.83106293 138.61218964 20.83764648 137.4894104 C21.02586738 127.78384827 21.02586738 127.78384827 24.33000183 124.14717102 C28.24498869 121.31302751 30.97327637 120.77171327 35.77217102 120.7696476 C37.08183271 120.76182436 38.39149441 120.75400111 39.74084282 120.7459408 C41.1926015 120.75242686 42.64435893 120.75919682 44.09611511 120.76622009 C45.63954563 120.76276376 47.18297368 120.75799935 48.72639656 120.75203836 C52.96970239 120.73949536 57.21280623 120.7457137 61.45611286 120.75499701 C66.03150119 120.76177367 70.60685434 120.75131315 75.18223572 120.74305725 C84.14622571 120.72970293 93.11014043 120.73260522 102.0741334 120.74129517 C109.35801722 120.74806463 116.64187992 120.74899164 123.92576599 120.74572372 C125.47956205 120.74503418 125.47956205 120.74503418 127.06474793 120.7443307 C129.16894961 120.74337154 131.27315128 120.7423989 133.37735295 120.74141292 C153.11805176 120.73285405 172.8587088 120.74270096 192.59940076 120.75881402 C209.54542933 120.77221765 226.49139625 120.7698897 243.43742371 120.75605774 C263.10648807 120.74001071 282.77551581 120.73367807 302.4445858 120.74289453 C304.54113642 120.7438502 306.63768704 120.74479331 308.73423767 120.74572372 C309.76583641 120.74618655 310.79743515 120.74664938 311.86029446 120.74712623 C319.1371728 120.74971875 326.41402796 120.74533948 333.69090271 120.73828506 C342.55648571 120.72987961 351.421989 120.73213009 360.28756285 120.7481273 C364.81270708 120.75602288 369.33771832 120.75907974 373.86286163 120.74917984 C378.00302994 120.74025902 382.14294161 120.74512247 386.28308654 120.7611125 C387.78301354 120.76447141 389.28296209 120.76274138 390.7828753 120.75548513 C392.81784625 120.74639345 394.85287769 120.75749183 396.88783264 120.7696476 C398.58510404 120.77037818 398.58510404 120.77037818 400.31666374 120.77112353 C404.60029426 121.30569631 407.23293414 122.93968955 410.11051941 126.10688782 C412.03631292 130.90807032 411.8116594 135.66497903 411.84172058 140.79170227 C411.86864738 142.4790876 411.86864738 142.4790876 411.89611816 144.20056152 C411.95021899 147.78689345 411.98411708 151.37309227 412.01750183 154.95967102 C412.050675 157.39393433 412.08516465 159.82818008 412.12101746 162.2624054 C412.20841914 168.2240131 412.26849257 174.18501503 412.33000183 180.14717102 C422.23000183 180.14717102 432.13000183 180.14717102 442.33000183 180.14717102 C442.37525414 170.48928416 442.41191887 160.83146816 442.43362617 151.17349911 C442.44404655 146.68852729 442.4581738 142.203632 442.48088074 137.71870422 C442.50267147 133.38744928 442.51458359 129.05626778 442.51975632 124.72496223 C442.5234409 123.07562161 442.53063593 121.42628484 442.54146194 119.77697563 C442.55605981 117.46010137 442.55797633 115.14352751 442.55705261 112.82661438 C442.56149384 111.50979172 442.56593506 110.19296906 442.57051086 108.83624268 C442.21946743 103.4517282 441.46087385 99.45202335 437.89250183 95.33467102 C432.81291301 90.99843666 428.9501889 90.02495869 422.40271759 90.01688576 C421.43094527 90.01326141 420.45917295 90.00963706 419.45795298 90.00590289 C418.3981351 90.00697114 417.33831723 90.00803939 416.24638367 90.00914001 C415.11449537 90.00631873 413.98260707 90.00349746 412.81641912 90.00059068 C409.01560125 89.99224346 405.2148125 89.99090634 401.41398621 89.98945618 C398.69232973 89.98535384 395.97067708 89.97971118 393.24902344 89.97406006 C387.38431966 89.96254261 381.51961874 89.95429414 375.65490723 89.94794083 C366.386552 89.93760991 357.11823254 89.91704605 347.84989929 89.89482117 C344.67855084 89.88734186 341.50720223 89.8799281 338.33585358 89.8725338 C337.54334856 89.87068323 336.75084354 89.86883267 335.93432322 89.86692602 C326.91631722 89.84600549 317.89830728 89.82717301 308.8802948 89.8092804 C308.05603357 89.80764221 307.23177234 89.80600403 306.38253349 89.80431621 C293.01669165 89.77801502 279.65084704 89.75937943 266.28499025 89.74268849 C252.56303468 89.72527597 238.84113341 89.6964418 225.11922121 89.65779912 C216.65458871 89.6343886 208.19004472 89.62040362 199.72537959 89.61847149 C193.92718068 89.61636425 188.12906991 89.60345299 182.33091056 89.58199216 C178.98442222 89.56994979 175.63825737 89.56444797 172.29172707 89.56870461 C168.66549825 89.57258114 165.0397902 89.55820301 161.41362 89.53916931 C159.82389319 89.54746386 159.82389319 89.54746386 158.20205069 89.55592597 C149.2937684 89.47489072 149.2937684 89.47489072 145.33000183 86.14717102 C141.85182814 81.88385654 141.63203088 77.35807895 141.01750183 72.08467102 C139.18607001 58.99927752 134.24344736 49.11724028 124.33000183 40.14717102 C112.87392004 31.6271605 100.96303546 29.99410855 87.06584167 30.00190735 C86.18819656 29.99854874 85.31055145 29.99519012 84.40631104 29.99172974 C81.53450569 29.98230878 78.66275912 29.98028158 75.79093933 29.97920227 C73.78032915 29.97598515 71.7697192 29.97262074 69.7591095 29.96911621 C65.55812538 29.9631483 61.35716176 29.96127406 57.15617371 29.96186829 C51.78185893 29.96197015 46.40767554 29.94828268 41.03339195 29.93109608 C36.88634133 29.91996613 32.73932248 29.91794933 28.59225845 29.91847801 C26.61078562 29.91730076 24.62931189 29.91289334 22.64785385 29.90514565 C19.8769333 29.89531919 17.10629833 29.89823356 14.33537292 29.9042511 C13.52376205 29.89863159 12.71215118 29.89301208 11.87594604 29.88722229 C4.12536114 29.92986896 -1.43746599 31.01763332 -6.66999817 37.14717102 Z M50.33000183 150.14717102 C50.33000183 160.04717102 50.33000183 169.94717102 50.33000183 180.14717102 C159.89000183 180.14717102 269.45000183 180.14717102 382.33000183 180.14717102 C382.33000183 170.24717102 382.33000183 160.34717102 382.33000183 150.14717102 C272.77000183 150.14717102 163.21000183 150.14717102 50.33000183 150.14717102 Z M-9.66999817 210.14717102 C-9.71124817 252.40779602 -9.75249817 294.66842102 -9.79499817 338.20967102 C-9.81320618 351.56315002 -9.83141418 364.91662903 -9.85017395 378.67475891 C-9.85686201 390.6244578 -9.85686201 390.6244578 -9.86088562 402.57415771 C-9.86275206 407.90470151 -9.87009422 413.23520475 -9.88114929 418.56573486 C-9.89522292 425.3617973 -9.89898379 432.15780121 -9.89614272 438.95387733 C-9.89673696 441.4501299 -9.90071347 443.94638445 -9.90842843 446.44262516 C-9.91835767 449.8113821 -9.91598479 453.17991356 -9.9105072 456.54867554 C-9.91633253 457.52797751 -9.92215786 458.50727949 -9.92815971 459.51625729 C-9.89909339 466.1551651 -9.75342041 471.74322228 -5.23249817 476.95967102 C0.6155452 481.95190316 4.99330491 482.27165318 12.51621819 482.27580547 C13.5904668 482.27843503 13.5904668 482.27843503 14.6864174 482.28111771 C17.09260504 482.28577952 19.49873231 482.28331174 21.90492249 482.28088379 C23.64491517 482.28275167 25.38490743 482.28505228 27.12489903 482.28774911 C31.91155692 482.29387634 36.69819736 482.29373243 41.48485827 482.29255474 C46.6451461 482.29235096 51.80542829 482.29786722 56.9657135 482.3026123 C67.07737674 482.31092433 77.18903416 482.31366739 87.30070053 482.31422468 C95.51800962 482.31469956 103.73531679 482.31675286 111.95262527 482.31992531 C135.24006285 482.32873317 158.52749582 482.33334445 181.81493507 482.33259483 C183.07078113 482.33255488 184.32662718 482.33251492 185.62052917 482.33247375 C186.87790493 482.33243287 188.13528068 482.33239199 189.43075873 482.33234987 C209.81467775 482.3319433 230.1985783 482.34151528 250.58249198 482.35561212 C271.50260496 482.36996586 292.42270893 482.37688287 313.34282696 482.37601835 C325.09190534 482.37568604 336.84096435 482.37844772 348.5900383 482.3891964 C358.59227082 482.39828819 368.59447521 482.40048751 378.59671007 482.39368697 C383.70130339 482.39041516 388.80584268 482.39038889 393.91043091 482.39904022 C398.58233191 482.40687691 403.2541358 482.40550286 407.92603435 482.39675609 C409.61711577 482.39521485 411.30820434 482.39706064 412.99927734 482.40261617 C415.29700373 482.40966537 417.59438844 482.40439127 419.8921032 482.39605999 C421.80695434 482.39638604 421.80695434 482.39638604 423.76048934 482.39671868 C429.08996985 482.02413016 433.06723611 481.24156798 437.14250183 477.70967102 C441.38454932 472.74041539 442.45617773 468.93393809 442.45304966 462.51826763 C442.45504053 461.61279753 442.4570314 460.70732742 442.4590826 459.77441883 C442.45616994 458.78929152 442.45325727 457.80416422 442.45025635 456.78918457 C442.45111237 455.73797928 442.45196838 454.68677399 442.45285034 453.60371399 C442.45450745 450.06504123 442.44897873 446.52641564 442.44352722 442.98774719 C442.44322095 440.4139751 442.44335428 437.84020291 442.44389248 435.26643085 C442.44442403 429.06567783 442.43980776 422.86493929 442.43339115 416.66418998 C442.42619088 409.49140234 442.42539638 402.31861977 442.42460632 395.14582825 C442.41935608 376.20877354 442.40539497 357.27172206 442.39250183 338.33467102 C442.37187683 296.03279602 442.35125183 253.73092102 442.33000183 210.14717102 C293.17000183 210.14717102 144.01000183 210.14717102 -9.66999817 210.14717102 Z " fill="#507BE3" transform="translate(39.66999816894531,-0.1471710205078125)"/>
<path d="M0 0 C4.59201646 2.17516569 6.83689467 4.45234302 9 9 C9.29841613 11.92193373 9.43764198 14.63313511 9.43237305 17.55395508 C9.44766052 18.82789124 9.44766052 18.82789124 9.46325684 20.12756348 C9.49336652 22.92495335 9.50264967 25.72200067 9.51171875 28.51953125 C9.52856694 30.46295813 9.54671737 32.40637413 9.56611633 34.34977722 C9.61360722 39.45755613 9.64342255 44.56529089 9.66955566 49.67321777 C9.69936571 54.88835366 9.74589455 60.10333746 9.79101562 65.31835938 C9.87703842 75.54549334 9.94438834 85.77265862 10 96 C10.40232346 95.59323532 10.80464691 95.18647064 11.21916199 94.76737976 C15.41483082 90.52739765 19.61757557 86.29452464 23.82446289 82.06567383 C25.39268918 80.48740208 26.95911417 78.90733833 28.52368164 77.32543945 C30.77537214 75.04943728 33.03350298 72.77999911 35.29296875 70.51171875 C35.98899704 69.80536789 36.68502533 69.09901703 37.40214539 68.3712616 C42.52621631 63.24601842 46.36294333 59.57224846 53.9375 59.5625 C59.0792385 59.70146591 62.15476391 60.3519555 66 64 C68.5990635 67.66631179 69.47428036 70.32506095 69.5625 74.8125 C69.60503906 75.78832031 69.64757812 76.76414062 69.69140625 77.76953125 C67.60021362 87.54024485 56.74027864 95.55075287 49.90234375 102.36328125 C48.62223112 103.6447433 47.34241533 104.92650193 46.06288147 106.20854187 C43.39240551 108.88195284 40.71838012 111.55174714 38.04174805 114.21899414 C34.6164223 117.6328916 31.20020138 121.05573747 27.78656673 124.48132038 C25.15046804 127.12465196 22.50961731 129.76319449 19.86731148 132.40032005 C18.60558975 133.66071104 17.34534255 134.92257996 16.08662224 136.1859684 C14.32809304 137.9495901 12.56325672 139.70665194 10.79663086 141.4621582 C10.28169067 141.98114685 9.76675049 142.5001355 9.23620605 143.03485107 C4.55705204 147.65973211 0.86892884 150.43114819 -5.8125 150.5625 C-7.27623047 150.62630859 -7.27623047 150.62630859 -8.76953125 150.69140625 C-18.54024485 148.60021362 -26.55075287 137.74027864 -33.36328125 130.90234375 C-34.6447433 129.62223112 -35.92650193 128.34241533 -37.20854187 127.06288147 C-39.88195284 124.39240551 -42.55174714 121.71838012 -45.21899414 119.04174805 C-48.6328916 115.6164223 -52.05573747 112.20020138 -55.48132038 108.78656673 C-58.12465196 106.15046804 -60.76319449 103.50961731 -63.40032005 100.86731148 C-64.66071104 99.60558975 -65.92257996 98.34534255 -67.1859684 97.08662224 C-68.9495901 95.32809304 -70.70665194 93.56325672 -72.4621582 91.79663086 C-72.98114685 91.28169067 -73.5001355 90.76675049 -74.03485107 90.23620605 C-78.74428979 85.47150208 -81.42874828 81.86258417 -81.4375 75.0625 C-81.29853409 69.9207615 -80.6480445 66.84523609 -77 63 C-73.33368821 60.4009365 -70.67493905 59.52571964 -66.1875 59.4375 C-65.21167969 59.39496094 -64.23585937 59.35242188 -63.23046875 59.30859375 C-55.70320648 60.91962812 -49.89721844 67.81949014 -44.65625 73.1484375 C-44.00168823 73.80582916 -43.34712646 74.46322083 -42.67272949 75.14053345 C-40.61035267 77.21398671 -38.55509155 79.2943284 -36.5 81.375 C-35.09161313 82.79343289 -33.68276302 84.21140598 -32.2734375 85.62890625 C-28.84358627 89.08065124 -25.42009252 92.53858665 -22 96 C-21.99635437 94.92338104 -21.99270874 93.84676208 -21.98895264 92.73751831 C-21.95199094 82.58506722 -21.89420531 72.43291912 -21.81609726 62.28069878 C-21.77660961 57.06146879 -21.74442737 51.84240785 -21.72900391 46.62304688 C-21.71384592 41.58484006 -21.67941535 36.54709795 -21.63169098 31.50909805 C-21.61686838 29.58824836 -21.60895848 27.66733233 -21.60811615 25.74642563 C-21.60574739 23.05294156 -21.57867554 20.36074266 -21.54589844 17.66748047 C-21.55344398 16.47956657 -21.55344398 16.47956657 -21.56114197 15.26765442 C-21.46357889 10.07647234 -20.39829176 7.13626399 -17 3 C-11.77740143 -1.05630398 -6.34659858 -0.77397544 0 0 Z " fill="#4C75D7" transform="translate(262,241)"/>
<path d="M0 0 C5.06194079 2.39776143 6.02214649 4.03691082 9 9 C9 15.93 9 22.86 9 30 C58.5 30 108 30 159 30 C159 23.07 159 16.14 159 9 C163.75614898 1.86577653 163.75614898 1.86577653 168 0 C173.54808604 -0.82885269 178.47140883 -0.7240695 183.5625 1.6875 C187.33885988 5.2702004 189.13610839 8.10119833 189.40405273 13.32788086 C189.43050068 15.04002587 189.43934479 16.75250413 189.43359375 18.46484375 C189.4388356 19.37577286 189.44407745 20.28670197 189.44947815 21.22523499 C189.45588766 23.14746076 189.45457523 25.06972582 189.44604492 26.99194336 C189.43753806 29.92437983 189.46630571 32.85486532 189.49804688 35.78710938 C189.4996592 37.65885359 189.49908077 39.53060123 189.49609375 41.40234375 C189.50732773 42.2743895 189.51856171 43.14643524 189.53013611 44.04490662 C189.46810465 49.49545072 188.7426266 52.75515256 185 57 C180.84485866 60.16176922 177.20345666 60.42937562 172.15003967 60.38768005 C171.36595889 60.39306559 170.58187811 60.39845113 169.7740373 60.40399987 C167.15006059 60.41829283 164.52658739 60.41117252 161.90258789 60.40405273 C160.0199798 60.4097556 158.13737517 60.41671954 156.254776 60.42485046 C151.1432122 60.44280612 146.03181984 60.44160896 140.92023396 60.43590808 C136.65322742 60.43281972 132.38625398 60.43890475 128.11925215 60.44494683 C118.05318767 60.45899834 107.98720805 60.45742553 97.92114258 60.44604492 C87.53563552 60.43456265 77.15038665 60.44863985 66.76491362 60.4754414 C57.84842613 60.49759064 48.93201973 60.50423753 40.01550668 60.49836498 C34.68999865 60.49499241 29.36465613 60.49743052 24.03917122 60.51461601 C19.03140025 60.53007066 14.0240121 60.52614596 9.01625633 60.50731087 C7.1788452 60.50362091 5.3414058 60.5067453 3.50402069 60.51719666 C0.99455282 60.53038065 -1.51364287 60.51888285 -4.02305603 60.50120544 C-4.74923046 60.51081045 -5.47540488 60.52041546 -6.22358459 60.53031152 C-11.26583093 60.45728819 -14.09888514 59.1358435 -18 56 C-21.76225691 51.60548113 -21.45210981 47.04820881 -21.43359375 41.53515625 C-21.4388356 40.62422714 -21.44407745 39.71329803 -21.44947815 38.77476501 C-21.45588766 36.85253924 -21.45457523 34.93027418 -21.44604492 33.00805664 C-21.43753806 30.07562017 -21.46630571 27.14513468 -21.49804688 24.21289062 C-21.4996592 22.34114641 -21.49908077 20.46939877 -21.49609375 18.59765625 C-21.50732773 17.7256105 -21.51856171 16.85356476 -21.53013611 15.95509338 C-21.46786847 10.4837971 -20.65013218 7.33605742 -17 3 C-11.77740143 -1.05630398 -6.34659858 -0.77397544 0 0 Z " fill="#4F7AE0" transform="translate(172,391)"/>
</svg>
