<svg id="svg" version="1.1" viewBox="0 0 300 300" width="300" height="300" xmlns="http://www.w3.org/2000/svg"><svg xmlns="http://www.w3.org/2000/svg"><defs><clipPath id="clip-1"><rect x="0" y="0" transform="scale(0.14648,0.14648)" width="2048" height="2048" fill="none"/></clipPath></defs><g clip-path="url(#clip-1)" fill="none" fill-rule="nonzero" stroke="none" stroke-width="1" stroke-linecap="butt" stroke-linejoin="miter" stroke-miterlimit="10" stroke-dasharray="" stroke-dashoffset="0" font-family="none" font-weight="none" font-size="none" text-anchor="none" style="mix-blend-mode: normal"><path d="M96.89106,24.97104c7.73438,-0.15161 15.90205,-0.01553 23.68857,-0.01553l45.67573,-0.00439l25.06055,-0.00073c10.78271,0.00088 20.86816,-0.25767 31.52344,2.09927c11.75977,2.60112 22.25391,7.40083 31.17334,15.54873c13.96875,12.69727 20.26025,31.829 20.86084,50.31079c0.25635,7.90444 0.09521,16.07871 0.09521,24.01289l-0.00293,42.37529l0.00293,30.51123c0,12.3252 0.3501,21.59326 -2.18994,33.66211c-5.90918,28.06641 -27.17285,46.62012 -55.31836,50.49756c-4.91309,0.67676 -9.29297,0.91846 -14.32324,1.08838c-7.81641,0.13184 -15.87891,0.02637 -23.72461,0.02637l-44.38843,0.00146h-25.18887c-11.63716,0 -22.32407,0.30029 -33.73418,-2.39062c-11.50898,-2.71436 -22.2835,-7.7168 -30.83247,-15.9375c-14.64785,-14.08887 -20.09546,-33.12744 -20.23433,-52.99365c-0.0542,-7.7417 -0.05244,-15.49219 -0.05288,-23.24854l-0.00234,-42.11455l0.00029,-28.46089c0,-11.48701 -0.34512,-22.05439 2.21191,-33.36709c2.60771,-11.53726 7.73774,-22.67109 15.97661,-31.28203c14.4041,-15.05449 33.54126,-19.86929 53.72314,-20.31855zM48.27217,226.98193c1.45723,-1.27881 5.26406,-3.67676 7.09761,-4.9043l13.65498,-9.15381l18.35962,-12.33984c3.06929,-2.05957 8.31826,-5.80811 11.46973,-7.18799c4.16763,-1.81055 8.70747,-2.6001 13.2416,-2.30273c4.20542,0.25781 8.19858,1.40479 11.85542,3.52295c4.14287,2.40234 7.41899,6.11426 11.4832,8.61182c8.02617,4.93066 18.8313,5.13867 27.15894,0.81445c2.31445,-1.20557 4.19385,-2.77002 6.19043,-4.40771c11.3584,-10.05762 23.33643,-20.05518 34.88232,-29.97217l11.11084,-9.55078c2.63525,-2.24854 5.62939,-5.03467 8.62354,-6.69873c4.69922,-2.56055 10.03125,-3.73096 15.37207,-3.37207c7.1792,0.43506 12.07178,2.98096 17.45508,7.5l0.01465,-38.60479l-0.00146,-15.20464c0,-4.2252 -0.01611,-8.35137 -0.22998,-12.50537c-1.1748,-22.73921 -13.41504,-41.07422 -36.66797,-45.75278c-9.22559,-1.85625 -16.18506,-1.64077 -25.6333,-1.64092l-22.52344,0.00264l-72.14751,0.00483l-3.52222,0.02651c-25.30503,0.5915 -44.90054,11.09692 -50.22876,37.61294c-1.86753,9.29399 -1.54175,17.38799 -1.54175,26.77544l0.00308,26.60552l-0.00132,45.26265c0,7.9043 0.01582,16.05029 0.03398,23.93262c0.01304,5.63086 1.6979,18.06299 4.49063,22.92627z" fill="#000000"/><path d="M109.88335,70.37563c16.36743,-1.43818 30.79995,10.66875 32.23037,27.03691c1.43042,16.36816 -10.68325,30.79497 -27.052,32.21777c-16.35806,1.42178 -30.77329,-10.68208 -32.20269,-27.0394c-1.42954,-16.35732 10.66758,-30.77813 27.02432,-32.21528z" fill="#000000"/></g></svg></svg>