<svg id="svg" version="1.1" viewBox="0 0 300 300" width="300" height="300" xmlns="http://www.w3.org/2000/svg"><svg xmlns="http://www.w3.org/2000/svg"><defs><clipPath id="clip-1"><rect x="0" y="0" transform="scale(0.14648,0.14648)" width="2048" height="2048" fill="none"/></clipPath></defs><g clip-path="url(#clip-1)" fill="none" fill-rule="nonzero" stroke="none" stroke-width="1" stroke-linecap="butt" stroke-linejoin="miter" stroke-miterlimit="10" stroke-dasharray="" stroke-dashoffset="0" font-family="none" font-weight="none" font-size="none" text-anchor="none" style="mix-blend-mode: normal"><path d="M0,53.38462c0.1925,-0.41777 0.64805,-3.01157 0.87828,-3.802c1.06869,-3.66899 3.17961,-7.29404 5.87052,-9.97764c3.18081,-3.18647 7.22697,-5.36924 11.63675,-6.27759c3.47534,-0.7106 7.39658,-0.55605 10.96904,-0.55591l12.5272,0.00527l45.2064,0.00146c2.21543,0.00542 4.35938,-0.01509 6.63062,0.24478c7.89946,0.90366 15.28433,4.84995 20.55776,10.78257c0.96987,1.09116 1.64883,2.07349 2.70498,3.13462c1.67124,-0.2127 5.77119,-0.1103 7.63784,-0.10957l14.17617,0.00557l47.80649,-0.00146l62.17236,-0.00117l19.13818,0.00015c3.10986,0.00015 8.23535,-0.13052 11.20605,0.16787c4.26855,0.42437 8.33203,2.03804 11.729,4.65762c3.84082,2.98755 6.54053,6.59575 8.0127,11.25425c0.52441,1.65674 0.70898,2.92925 1.13965,4.51113v12.23774v167.23564c-0.73242,1.90137 -0.71484,3.77783 -1.94678,6.43652c-2.41113,5.66602 -7.37549,10.38428 -13.27734,12.43506c-6.03662,2.09766 -14.5708,1.44873 -21.08936,1.4458l-25.34619,-0.00439l-78.53027,0.00293l-90.98159,0.00293h-29.98359c-5.21206,0 -11.13413,0.13623 -16.27954,-0.05127c-3.02036,-0.08643 -5.99443,-0.76465 -8.75385,-1.99658c-6.69313,-3.02783 -11.48874,-8.729 -13.16045,-15.82178c-0.20241,-0.85986 -0.30727,-1.77246 -0.65104,-2.5752z" fill="#517de5"/><path d="M116.98154,46.94019c1.67124,-0.2127 5.77119,-0.1103 7.63784,-0.10957l14.17617,0.00557l47.80649,-0.00146l62.17236,-0.00117l19.13818,0.00015c3.10986,0.00015 8.23535,-0.13052 11.20605,0.16787c4.26855,0.42437 8.33203,2.03804 11.729,4.65762c3.84082,2.98755 6.54053,6.59575 8.0127,11.25425c0.52441,1.65674 0.70898,2.92925 1.13965,4.51113v12.23774l-100.36816,0.01333l-33.28418,0.00439l-10.9292,0.00396c-3.26221,0.00015 -7.40186,0.23906 -10.46616,-0.84463c-1.85405,-0.64834 -3.54434,-1.69336 -4.95308,-3.06211c-1.56431,-1.50103 -3.35728,-3.88184 -4.76016,-5.63979l-6.83936,-8.57241l-7.29756,-9.1043c-0.99097,-1.23574 -3.49805,-4.23252 -4.12061,-5.52056z" fill="#446cca"/></g></svg></svg>