<?xml version="1.0" encoding="UTF-8"?>
<svg version="1.1" xmlns="http://www.w3.org/2000/svg" width="512" height="512">
<path d="M0 0 C0.90699422 -0.00382555 1.81398844 -0.00765109 2.74846733 -0.01159257 C5.79451816 -0.0219297 8.84038074 -0.01792898 11.88644409 -0.01396179 C14.0678271 -0.01830801 16.24920857 -0.02349085 18.43058777 -0.02944946 C24.36266848 -0.04286406 30.29468558 -0.04341513 36.22677851 -0.04088616 C41.17930105 -0.03981758 46.13181066 -0.04469722 51.08433044 -0.04949158 C63.44115624 -0.06123177 75.79795065 -0.06035697 88.15477835 -0.05393478 C98.206479 -0.04909279 108.25809906 -0.05764313 118.30978394 -0.07548523 C129.98912771 -0.09614224 141.66841532 -0.10658096 153.3477782 -0.10290974 C159.52741793 -0.10109796 165.70697437 -0.10372224 171.88660049 -0.11762428 C177.70276367 -0.13021801 183.51874518 -0.12824372 189.33490562 -0.11521339 C191.46573511 -0.11285101 193.59657743 -0.11557014 195.7273922 -0.12383652 C198.6447238 -0.13433477 201.56144941 -0.12617833 204.47875977 -0.11352539 C205.31458434 -0.12089968 206.15040892 -0.12827396 207.01156151 -0.13587171 C216.19046794 -0.05258692 225.08491915 2.1881687 231.71017456 8.86225891 C238.15746738 16.01891158 240.26007361 22.53908122 240.21798706 32.09272766 C240.2147644 33.38501282 240.21154175 34.67729797 240.20822144 36.00874329 C240.19986746 37.36356167 240.19140253 38.71837938 240.18283081 40.07319641 C240.17781081 41.44754376 240.17324878 42.82189286 240.16915894 44.19624329 C240.15738749 47.55110565 240.14094364 50.90587863 240.12033081 54.26069641 C241.17929565 54.23982971 242.2382605 54.21896301 243.32931519 54.19746399 C255.38937834 53.99767379 264.84835286 54.58621565 274.06954956 63.04975891 C282.73345766 72.16775024 282.55612605 82.42009583 282.50128174 94.31611633 C282.50474145 95.95089371 282.50950812 97.58566876 282.51546347 99.22043896 C282.52796006 103.69781641 282.52180919 108.17500146 282.51250482 112.65237951 C282.50570918 117.48680758 282.51619811 122.32120286 282.52444458 127.15562439 C282.53777859 136.62039255 282.53490564 146.0850893 282.52620666 155.54986024 C282.51942923 163.24265265 282.51851365 170.93542506 282.52177811 178.6282196 C282.52223781 179.72344474 282.5226975 180.81866988 282.52317113 181.94708365 C282.52413032 184.17207027 282.52510296 186.39705688 282.52608891 188.62204349 C282.53464183 209.48167131 282.52481019 230.34125956 282.50868781 251.20088089 C282.49528472 269.09616473 282.49761284 286.99139019 282.51144409 304.88667297 C282.52750162 325.672086 282.53381787 346.45746436 282.5246073 367.24288273 C282.52365166 369.45964622 282.52270855 371.67640972 282.52177811 373.89317322 C282.52131528 374.98383959 282.52085245 376.07450595 282.5203756 377.19822282 C282.51778624 384.88103295 282.52215557 392.56382108 282.52921677 400.24662781 C282.53763386 409.61045993 282.53534717 418.97421662 282.51937453 428.33804011 C282.51149469 433.11483839 282.5083954 437.89151093 282.51832199 442.66830826 C282.52727524 447.04290784 282.52232562 451.41726537 282.50638933 455.79184306 C282.50304421 457.37247499 282.50472956 458.95312745 282.5120167 460.53374612 C282.56620108 473.26541207 281.53147081 481.66340103 272.53048706 491.08882141 C266.63009237 496.40587076 260.27928083 498.379807 252.39162827 498.39212418 C251.46412349 498.39596532 250.5366187 498.39980647 249.58100772 498.40376401 C248.57060971 498.40289753 247.56021169 498.40203104 246.51919556 498.40113831 C245.43913215 498.40410943 244.35906874 498.40708055 243.24627614 498.41014171 C239.62062769 498.4188258 235.99501228 498.42033671 232.36935425 498.42182922 C229.77241444 498.42645758 227.17547532 498.43148226 224.57853699 498.43687439 C217.51853829 498.45044281 210.45854529 498.45648004 203.39853573 498.46088505 C198.98840909 498.46364986 194.57828464 498.46788764 190.16815948 498.47238922 C177.95239271 498.4845797 165.73662768 498.49487961 153.52085495 498.49826431 C152.34863897 498.49859366 152.34863897 498.49859366 151.15274186 498.49892966 C150.36942028 498.49914794 149.5860987 498.49936622 148.7790401 498.49959111 C147.19179455 498.50003457 145.60454901 498.50048114 144.01730347 498.50093079 C143.22997885 498.50115222 142.44265424 498.50137365 141.63147131 498.50160179 C128.8761529 498.50554918 116.12089164 498.5230024 103.36559531 498.54629031 C90.2628975 498.57001897 77.16022835 498.58246684 64.05750871 498.58363223 C56.70363898 498.58454811 49.34984374 498.59027859 41.99599457 498.60845184 C35.0783587 498.62548717 28.16086627 498.62709413 21.24321556 498.61831284 C18.70559753 498.6175418 16.16797193 498.62189392 13.630373 498.63177109 C10.16321378 498.64447398 6.69655646 498.63862225 3.22940063 498.62818909 C1.72718794 498.64027369 1.72718794 498.64027369 0.19462752 498.65260243 C-8.99621658 498.58802847 -17.74340794 496.3302744 -24.87966919 490.26069641 C-30.8217874 483.2513685 -33.15403822 476.22468802 -33.07498169 467.01460266 C-33.07215179 466.35862595 -33.0693219 465.70264923 -33.06640625 465.02679443 C-33.05532903 462.95873232 -33.03024982 460.89112468 -33.00466919 458.82319641 C-32.99462321 457.40979127 -32.98550021 455.99637924 -32.97732544 454.58296204 C-32.95543103 451.14206247 -32.9209897 447.70142389 -32.87966919 444.26069641 C-33.91865356 444.2955011 -34.95763794 444.33030579 -36.02810669 444.36616516 C-47.26966524 444.63208579 -57.96401054 444.00928386 -66.87966919 436.26069641 C-72.24288167 429.81292319 -75.1214787 423.435595 -75.14531803 414.96935463 C-75.15361702 413.71876971 -75.16191601 412.46818479 -75.17046648 411.17970335 C-75.16959706 409.79976935 -75.16852847 408.41983545 -75.1672821 407.03990173 C-75.17316876 405.56786767 -75.17990851 404.09583681 -75.18742698 402.62381017 C-75.20547725 398.58243939 -75.21101844 394.54113386 -75.21441376 390.49972773 C-75.22017711 386.13969879 -75.23730315 381.77971157 -75.25276184 377.41970825 C-75.28748933 366.89484081 -75.30309522 356.36997691 -75.31688514 345.8450647 C-75.32384887 340.88802886 -75.33300496 335.93099719 -75.34199333 330.97396469 C-75.37119001 314.49643145 -75.39598625 298.01890227 -75.40661716 281.5413456 C-75.40730786 280.4871316 -75.40799855 279.43291761 -75.40871018 278.34675773 C-75.40940219 277.29003358 -75.41009421 276.23330942 -75.41080719 275.14456332 C-75.41221918 273.00326132 -75.41363999 270.86195933 -75.41506958 268.72065735 C-75.41577475 267.65849937 -75.41647992 266.59634139 -75.41720646 265.5019968 C-75.42946184 248.28408581 -75.47227049 231.06639475 -75.52800978 213.84857507 C-75.58477485 196.17042611 -75.61526606 178.49238841 -75.61962932 160.81414735 C-75.62271221 150.88866352 -75.63723028 140.9634855 -75.68091011 131.03808975 C-75.71799195 122.58829111 -75.73120278 114.13888112 -75.71320523 105.68901278 C-75.70474632 101.37791355 -75.70761893 97.0676082 -75.74102402 92.75661278 C-75.77134739 88.80840637 -75.76924362 84.86158189 -75.74153601 80.91336851 C-75.73719509 79.48675101 -75.74464561 78.06003757 -75.76520903 76.63356169 C-75.92689352 64.66757874 -75.92689352 64.66757874 -71.48466396 59.50676537 C-70.31420813 58.39105686 -69.11515054 57.30394047 -67.87966919 56.26069641 C-67.04306763 55.46478088 -66.20646606 54.66886536 -65.34451294 53.84883118 C-64.5104895 53.11978577 -63.67646606 52.39074036 -62.81716919 51.63960266 C-56.80627204 46.26203877 -51.1245421 40.57171052 -45.44216919 34.85054016 C-44.97642487 34.38202259 -44.51068054 33.91350502 -44.03082275 33.43078995 C-39.64581849 29.01944221 -35.2672128 24.60177714 -30.89382935 20.1789093 C-28.94644123 18.20992091 -26.99640383 16.24362622 -25.04348755 14.28012085 C-23.21840259 12.44472056 -21.39742809 10.60522146 -19.58108521 8.76116943 C-18.75922729 7.93593277 -17.93736938 7.11069611 -17.09060669 6.26045227 C-16.37179321 5.53418137 -15.65297974 4.80791046 -14.91238403 4.05963135 C-10.26172945 -0.05615746 -6.03961343 -0.02687873 0 0 Z M-0.87966919 13.26069641 C-0.89425171 14.45557678 -0.90883423 15.65045715 -0.92385864 16.88154602 C-0.98218685 21.34912326 -1.05941566 25.81621455 -1.14212036 30.28340149 C-1.17520819 32.2104041 -1.20328947 34.13749987 -1.22610474 36.06465149 C-1.25994956 38.84784851 -1.31227779 41.63020413 -1.36795044 44.41304016 C-1.37753532 45.68860023 -1.37753532 45.68860023 -1.38731384 46.9899292 C-1.54796099 53.64634425 -2.49439073 60.27161315 -6.74685669 65.60054016 C-7.40943481 66.12776672 -8.07201294 66.65499329 -8.75466919 67.19819641 C-9.41209106 67.74346985 -10.06951294 68.28874329 -10.74685669 68.85054016 C-16.34952059 72.55486556 -21.46283673 72.5942256 -27.99295044 72.67475891 C-28.96250168 72.69412506 -29.93205292 72.71349121 -30.9309845 72.73344421 C-34.01795747 72.79307077 -37.10496806 72.83955781 -40.19216919 72.88569641 C-42.28919037 72.92389175 -44.38619613 72.96294439 -46.48318481 73.00288391 C-51.6152205 73.0987585 -56.74732962 73.18285218 -61.87966919 73.26069641 C-61.97118763 117.36429296 -62.04168906 161.46787947 -62.08393051 205.57155222 C-62.08893345 210.776202 -62.09411072 215.9808516 -62.09939575 221.1855011 C-62.10044499 222.22167056 -62.10149424 223.25784003 -62.10257527 224.32540856 C-62.1199893 241.11172016 -62.15153248 257.89797707 -62.18828037 274.68425621 C-62.22566203 291.90341073 -62.24789917 309.12253657 -62.25602317 326.34173 C-62.2615167 336.97032591 -62.27887907 347.59876725 -62.31133506 358.22731559 C-62.33244868 365.51176287 -62.33887639 372.79613003 -62.3336747 380.0806057 C-62.331108 384.28590844 -62.33509364 388.49094072 -62.35649109 392.6961956 C-62.3759348 396.54553322 -62.37695366 400.39441811 -62.36326477 404.24377643 C-62.36157256 405.63688441 -62.36666555 407.03002047 -62.37920192 408.42307307 C-62.65088912 418.20201168 -62.65088912 418.20201168 -57.87966919 426.26069641 C-53.99097068 429.7700097 -51.11701073 431.39781928 -45.86795044 431.35835266 C-45.11062622 431.35513 -44.353302 431.35190735 -43.57302856 431.34858704 C-42.78734497 431.34020813 -42.00166138 431.33182922 -41.19216919 431.32319641 C-39.99624146 431.31642883 -39.99624146 431.31642883 -38.77615356 431.30952454 C-36.81062662 431.29775491 -34.84513834 431.27981989 -32.87966919 431.26069641 C-32.87706482 430.2689574 -32.87706482 430.2689574 -32.87440783 429.25718325 C-32.77145738 390.10171939 -32.66336172 350.94627277 -32.54855225 311.7908418 C-32.5347821 307.09304931 -32.52105509 302.39525669 -32.50735474 297.69746399 C-32.50462643 296.7621885 -32.50189813 295.826913 -32.49908715 294.86329583 C-32.45497036 279.7045581 -32.41435113 264.5458129 -32.37501658 249.3870621 C-32.33460064 233.84145556 -32.29044439 218.29586292 -32.24279064 202.75027686 C-32.21348669 193.15204785 -32.18712639 183.55381991 -32.16449022 173.95557282 C-32.1487045 167.38038855 -32.12929714 160.80522129 -32.10700078 154.23005589 C-32.09423087 150.43231038 -32.08309704 146.63457799 -32.07625008 142.83681679 C-32.06879696 138.7258988 -32.0537377 134.61504456 -32.03788757 130.50415039 C-32.03690947 129.2950221 -32.03593136 128.08589381 -32.03492361 126.84012526 C-32.02944917 125.7438493 -32.02397473 124.64757334 -32.01833439 123.5180769 C-32.01434733 122.09355608 -32.01434733 122.09355608 -32.01027972 120.64025706 C-31.87966919 118.26069641 -31.87966919 118.26069641 -30.87966919 115.26069641 C-29.5491138 114.58850256 -28.2151415 113.92306785 -26.87966919 113.26069641 C-25.13109142 111.67745198 -23.43726716 110.0331039 -21.77908325 108.35542297 C-21.28416382 107.85758301 -20.78924438 107.35974304 -20.27932739 106.84681702 C-19.20767815 105.76757213 -18.13834524 104.68602332 -17.07108307 103.60243988 C-15.37626534 101.88200494 -13.67520009 100.16797377 -11.97238159 98.45545959 C-7.74144527 94.1978295 -3.52134333 89.92951238 0.69894409 85.66133118 C4.26251757 82.05809872 7.83028722 78.45911964 11.4036026 74.86554718 C13.06937708 73.18692267 14.72894616 71.5023305 16.38833618 69.81739807 C17.42597716 68.77248085 18.46390629 67.72784967 19.50216675 66.68354797 C20.39611145 65.77912964 21.29005615 64.8747113 22.21109009 63.94288635 C23.17113953 63.05776367 24.13118896 62.17264099 25.12033081 61.26069641 C25.60586929 60.71830511 26.09140778 60.17591381 26.59165955 59.61708641 C33.41479451 53.04532041 43.01401569 54.42472627 51.83712769 54.48774719 C53.74962611 54.47957106 55.66211482 54.46876558 57.57458496 54.45553589 C62.75183385 54.42714272 67.92844552 54.43543784 73.10572624 54.45040369 C78.52167243 54.45979257 83.93746405 54.43532482 89.35336304 54.41447449 C99.60253661 54.38014769 109.85148701 54.37619483 120.10070658 54.38319957 C131.77183814 54.38969385 143.44281315 54.36225868 155.11389828 54.33199716 C179.11605842 54.27052175 203.11810099 54.25157811 227.12033081 54.26069641 C227.24500117 50.27738241 227.33516394 46.29484135 227.39498901 42.31001282 C227.43215908 40.29707389 227.49573051 38.28467805 227.55978394 36.27241516 C227.64256756 29.68283867 227.65568346 24.43518325 223.88668823 18.87397766 C218.21920446 13.6976497 213.49405428 12.67431585 206.07835388 12.77967834 C205.1903256 12.77626065 204.30229731 12.77284295 203.38735908 12.76932168 C200.42374946 12.76275426 197.46105369 12.78470013 194.49752808 12.80659485 C192.36844402 12.80772357 190.23935842 12.80708898 188.11027527 12.80482483 C182.33800989 12.80367773 176.56607735 12.82718672 170.79388928 12.85512066 C164.75875364 12.8801348 158.72361027 12.88247633 152.68843079 12.88722229 C141.26339931 12.89965199 129.83852103 12.93247367 118.41355699 12.97262025 C105.40519944 13.01733801 92.39683456 13.03932504 79.38841927 13.05940199 C52.63230487 13.10120618 25.87632643 13.17155827 -0.87966919 13.26069641 Z M-17.48687744 24.6206665 C-18.43951981 25.5754464 -18.43951981 25.5754464 -19.41140747 26.54951477 C-20.49230148 27.62579384 -20.49230148 27.62579384 -21.59503174 28.72381592 C-22.37216522 29.50813492 -23.14929871 30.29245392 -23.94998169 31.10054016 C-24.74620941 31.8972261 -25.54243713 32.69391205 -26.36279297 33.51473999 C-28.04803331 35.20300677 -29.7308372 36.89370853 -31.41140747 38.58662415 C-33.99536826 41.18882981 -36.58722977 43.78295629 -39.18045044 46.37593079 C-40.81243367 48.01282932 -42.44395975 49.65018378 -44.07498169 51.28804016 C-44.85616364 52.07033493 -45.63734558 52.8526297 -46.44219971 53.65863037 C-47.15649139 54.37930191 -47.87078308 55.09997345 -48.60671997 55.84248352 C-49.24022369 56.47979904 -49.87372742 57.11711456 -50.52642822 57.77374268 C-51.99184779 59.04886841 -51.99184779 59.04886841 -51.87966919 60.26069641 C-47.41399156 60.35987435 -42.94890412 60.43230866 -38.48245239 60.48042297 C-36.96443509 60.50048844 -35.4464946 60.52774776 -33.92874146 60.56245422 C-31.74161797 60.61120034 -29.55551967 60.63371446 -27.36795044 60.65132141 C-26.05350952 60.67226868 -24.7390686 60.69321594 -23.38479614 60.71479797 C-19.33216133 60.18976484 -17.73304884 59.12239107 -14.87966919 56.26069641 C-13.39287194 53.28710192 -13.76854314 50.59770462 -13.78201294 47.28413391 C-13.78413536 46.25626266 -13.78413536 46.25626266 -13.78630066 45.20762634 C-13.79190244 43.0169388 -13.80445513 40.82635311 -13.81716919 38.63569641 C-13.82218396 37.15132289 -13.82674691 35.66694776 -13.83084106 34.18257141 C-13.84187242 30.54191326 -13.8591382 26.90131477 -13.87966919 23.26069641 C-15.97610616 23.04538006 -15.97610616 23.04538006 -17.48687744 24.6206665 Z M41.12033081 67.26069641 C41.10574829 68.49110657 41.09116577 69.72151672 41.07614136 70.98921204 C41.0178936 75.58162076 40.94066313 80.17355269 40.85787964 84.76557922 C40.82475441 86.74792201 40.79668437 88.7303563 40.77389526 90.71284485 C40.74012027 93.5729397 40.68779393 96.43220533 40.63204956 99.29194641 C40.62246468 100.60805908 40.62246468 100.60805908 40.61268616 101.95075989 C40.477299 107.69798078 39.40708345 111.97991788 37.12033081 117.26069641 C36.81095581 118.04444641 36.50158081 118.82819641 36.18283081 119.63569641 C34.75780954 121.81514071 33.53495712 122.28179385 31.12033081 123.26069641 C30.13025024 123.76447815 29.14016968 124.26825989 28.12008667 124.78730774 C23.42899714 126.79057162 18.84991371 126.7376608 13.81173706 126.77241516 C12.84501572 126.79036636 11.87829437 126.80831757 10.88227844 126.82681274 C7.81583934 126.88069153 4.74955389 126.9147395 1.68283081 126.94819641 C-0.40508109 126.98138927 -2.49297278 127.01588074 -4.58084106 127.05171204 C-9.68033918 127.13640516 -14.7797935 127.20332321 -19.87966919 127.26069641 C-19.9483082 171.23690848 -20.00118419 215.21311489 -20.03286518 259.18936995 C-20.03661738 264.37899839 -20.04050034 269.56862672 -20.04446411 274.758255 C-20.04525104 275.79143385 -20.04603797 276.8246127 -20.04684875 277.8891 C-20.05990922 294.62689999 -20.0835666 311.36466913 -20.11112758 328.1024508 C-20.13916393 345.27188626 -20.1558417 362.44130554 -20.16193467 379.61076295 C-20.16605479 390.20862003 -20.17907648 400.80638991 -20.20341859 411.40422015 C-20.21925392 418.66763513 -20.22407455 425.93100491 -20.22017332 433.19443591 C-20.21824834 437.38754081 -20.2212374 441.58049312 -20.23728561 445.77357101 C-20.25186844 449.61174333 -20.25263217 453.44966023 -20.24236587 457.28784423 C-20.24109675 458.67691058 -20.24491611 460.06599278 -20.25431874 461.45502789 C-20.26635588 463.34291418 -20.25807714 465.23089728 -20.24881268 467.11879921 C-20.24995184 468.16758676 -20.251091 469.21637431 -20.25226468 470.29694331 C-19.65093069 475.08016134 -17.71054447 479.09030134 -13.87966919 482.07319641 C-10.21261931 484.74708695 -7.80526489 485.38505043 -3.39147568 485.39491749 C-2.00434156 485.40160425 -2.00434156 485.40160425 -0.58918452 485.40842611 C0.42840341 485.40824174 1.44599135 485.40805738 2.49441528 485.40786743 C4.11406382 485.41338246 4.11406382 485.41338246 5.76643252 485.41900891 C9.40295805 485.43006674 13.03945503 485.43389314 16.67599487 485.43769836 C19.27588492 485.44396137 21.87577407 485.45060803 24.47566223 485.45761108 C32.29060018 485.4773724 40.10553942 485.48744103 47.92049611 485.49633887 C51.60053983 485.5007221 55.28058211 485.5060888 58.96062469 485.51132774 C71.19346951 485.52833927 83.42631342 485.54283372 95.65916824 485.55007648 C98.83355968 485.55198638 102.00795112 485.55390671 105.18234253 485.55586243 C106.36581288 485.55658804 106.36581288 485.55658804 107.57319173 485.55732831 C120.35587292 485.56562969 133.13846055 485.59096874 145.92110088 485.6234431 C159.04406556 485.65651035 172.16698268 485.67452492 185.28998923 485.67772073 C192.65838405 485.67988608 200.02664242 485.68863838 207.39499664 485.7141819 C214.32576148 485.73815297 221.25627695 485.74171668 228.18707466 485.73142052 C230.73198576 485.7309238 233.27690875 485.73728407 235.82178307 485.75097656 C239.29425588 485.76861576 242.765839 485.76162763 246.23831177 485.7484436 C247.24697682 485.75941285 248.25564187 485.7703821 249.29487252 485.78168374 C255.44945105 485.72521186 259.09083565 484.8758232 264.12033081 481.26069641 C268.35515637 476.58009975 269.24524281 474.11379744 269.25175858 467.86249924 C269.25381121 467.19508152 269.25586384 466.52766381 269.25797868 465.84002131 C269.26367728 463.58160758 269.26218793 461.32325429 269.26077271 459.06483459 C269.26335471 457.43808778 269.26636741 455.8113416 269.26977611 454.1845963 C269.27786881 449.69707386 269.27963694 445.20956739 269.28037357 440.72203851 C269.28222021 435.88891687 269.28976558 431.05580359 269.29650879 426.22268677 C269.31010898 415.64629449 269.31611952 405.069906 269.32051945 394.49350643 C269.32327915 387.89323025 269.32751602 381.29295554 269.33202362 374.69268036 C269.34421873 356.42928535 269.35451741 338.16589152 269.35789871 319.90249252 C269.35811828 318.73286569 269.35833784 317.56323886 269.35856406 316.3581688 C269.35878234 315.1856933 269.35900062 314.0132178 269.35922551 312.80521274 C269.35966898 310.4292086 269.36011555 308.05320446 269.36056519 305.67720032 C269.36078662 304.49861235 269.36100805 303.32002438 269.36123618 302.10572162 C269.36518494 283.00453213 269.38264024 263.90338077 269.40592471 244.80220601 C269.42962106 225.20543715 269.44209979 205.60868743 269.44326663 186.011904 C269.44418438 175.00336014 269.44996185 163.99486596 269.46808624 152.98633575 C269.48346412 143.61274248 269.48862141 134.23921423 269.48034814 124.86561075 C269.47643335 120.08112499 269.4774115 115.29677025 269.49140549 110.51230049 C269.50409492 106.13388885 269.50299072 101.75570734 269.49081478 97.37729624 C269.48884914 95.79179325 269.49197599 94.20627422 269.50065914 92.62079379 C269.51170618 90.46766799 269.50429631 88.3153609 269.49226761 86.16225815 C269.4928647 84.96570437 269.49346179 83.7691506 269.49407697 82.53633761 C268.93675254 77.65175266 267.30249325 74.38063977 263.74533081 71.01069641 C258.34479275 67.4103377 253.74912614 66.97488327 247.35682678 67.02018738 C246.4745909 67.01847853 245.59235502 67.01676968 244.68338472 67.01500905 C241.72763239 67.0117152 238.77210714 67.02271618 235.81637573 67.03364563 C233.69743861 67.03420977 231.5785011 67.03389314 229.45956421 67.03276062 C223.70587738 67.0321862 217.95227373 67.043955 212.19860625 67.05790854 C206.18613464 67.070401 200.17366118 67.07158522 194.16117859 67.07395935 C182.7750932 67.08017848 171.38904616 67.09659517 160.00297767 67.11665833 C147.04059857 67.13900385 134.07821766 67.15000737 121.1158241 67.1600492 C94.4506384 67.180961 67.78548675 67.21614541 41.12033081 67.26069641 Z M24.46017456 79.85835266 C22.76698139 81.57547789 21.08100226 83.29948039 19.39572144 85.02436829 C16.44046415 88.02071837 13.43938249 90.89321414 10.24923706 93.63960266 C5.66376207 97.59930819 1.39161504 101.84220447 -2.87966919 106.13569641 C-3.65439575 106.90655579 -4.42912231 107.67741516 -5.22732544 108.47163391 C-6.3236731 109.56991516 -6.3236731 109.56991516 -7.44216919 110.69038391 C-8.10345825 111.3528009 -8.76474731 112.0152179 -9.44607544 112.69770813 C-10.99232644 114.03004232 -10.99232644 114.03004232 -10.87966919 115.26069641 C-6.87788577 115.33537799 -2.87637752 115.38954662 1.12594604 115.42549133 C2.48474198 115.4404905 3.84349022 115.46089679 5.20211792 115.48701477 C15.63783359 115.90322523 15.63783359 115.90322523 25.12033081 112.26069641 C27.58438744 109.78681848 28.09730632 108.48377818 28.46090698 104.96089172 C28.44519653 103.68310852 28.42948608 102.40532532 28.41329956 101.08882141 C28.4069323 100.06519501 28.4069323 100.06519501 28.4004364 99.02088928 C28.38370053 96.85041637 28.3460604 94.68088662 28.30783081 92.51069641 C28.29277727 91.03544945 28.27909003 89.56018786 28.26681519 88.08491516 C28.23381458 84.47653797 28.18206848 80.86870931 28.12033081 77.26069641 C26.6198915 77.14425441 26.6198915 77.14425441 24.46017456 79.85835266 Z " fill="#507CE4" transform="translate(106.87966918945313,6.7393035888671875)"/>
<path d="M0 0 C1.05058594 -0.01611328 2.10117187 -0.03222656 3.18359375 -0.04882812 C10.45707183 -0.05337974 16.2175914 0.58077187 22.33203125 4.85546875 C22.86183594 5.39816406 23.39164062 5.94085938 23.9375 6.5 C24.75154297 7.29470703 24.75154297 7.29470703 25.58203125 8.10546875 C30.39032989 14.98316175 30.58034712 21.94064919 30.60688782 30.04612732 C30.62215128 31.21234826 30.63741474 32.37856919 30.65314072 33.58013016 C30.69195784 36.8007772 30.71753265 40.02120235 30.73705971 43.24201405 C30.75626375 46.00978467 30.78646248 48.77739237 30.81674168 51.54506069 C30.91648596 60.66989759 30.98128421 69.79483411 31.03634122 78.92003712 C31.05075562 81.30435406 31.06570236 83.68866719 31.0807569 86.07298017 C31.17380398 100.93867694 31.25371093 115.80441123 31.30401325 130.67031765 C31.31585847 134.11102296 31.32786777 137.55172764 31.34008789 140.99243164 C31.34462552 142.27491688 31.34462552 142.27491688 31.34925481 143.58331091 C31.39998748 157.35225279 31.52298073 171.11954947 31.67615686 184.88769316 C31.83282156 199.08900346 31.9190161 213.28947877 31.94060391 227.49164444 C31.95443697 235.43897822 31.9974973 243.38360818 32.11983681 251.33007622 C32.63217194 285.77179755 31.83762055 315.6480838 14.26978111 346.40698433 C11.50147638 351.30936362 9.40194405 356.44026337 7.30731678 361.65810299 C6.125 364.3125 6.125 364.3125 4.125 366.3125 C1.43660615 366.58241906 -1.16641936 366.39987357 -3.875 366.3125 C-10.02305917 354.39272944 -15.51084971 342.25397754 -20.8125 329.9375 C-21.9601531 327.28332642 -23.1090497 324.62969403 -24.25819397 321.97616577 C-24.96495468 320.34290017 -25.67060018 318.7091514 -26.37498474 317.07485962 C-28.05213527 313.16021367 -28.05213527 313.16021367 -29.875 309.3125 C-29.97207819 307.73244706 -30.00598439 306.14832905 -30.00922108 304.56529999 C-30.01367892 303.55730016 -30.01813676 302.54930034 -30.02272969 301.51075506 C-30.02254533 300.39502694 -30.02236097 299.27929881 -30.02217102 298.12976074 C-30.02584771 296.95087737 -30.0295244 295.77199399 -30.0333125 294.55738688 C-30.04245127 291.2747413 -30.04705166 287.99214577 -30.04970181 284.70949221 C-30.05360071 281.17282615 -30.06317955 277.63617462 -30.07191467 274.09951782 C-30.09169431 265.55147331 -30.10174872 257.00342758 -30.11064246 248.4553659 C-30.11502427 244.43002606 -30.12039149 240.40468755 -30.12563133 236.37934875 C-30.14264767 222.9970502 -30.1571406 209.61475248 -30.16438007 196.23244476 C-30.16628999 192.75815327 -30.16821031 189.28386178 -30.17016602 185.80957031 C-30.17064976 184.94604614 -30.1711335 184.08252196 -30.1716319 183.19283038 C-30.17992744 169.21257543 -30.20525448 155.23240618 -30.23774669 141.25218862 C-30.27083437 126.89865778 -30.28883051 112.54517045 -30.29202431 98.19160128 C-30.2941882 90.13284273 -30.30291857 82.07420903 -30.32848549 74.01548767 C-30.35021613 67.15003287 -30.35823146 60.28473322 -30.34851871 53.41924793 C-30.34398034 49.91821319 -30.34583254 46.41749838 -30.36528015 42.91650772 C-30.3829694 39.11443864 -30.37590602 35.31317808 -30.36274719 31.5111084 C-30.37371644 30.41322605 -30.38468568 29.31534369 -30.39598733 28.18419218 C-30.33001239 20.27369854 -28.95452384 13.20242485 -23.9453125 6.875 C-23.30335938 6.359375 -22.66140625 5.84375 -22 5.3125 C-21.36320312 4.77625 -20.72640625 4.24 -20.0703125 3.6875 C-13.71509955 -0.29298925 -7.26588962 -0.02212512 0 0 Z M-15.875 17.3125 C-17.96731398 21.49712795 -16.875 26.63394372 -16.875 31.3125 C-5.655 31.3125 5.565 31.3125 17.125 31.3125 C18.13904025 20.42002209 18.13904025 20.42002209 15.25 16.125 C10.73015247 12.26983593 6.02169404 13.05465087 0.3125 13 C-0.68587891 12.97099609 -1.68425781 12.94199219 -2.71289062 12.91210938 C-8.32949007 12.86346461 -11.91838823 12.84161165 -15.875 17.3125 Z M-16.875 44.3125 C-16.875 51.9025 -16.875 59.4925 -16.875 67.3125 C-5.655 67.3125 5.565 67.3125 17.125 67.3125 C17.125 59.7225 17.125 52.1325 17.125 44.3125 C5.905 44.3125 -5.315 44.3125 -16.875 44.3125 Z M-16.875 79.3125 C-16.875 150.2625 -16.875 221.2125 -16.875 294.3125 C-12.585 294.9725 -8.295 295.6325 -3.875 296.3125 C-2.555 296.6425 -1.235 296.9725 0.125 297.3125 C2.105 296.3225 2.105 296.3225 4.125 295.3125 C8.415 294.9825 12.705 294.6525 17.125 294.3125 C17.125 223.3625 17.125 152.4125 17.125 79.3125 C5.905 79.3125 -5.315 79.3125 -16.875 79.3125 Z M-14.875 306.3125 C-15.205 306.9725 -15.535 307.6325 -15.875 308.3125 C-15.05926085 310.57084144 -14.18144943 312.70912866 -13.19921875 314.89453125 C-12.91399857 315.54572433 -12.62877838 316.19691742 -12.33491516 316.86784363 C-11.41809315 318.956873 -10.49058411 321.0409529 -9.5625 323.125 C-8.64755455 325.19934196 -7.73477892 327.27462867 -6.82221985 329.35002136 C-6.2531629 330.6419745 -5.68227706 331.9331241 -5.10929871 333.2233429 C-3.62887418 336.56138189 -2.20612538 339.91207606 -0.875 343.3125 C-0.215 343.3125 0.445 343.3125 1.125 343.3125 C3.28954424 338.51142325 5.44383501 333.70593112 7.58862305 328.89599609 C8.32017292 327.25931375 9.05454212 325.6238886 9.79174805 323.98974609 C10.84902316 321.64482791 11.89617927 319.29562108 12.94140625 316.9453125 C13.27467422 316.21192657 13.6079422 315.47854065 13.9513092 314.72293091 C14.73612907 312.94484785 15.43881427 311.13092534 16.125 309.3125 C15.26473014 307.01094477 15.26473014 307.01094477 12.4375 306.375 C7.87694027 306.2889517 6.51365936 308.41802013 3.125 311.3125 C-0.16417689 312.02753845 -1.95247897 311.83097112 -4.890625 310.1796875 C-6.26473204 309.28906257 -7.61825277 308.36557028 -8.9453125 307.40625 C-11.08529731 305.98376571 -11.08529731 305.98376571 -14.875 306.3125 Z " fill="#507CE4" transform="translate(449.875,130.6875)"/>
<path d="M0 0 C0.82780975 -0.01283524 1.65561951 -0.02567047 2.5085144 -0.03889465 C3.40434235 -0.04628159 4.30017029 -0.05366852 5.22314453 -0.0612793 C6.14306183 -0.06935104 7.06297913 -0.07742279 8.01077271 -0.08573914 C9.95931105 -0.09958162 11.90787366 -0.11030304 13.85644531 -0.11816406 C16.83721765 -0.13538975 19.81688459 -0.17927542 22.79736328 -0.22338867 C24.6892822 -0.2335144 26.58121055 -0.24203088 28.47314453 -0.2487793 C29.36492401 -0.26628738 30.25670349 -0.28379547 31.17550659 -0.30183411 C32.4266777 -0.29744576 32.4266777 -0.29744576 33.703125 -0.29296875 C34.79994095 -0.30176811 34.79994095 -0.30176811 35.91891479 -0.31074524 C38.89735528 0.39376312 40.04499768 1.84608044 41.98095703 4.17700195 C42.47314835 6.57451248 42.47314835 6.57451248 42.4619751 9.28961182 C42.46747375 10.32163727 42.47297241 11.35366272 42.4786377 12.41696167 C42.45706604 14.10657516 42.45706604 14.10657516 42.43505859 15.83032227 C42.4356427 17.02084198 42.43622681 18.21136169 42.43682861 19.43795776 C42.43452029 22.69822247 42.41446873 25.95779932 42.38653278 29.21792698 C42.36151758 32.62651642 42.35917706 36.03511956 42.35443115 39.44378662 C42.34200164 45.89657288 42.30918066 52.34908787 42.26903319 58.80175471 C42.22431448 66.14870681 42.20232824 73.4956719 42.18225145 80.84272623 C42.14044779 95.95430258 42.0700965 111.06562513 41.98095703 126.17700195 C42.63169189 126.1612915 43.28242676 126.14558105 43.95288086 126.12939453 C46.89965127 126.06705546 49.84628301 126.02801512 52.79345703 125.98950195 C53.81761719 125.96436523 54.84177734 125.93922852 55.89697266 125.91333008 C56.87988281 125.90366211 57.86279297 125.89399414 58.87548828 125.8840332 C59.78145752 125.86832275 60.68742676 125.8526123 61.62084961 125.83642578 C63.98095703 126.17700195 63.98095703 126.17700195 65.77661133 127.5078125 C67.64388663 130.09580383 67.36763621 132.08356852 66.98095703 135.17700195 C65.46988684 137.15136575 64.57875676 138.05634525 62.11781073 138.55304945 C61.41277741 138.5535365 60.70774409 138.55402356 59.98134613 138.55452538 C59.16559191 138.56234862 58.34983769 138.57017186 57.50936365 138.57823217 C56.61355758 138.57154 55.71775151 138.56484784 54.7947998 138.55795288 C53.84288553 138.56263285 52.89097125 138.56731282 51.91021109 138.57213461 C48.70643964 138.58414274 45.50309136 138.57460461 42.29931641 138.56518555 C40.00820159 138.56924866 37.71708874 138.57458907 35.42597961 138.58111572 C29.19263494 138.59482605 22.95943875 138.58947531 16.72609138 138.57997847 C10.21318273 138.57240111 3.70028707 138.57942211 -2.81262207 138.58413696 C-14.45275293 138.58995041 -26.09281581 138.58060753 -37.73293597 138.56535895 C-48.29171745 138.55195527 -58.85039999 138.55428321 -69.40917969 138.56811523 C-81.66417651 138.58416173 -93.91910284 138.59015014 -106.17410994 138.58127844 C-112.66373032 138.57659313 -119.15328251 138.57600063 -125.64289856 138.58588791 C-131.74302288 138.59453202 -137.84295974 138.58858244 -143.94306374 138.57120514 C-146.18648275 138.56722661 -148.42991746 138.56839753 -150.67333031 138.57499313 C-153.72673097 138.58314476 -156.77952419 138.57296437 -159.83288574 138.55795288 C-160.72869181 138.56464505 -161.62449788 138.57133721 -162.54744959 138.57823217 C-163.36320381 138.57040893 -164.17895802 138.56258569 -165.01943207 138.55452538 C-165.72446538 138.55403832 -166.4294987 138.55355126 -167.15589666 138.55304945 C-169.61699772 138.05631396 -170.51068956 137.15387994 -172.01904297 135.17700195 C-172.44382883 131.0990577 -172.33186884 129.64624076 -170.01904297 126.17700195 C-167.58886719 125.83642578 -167.58886719 125.83642578 -164.57373047 125.8840332 C-163.49736328 125.89370117 -162.42099609 125.90336914 -161.31201172 125.91333008 C-160.18408203 125.9384668 -159.05615234 125.96360352 -157.89404297 125.98950195 C-156.75837891 126.00303711 -155.62271484 126.01657227 -154.45263672 126.03051758 C-151.6409691 126.06595877 -148.8302388 126.11536678 -146.01904297 126.17700195 C-146.03014603 125.53220383 -146.04124908 124.8874057 -146.0526886 124.22306824 C-146.16313812 117.52385279 -146.23865043 110.82489506 -146.29370117 104.125 C-146.31887606 101.62326557 -146.35301834 99.1216049 -146.39624023 96.62011719 C-146.45675788 93.02821682 -146.48522351 89.43728705 -146.50732422 85.8449707 C-146.53313065 84.72301804 -146.55893707 83.60106537 -146.58552551 82.44511414 C-146.58590317 81.40426163 -146.58628082 80.36340912 -146.58666992 79.29101562 C-146.59777298 78.37390305 -146.60887604 77.45679047 -146.62031555 76.5118866 C-146.01904297 74.17700195 -146.01904297 74.17700195 -143.74456787 72.38163757 C-141.16752662 71.2426292 -139.61741944 70.79845121 -136.84301758 70.78881836 C-136.05547592 70.77936188 -135.26793427 70.7699054 -134.45652771 70.76016235 C-133.20163292 70.76927139 -133.20163292 70.76927139 -131.92138672 70.77856445 C-130.61446617 70.77425919 -130.61446617 70.77425919 -129.28114319 70.76986694 C-127.44466499 70.76783081 -125.60816489 70.77332909 -123.77172852 70.78588867 C-120.96239778 70.80196844 -118.15450141 70.78601501 -115.34521484 70.7668457 C-113.5581023 70.76882784 -111.77099064 70.77267089 -109.98388672 70.77856445 C-109.14526596 70.77249176 -108.3066452 70.76641907 -107.44261169 70.76016235 C-106.26602745 70.77434708 -106.26602745 70.77434708 -105.06567383 70.78881836 C-104.03572548 70.79239853 -104.03572548 70.79239853 -102.98497009 70.79605103 C-100.28246463 71.31973369 -98.95170505 72.22268074 -97.01904297 74.17700195 C-96.5380249 76.5118866 -96.5380249 76.5118866 -96.56494141 79.29101562 C-96.56524353 80.33186813 -96.56554565 81.37272064 -96.56585693 82.44511414 C-96.58650208 83.5670668 -96.60714722 84.68901947 -96.62841797 85.8449707 C-96.63407776 86.9949202 -96.63973755 88.14486969 -96.64556885 89.32966614 C-96.66798823 93.00836535 -96.71819717 96.68609632 -96.76904297 100.36450195 C-96.78910067 102.85602436 -96.8073527 105.34756201 -96.82373047 107.83911133 C-96.86787162 113.95211553 -96.93693944 120.06439449 -97.01904297 126.17700195 C-90.41904297 126.17700195 -83.81904297 126.17700195 -77.01904297 126.17700195 C-77.03475342 123.678396 -77.05046387 121.17979004 -77.06665039 118.60546875 C-77.11631176 110.35930793 -77.14947812 102.11314057 -77.17447948 93.86686993 C-77.19014981 88.86608166 -77.211413 83.86544633 -77.24536133 78.86474609 C-77.27790606 74.04072881 -77.29588568 69.21685882 -77.3036747 64.39274025 C-77.309227 62.55028781 -77.32006904 60.70784362 -77.33623314 58.86545372 C-77.35794262 56.28903011 -77.36101264 53.71321878 -77.35961914 51.13671875 C-77.37040497 50.37139328 -77.3811908 49.60606781 -77.39230347 48.81755066 C-77.36235643 43.71624315 -77.36235643 43.71624315 -75.76277161 41.20378113 C-73.61388444 39.93842794 -72.26933194 39.79676341 -69.77880859 39.78881836 C-68.92782593 39.77936188 -68.07684326 39.7699054 -67.20007324 39.76016235 C-66.28439575 39.76623505 -65.36871826 39.77230774 -64.42529297 39.77856445 C-63.4822229 39.77569427 -62.53915283 39.7728241 -61.56750488 39.76986694 C-59.57364298 39.76782549 -57.57976109 39.77336102 -55.5859375 39.78588867 C-52.53063253 39.80194106 -49.47665045 39.78604262 -46.42138672 39.7668457 C-44.48518588 39.76882812 -42.54898586 39.77267176 -40.61279297 39.77856445 C-39.23927673 39.76945541 -39.23927673 39.76945541 -37.8380127 39.76016235 C-36.5615387 39.77434708 -36.5615387 39.77434708 -35.25927734 39.78881836 C-34.13700745 39.79239853 -34.13700745 39.79239853 -32.99206543 39.79605103 C-31.01904297 40.17700195 -31.01904297 40.17700195 -29.27531433 41.20378113 C-27.29329178 44.31693669 -27.62811605 47.56400189 -27.6784668 51.13671875 C-27.67802872 51.94670319 -27.67759064 52.75668762 -27.67713928 53.59121704 C-27.67923013 56.26979639 -27.70257483 58.94775063 -27.72607422 61.6262207 C-27.73166913 63.48281004 -27.73593972 65.3394038 -27.73893738 67.19599915 C-27.75039443 72.08367124 -27.77986903 76.9710761 -27.81304932 81.85864258 C-27.84373165 86.84558497 -27.85743879 91.83257052 -27.87255859 96.81958008 C-27.90473795 106.60552371 -27.95751291 116.3911988 -28.01904297 126.17700195 C-21.41904297 126.17700195 -14.81904297 126.17700195 -8.01904297 126.17700195 C-8.02348419 124.66998718 -8.02792542 123.16297241 -8.03250122 121.61029053 C-8.07300129 107.4251769 -8.1031253 93.24008368 -8.12266731 79.05492783 C-8.13298161 71.76177397 -8.14704486 64.46866327 -8.16992188 57.17553711 C-8.18985107 50.81913895 -8.20275829 44.46277204 -8.20721996 38.10634351 C-8.20982814 34.74039927 -8.21596165 31.37454444 -8.23050308 28.00862885 C-8.24496861 24.25187321 -8.24702296 20.49530428 -8.24609375 16.73852539 C-8.2532843 15.62146713 -8.26047485 14.50440887 -8.2678833 13.35350037 C-8.26513397 12.32988907 -8.26238464 11.30627777 -8.259552 10.25164795 C-8.26139559 9.36303951 -8.26323917 8.47443108 -8.26513863 7.55889511 C-7.99775884 4.97099865 -7.41049823 3.36495209 -6.01904297 1.17700195 C-3.76587738 0.05041916 -2.5010223 0.03374442 0 0 Z M4.98095703 13.17700195 C4.98095703 50.46700195 4.98095703 87.75700195 4.98095703 126.17700195 C12.90095703 126.17700195 20.82095703 126.17700195 28.98095703 126.17700195 C28.98095703 88.88700195 28.98095703 51.59700195 28.98095703 13.17700195 C21.06095703 13.17700195 13.14095703 13.17700195 4.98095703 13.17700195 Z M-65.01904297 52.17700195 C-65.01904297 76.59700195 -65.01904297 101.01700195 -65.01904297 126.17700195 C-56.76904297 126.17700195 -48.51904297 126.17700195 -40.01904297 126.17700195 C-40.01904297 101.75700195 -40.01904297 77.33700195 -40.01904297 52.17700195 C-48.26904297 52.17700195 -56.51904297 52.17700195 -65.01904297 52.17700195 Z M-134.01904297 84.17700195 C-134.01904297 98.03700195 -134.01904297 111.89700195 -134.01904297 126.17700195 C-125.76904297 126.17700195 -117.51904297 126.17700195 -109.01904297 126.17700195 C-109.01904297 112.31700195 -109.01904297 98.45700195 -109.01904297 84.17700195 C-117.26904297 84.17700195 -125.51904297 84.17700195 -134.01904297 84.17700195 Z " fill="#507CE4" transform="translate(284.01904296875,94.822998046875)"/>
<path d="M0 0 C0.93558007 -0.00467997 1.87116014 -0.00935994 2.83509111 -0.01418173 C5.9835869 -0.02618894 9.13165202 -0.0166521 12.28015137 -0.00723267 C14.53185786 -0.01129582 16.78356236 -0.01663625 19.03526306 -0.02316284 C25.161174 -0.03687268 31.28693384 -0.03152263 37.41284752 -0.02202559 C43.81364738 -0.01444798 50.21443402 -0.0214693 56.61523438 -0.02618408 C68.05497462 -0.03199745 79.49463093 -0.02265485 90.93435699 -0.00740607 C101.31121193 0.0059976 111.68796621 0.00366965 122.06481934 -0.01016235 C134.10886573 -0.0262091 146.15283605 -0.03219713 158.19689703 -0.02332556 C164.57473513 -0.01864036 170.95250384 -0.01804743 177.33033752 -0.02793503 C183.32540375 -0.03657944 189.32027923 -0.030629 195.31532478 -0.01325226 C197.52004237 -0.0092739 199.72477592 -0.01044437 201.92948723 -0.01704025 C204.9303429 -0.02519254 207.93058059 -0.01501072 210.93139648 0 C211.81163876 -0.00669217 212.69188104 -0.01338433 213.59879732 -0.02027929 C219.54563924 0.03774314 219.54563924 0.03774314 221.68817437 1.7882942 C223.28903348 3.7840448 223.34255581 4.82814906 223.34664917 7.36605835 C223.35510864 8.17360565 223.36356812 8.98115295 223.37228394 9.81317139 C223.3631749 11.13642929 223.3631749 11.13642929 223.35388184 12.48641968 C223.36176727 13.88436264 223.36176727 13.88436264 223.36981201 15.31054688 C223.38303519 18.39668448 223.37426563 21.48230791 223.36413574 24.56845093 C223.36615581 26.70932108 223.36906668 28.85019056 223.37283325 30.99105835 C223.37725975 35.4801386 223.37081497 39.9690399 223.35681152 44.45809937 C223.33971957 50.21869653 223.349559 55.97887441 223.36752892 61.73945618 C223.37835788 66.16089042 223.37492447 70.5822249 223.36714554 75.00366211 C223.36514108 77.12799122 223.36761138 79.25232933 223.3745842 81.37664795 C223.38218399 84.34317091 223.37061494 87.30901027 223.35388184 90.27548218 C223.35995453 91.15765411 223.36602722 92.03982605 223.37228394 92.94873047 C223.35959473 94.16005142 223.35959473 94.16005142 223.34664917 95.39584351 C223.34551809 96.09711868 223.34438702 96.79839386 223.34322166 97.5209198 C222.84064434 99.99708266 221.90691407 100.79488713 219.96569824 102.38095093 C216.88728782 102.67613261 214.01114512 102.78531608 210.93139648 102.76190186 C209.99581642 102.76658183 209.06023635 102.7712618 208.09630537 102.77608359 C204.94780958 102.7880908 201.79974447 102.77855395 198.65124512 102.76913452 C196.39953862 102.77319767 194.14783412 102.77853811 191.89613342 102.7850647 C185.77022249 102.79877454 179.64446264 102.79342449 173.51854897 102.78392744 C167.1177491 102.77634983 160.71696246 102.78337116 154.31616211 102.78808594 C142.87642187 102.7938993 131.43676555 102.78455671 119.9970395 102.76930793 C109.62018455 102.75590426 99.24343028 102.7582322 88.86657715 102.77206421 C76.82253075 102.78811096 64.77856043 102.79409898 52.73449945 102.78522742 C46.35666136 102.78054222 39.97889264 102.77994928 33.60105896 102.78983688 C27.60599273 102.7984813 21.61111725 102.79253085 15.6160717 102.77515411 C13.41135411 102.77117575 11.20662057 102.77234623 9.00190926 102.77894211 C6.00105359 102.7870944 3.00081589 102.77691258 0 102.76190186 C-0.88024228 102.76859402 -1.76048455 102.77528619 -2.66740084 102.78218114 C-8.61424275 102.72415871 -8.61424275 102.72415871 -10.75677788 100.97360766 C-12.35763699 98.97785706 -12.41115933 97.93375279 -12.41525269 95.39584351 C-12.42371216 94.5882962 -12.43217163 93.7807489 -12.44088745 92.94873047 C-12.43481476 92.06655853 -12.42874207 91.1843866 -12.42248535 90.27548218 C-12.42774231 89.3435202 -12.43299927 88.41155823 -12.43841553 87.45135498 C-12.45163871 84.36521738 -12.44286915 81.27959394 -12.43273926 78.19345093 C-12.43475932 76.05258078 -12.4376702 73.9117113 -12.44143677 71.77084351 C-12.44586327 67.28176326 -12.43941849 62.79286196 -12.42541504 58.30380249 C-12.40832309 52.54320533 -12.41816251 46.78302745 -12.43613243 41.02244568 C-12.4469614 36.60101143 -12.44352798 32.17967696 -12.43574905 27.75823975 C-12.4337446 25.63391063 -12.4362149 23.50957252 -12.44318771 21.38525391 C-12.45078751 18.41873095 -12.43921846 15.45289158 -12.42248535 12.48641968 C-12.42855804 11.60424774 -12.43463074 10.72207581 -12.44088745 9.81317139 C-12.43242798 9.00562408 -12.42396851 8.19807678 -12.41525269 7.36605835 C-12.41355607 6.31414558 -12.41355607 6.31414558 -12.41182518 5.24098206 C-11.15067495 -0.97261567 -5.08826711 -0.03868426 0 0 Z M0.96569824 12.38095093 C0.96569824 38.12095093 0.96569824 63.86095093 0.96569824 90.38095093 C69.93569824 90.38095093 138.90569824 90.38095093 209.96569824 90.38095093 C209.96569824 64.64095093 209.96569824 38.90095093 209.96569824 12.38095093 C140.99569824 12.38095093 72.02569824 12.38095093 0.96569824 12.38095093 Z " fill="#517DE5" transform="translate(126.0343017578125,312.6190490722656)"/>
<path d="M0 0 C0.92741296 -0.00467997 1.85482593 -0.00935994 2.81034231 -0.01418173 C5.9312003 -0.02618847 9.05162377 -0.01665229 12.17248535 -0.00723267 C14.40448768 -0.01129584 16.63648801 -0.01663628 18.8684845 -0.02316284 C24.94067858 -0.03687243 31.01272023 -0.03152274 37.08491707 -0.02202559 C43.42966254 -0.01444785 49.77439466 -0.02146934 56.11914062 -0.02618408 C67.45868067 -0.0319974 78.79814307 -0.02265495 90.1376676 -0.00740607 C100.42355928 0.00599759 110.70934941 0.00366964 120.99523926 -0.01016235 C132.93380546 -0.02620923 144.87230993 -0.03219705 156.81089067 -0.02332556 C163.13283764 -0.01864042 169.4547146 -0.01804726 175.7766571 -0.02793503 C181.7191943 -0.0365796 187.66153907 -0.03062871 193.6040554 -0.01325226 C195.78942228 -0.00927398 197.97480525 -0.01044423 200.16016579 -0.01704025 C203.13474901 -0.02519288 206.10870886 -0.01501033 209.08325195 0 C210.39194252 -0.01003825 210.39194252 -0.01003825 211.72707129 -0.02027929 C217.58964789 0.03742233 217.58964789 0.03742233 219.75840139 1.68579614 C221.90786042 4.52525682 221.4684153 6.96663638 221.04162598 10.38095093 C219.2952903 12.40125277 217.8538081 13.26193719 215.19829655 13.65106463 C212.80893502 13.77034377 210.43797399 13.78049448 208.0456543 13.76190186 C206.66656222 13.76892181 206.66656222 13.76892181 205.2596097 13.77608359 C202.17182876 13.78807144 199.08448852 13.77856146 195.9967041 13.76913452 C193.78588094 13.77319853 191.57505982 13.77853945 189.36424255 13.7850647 C183.35402147 13.79876432 177.34395454 13.79342868 171.3337307 13.78392744 C165.05085197 13.77634457 158.76798665 13.78337263 152.48510742 13.78808594 C141.25677945 13.79389755 130.02851517 13.7845608 118.80020219 13.76930793 C108.61810942 13.75590452 98.43611924 13.75823256 88.25402832 13.77206421 C76.43191116 13.78811619 64.6098437 13.79409618 52.78771353 13.78522742 C46.52890655 13.78054464 40.27017027 13.77994268 34.0113678 13.78983688 C28.12790944 13.79848765 22.24464529 13.79251914 16.36120796 13.77515411 C14.19883611 13.77117917 12.03644799 13.77234045 9.87408257 13.77894211 C6.92836512 13.78710779 3.98327485 13.77689616 1.03759766 13.76190186 C-0.25402763 13.7719401 -0.25402763 13.7719401 -1.57174635 13.78218114 C-5.05000421 13.74770429 -7.36696785 13.68542796 -10.4932785 12.07589149 C-11.95837402 10.38095093 -11.95837402 10.38095093 -12.39587402 6.88095093 C-11.95837402 3.38095093 -11.95837402 3.38095093 -10.67514944 1.68579614 C-7.60891254 -0.64471518 -3.70443677 -0.0284147 0 0 Z " fill="#507CE4" transform="translate(126.9583740234375,281.6190490722656)"/>
<path d="M0 0 C1.37909208 -0.00701996 1.37909208 -0.00701996 2.7860446 -0.01418173 C5.87382554 -0.02616959 8.96116577 -0.0166596 12.0489502 -0.00723267 C14.25977335 -0.01129668 16.47059448 -0.01663759 18.68141174 -0.02316284 C24.69163282 -0.03686246 30.70169975 -0.03152682 36.7119236 -0.02202559 C42.99480232 -0.01444272 49.27766764 -0.02147077 55.56054688 -0.02618408 C66.78887484 -0.0319957 78.01713912 -0.02265894 89.24545211 -0.00740607 C99.42754488 0.00599733 109.60953505 0.0036693 119.79162598 -0.01016235 C131.61374314 -0.02621433 143.4358106 -0.03219432 155.25794077 -0.02332556 C161.51674775 -0.01864278 167.77548403 -0.01804083 174.0342865 -0.02793503 C179.91774486 -0.03658579 185.80100901 -0.03061728 191.68444633 -0.01325226 C193.84681818 -0.00927731 196.00920631 -0.0104386 198.17157173 -0.01704025 C201.11728918 -0.02520593 204.06237944 -0.01499431 207.00805664 0 C207.86914016 -0.00669217 208.73022368 -0.01338433 209.61740065 -0.02027929 C213.09435016 0.0141846 215.41089401 0.07511289 218.53502655 1.68601036 C220.00402832 3.38095093 220.00402832 3.38095093 220.50402832 6.88095093 C220.00402832 10.38095093 220.00402832 10.38095093 218.53502655 12.07589149 C214.73707886 14.03422849 211.22327419 13.79466166 207.00805664 13.76190186 C205.62896456 13.76892181 205.62896456 13.76892181 204.22201204 13.77608359 C201.1342311 13.78807144 198.04689087 13.77856146 194.95910645 13.76913452 C192.74828329 13.77319853 190.53746216 13.77853945 188.3266449 13.7850647 C182.31642382 13.79876432 176.30635689 13.79342868 170.29613304 13.78392744 C164.01325432 13.77634457 157.730389 13.78337263 151.44750977 13.78808594 C140.2191818 13.79389755 128.99091752 13.7845608 117.76260453 13.76930793 C107.58051176 13.75590452 97.39852159 13.75823256 87.21643066 13.77206421 C75.3943135 13.78811619 63.57224605 13.79409618 51.75011587 13.78522742 C45.49130889 13.78054464 39.23257261 13.77994268 32.97377014 13.78983688 C27.09031178 13.79848765 21.20704763 13.79251914 15.32361031 13.77515411 C13.16123846 13.77117917 10.99885033 13.77234045 8.83648491 13.77894211 C5.89076746 13.78710779 2.9456772 13.77689616 0 13.76190186 C-1.29162528 13.7719401 -1.29162528 13.7719401 -2.60934401 13.78218114 C-6.08629351 13.74771725 -8.40283736 13.68678897 -11.52696991 12.07589149 C-12.99597168 10.38095093 -12.99597168 10.38095093 -13.49597168 6.88095093 C-12.99597168 3.38095093 -12.99597168 3.38095093 -11.52696991 1.68601036 C-7.72902222 -0.27232663 -4.21521755 -0.03275981 0 0 Z " fill="#517DE5" transform="translate(127.9959716796875,250.61904907226563)"/>
<path d="M0 0 C0.92741296 -0.00467997 1.85482593 -0.00935994 2.81034231 -0.01418173 C5.9312003 -0.02618847 9.05162377 -0.01665229 12.17248535 -0.00723267 C14.40448768 -0.01129584 16.63648801 -0.01663628 18.8684845 -0.02316284 C24.94067858 -0.03687243 31.01272023 -0.03152274 37.08491707 -0.02202559 C43.42966254 -0.01444785 49.77439466 -0.02146934 56.11914062 -0.02618408 C67.45868067 -0.0319974 78.79814307 -0.02265495 90.1376676 -0.00740607 C100.42355928 0.00599759 110.70934941 0.00366964 120.99523926 -0.01016235 C132.93380546 -0.02620923 144.87230993 -0.03219705 156.81089067 -0.02332556 C163.13283764 -0.01864042 169.4547146 -0.01804726 175.7766571 -0.02793503 C181.7191943 -0.0365796 187.66153907 -0.03062871 193.6040554 -0.01325226 C195.78942228 -0.00927398 197.97480525 -0.01044423 200.16016579 -0.01704025 C203.13474901 -0.02519288 206.10870886 -0.01501033 209.08325195 0 C210.39194252 -0.01003825 210.39194252 -0.01003825 211.72707129 -0.02027929 C217.58618256 0.03738823 217.58618256 0.03738823 219.76621389 1.68188989 C221.85220958 4.46078311 221.34539921 7.0394454 221.04162598 10.38095093 C218.383869 13.03870791 216.41441926 12.62488157 212.79914427 12.64843774 C211.91530703 12.64397629 211.03146979 12.63951485 210.12084961 12.63491821 C209.1854184 12.63803819 208.24998719 12.64115818 207.28620958 12.6443727 C204.13235315 12.65238936 200.97868718 12.64601481 197.8248291 12.63973999 C195.57164903 12.64244822 193.31846985 12.64600821 191.06529236 12.65036011 C184.93115267 12.65950631 178.79707998 12.65593068 172.66293907 12.64960194 C166.25632923 12.64455346 159.84972529 12.64923017 153.44311523 12.65237427 C141.99238448 12.65625092 130.54169098 12.65001889 119.09096652 12.63985559 C108.70129487 12.63091966 98.31166791 12.63247158 87.92199707 12.64169312 C75.86699195 12.65238769 63.81202062 12.65638469 51.75700903 12.65046859 C45.37193573 12.64734362 38.98689324 12.64695393 32.6018219 12.65354156 C26.600245 12.65930054 20.59875284 12.65534478 14.59718513 12.64375305 C12.38882145 12.64109869 10.18045068 12.64188469 7.97208977 12.64627838 C4.9687629 12.65170474 1.96571143 12.64493527 -1.03759766 12.63491821 C-2.36335351 12.64161038 -2.36335351 12.64161038 -3.71589231 12.64843774 C-9.73007402 12.60925093 -9.73007402 12.60925093 -11.95837402 10.38095093 C-12.5259953 4.13711688 -12.5259953 4.13711688 -10.68296194 1.68188989 C-7.6064605 -0.63886196 -3.70799284 -0.02844198 0 0 Z " fill="#507CE4" transform="translate(126.9583740234375,462.6190490722656)"/>
<path d="M0 0 C0.92741296 -0.00467997 1.85482593 -0.00935994 2.81034231 -0.01418173 C5.9312003 -0.02618847 9.05162377 -0.01665229 12.17248535 -0.00723267 C14.40448768 -0.01129584 16.63648801 -0.01663628 18.8684845 -0.02316284 C24.94067858 -0.03687243 31.01272023 -0.03152274 37.08491707 -0.02202559 C43.42966254 -0.01444785 49.77439466 -0.02146934 56.11914062 -0.02618408 C67.45868067 -0.0319974 78.79814307 -0.02265495 90.1376676 -0.00740607 C100.42355928 0.00599759 110.70934941 0.00366964 120.99523926 -0.01016235 C132.93380546 -0.02620923 144.87230993 -0.03219705 156.81089067 -0.02332556 C163.13283764 -0.01864042 169.4547146 -0.01804726 175.7766571 -0.02793503 C181.7191943 -0.0365796 187.66153907 -0.03062871 193.6040554 -0.01325226 C195.78942228 -0.00927398 197.97480525 -0.01044423 200.16016579 -0.01704025 C203.13474901 -0.02519288 206.10870886 -0.01501033 209.08325195 0 C210.39194252 -0.01003825 210.39194252 -0.01003825 211.72707129 -0.02027929 C217.58618256 0.03738823 217.58618256 0.03738823 219.76621389 1.68188989 C221.85220958 4.46078311 221.34539921 7.0394454 221.04162598 10.38095093 C218.383869 13.03870791 216.41441926 12.62488157 212.79914427 12.64843774 C211.91530703 12.64397629 211.03146979 12.63951485 210.12084961 12.63491821 C209.1854184 12.63803819 208.24998719 12.64115818 207.28620958 12.6443727 C204.13235315 12.65238936 200.97868718 12.64601481 197.8248291 12.63973999 C195.57164903 12.64244822 193.31846985 12.64600821 191.06529236 12.65036011 C184.93115267 12.65950631 178.79707998 12.65593068 172.66293907 12.64960194 C166.25632923 12.64455346 159.84972529 12.64923017 153.44311523 12.65237427 C141.99238448 12.65625092 130.54169098 12.65001889 119.09096652 12.63985559 C108.70129487 12.63091966 98.31166791 12.63247158 87.92199707 12.64169312 C75.86699195 12.65238769 63.81202062 12.65638469 51.75700903 12.65046859 C45.37193573 12.64734362 38.98689324 12.64695393 32.6018219 12.65354156 C26.600245 12.65930054 20.59875284 12.65534478 14.59718513 12.64375305 C12.38882145 12.64109869 10.18045068 12.64188469 7.97208977 12.64627838 C4.9687629 12.65170474 1.96571143 12.64493527 -1.03759766 12.63491821 C-2.36335351 12.64161038 -2.36335351 12.64161038 -3.71589231 12.64843774 C-9.73007402 12.60925093 -9.73007402 12.60925093 -11.95837402 10.38095093 C-12.5259953 4.13711688 -12.5259953 4.13711688 -10.68296194 1.68188989 C-7.6064605 -0.63886196 -3.70799284 -0.02844198 0 0 Z " fill="#517DE5" transform="translate(126.9583740234375,433.6190490722656)"/>
<path d="M0 0 C2.11393176 -0.01727546 4.22632329 -0.06119293 6.33984375 -0.10522461 C7.68358228 -0.1153471 9.02733405 -0.1238646 10.37109375 -0.13061523 C11.593125 -0.14519775 12.81515625 -0.15978027 14.07421875 -0.17480469 C17.12109375 0.29516602 17.12109375 0.29516602 19.0546875 2.12646484 C20.55860843 5.18491943 20.03139563 7.07409781 19.12109375 10.29516602 C16.49646275 12.91979702 15.25652953 12.57129943 11.59765625 12.63891602 C10.49421875 12.66856445 9.39078125 12.69821289 8.25390625 12.72875977 C7.09632813 12.75067383 5.93875 12.77258789 4.74609375 12.79516602 C2.46726657 12.83859658 0.18857877 12.89033942 -2.08984375 12.95141602 C-3.10353027 12.97010742 -4.1172168 12.98879883 -5.16162109 13.00805664 C-7.95215974 13.30290601 -9.60628908 13.65350515 -11.87890625 15.29516602 C-13.14872929 18.34850942 -13.00784259 21.48603905 -13.01171875 24.76000977 C-13.01300781 25.80737305 -13.01429688 26.85473633 -13.015625 27.93383789 C-13.01175781 29.02245117 -13.00789063 30.11106445 -13.00390625 31.23266602 C-13.00777344 32.31741211 -13.01164062 33.4021582 -13.015625 34.51977539 C-13.01369141 36.09275391 -13.01369141 36.09275391 -13.01171875 37.69750977 C-13.01059082 38.65133545 -13.00946289 39.60516113 -13.00830078 40.58789062 C-12.88091762 43.25308294 -12.47290671 45.6976675 -11.87890625 48.29516602 C-9.25329516 48.37590804 -6.63014949 48.43552832 -4.00390625 48.48266602 C-3.25753906 48.50780273 -2.51117188 48.53293945 -1.7421875 48.55883789 C0.68331203 48.62504242 0.68331203 48.62504242 4.12109375 48.29516602 C6.41123028 44.85996122 6.29952348 43.30983502 6.12109375 39.29516602 C5.50621094 39.1855957 4.89132812 39.07602539 4.2578125 38.96313477 C3.04544922 38.72530273 3.04544922 38.72530273 1.80859375 38.48266602 C1.00808594 38.3318457 0.20757812 38.18102539 -0.6171875 38.02563477 C-3.1650412 37.20275283 -4.2667947 36.41555478 -5.87890625 34.29516602 C-6.30369211 30.21722177 -6.19173212 28.76440482 -3.87890625 25.29516602 C1.17107841 24.36556685 6.47842765 24.53327284 11.05859375 26.98266602 C15.96108993 30.68455088 18.85879359 34.21317431 20.12109375 40.29516602 C20.21469684 46.67057659 19.3853127 51.3394521 15.12109375 56.29516602 C8.78255312 62.54873961 3.09781748 62.58990732 -5.44018555 62.61425781 C-12.62320878 62.49496406 -17.06219242 61.18600389 -22.25390625 55.85766602 C-25.48477578 50.76283329 -26.20520746 46.40132171 -26.25 40.43188477 C-26.25902847 39.68107132 -26.26805695 38.93025787 -26.27735901 38.1566925 C-26.29182159 36.57243816 -26.3007383 34.98812462 -26.30444336 33.40380859 C-26.31632053 31.000015 -26.36552198 28.59880778 -26.41601562 26.19555664 C-26.57501473 11.12568057 -26.57501473 11.12568057 -20.87890625 5.29516602 C-14.54599869 -0.58539101 -8.16689044 0.04657561 0 0 Z " fill="#507CE4" transform="translate(286.87890625,332.704833984375)"/>
<path d="M0 0 C4.56613335 3.52800712 7.39203514 8.27766793 9.19921875 13.69921875 C9.48900288 18.25702346 9.4770756 22.8207521 9.51171875 27.38671875 C9.54072266 28.64162109 9.56972656 29.89652344 9.59960938 31.18945312 C9.65799772 39.71864344 8.87910088 45.42340429 3.26953125 51.94140625 C-2.9181556 57.13508718 -7.98402647 59.27924109 -16.14453125 59.0703125 C-22.77951078 58.14336683 -28.12644698 55.03200471 -32.30078125 49.82421875 C-37.12934617 43.11475935 -37.14023766 35.77096797 -37.11328125 27.82421875 C-37.12939453 26.88191406 -37.14550781 25.93960937 -37.16210938 24.96875 C-37.16863421 15.53383592 -35.28741449 8.26764886 -28.671875 1.36328125 C-20.65125682 -5.76987813 -8.93534588 -5.02163561 0 0 Z M-20.80078125 11.69921875 C-24.85816191 16.42644999 -24.24524024 21.80292219 -24.17578125 27.69921875 C-24.18738281 28.6840625 -24.19898438 29.66890625 -24.2109375 30.68359375 C-24.2255959 37.71479576 -24.2255959 37.71479576 -20.80078125 43.69921875 C-17.10069962 46.16593984 -14.09376047 46.36999675 -9.80078125 45.69921875 C-6.50157617 43.83445066 -5.15354175 42.53965517 -3.6875 39.046875 C-2.67854942 35.23775321 -2.46978372 31.67209626 -2.48828125 27.76171875 C-2.47216797 27.08431641 -2.45605469 26.40691406 -2.43945312 25.70898438 C-2.43452973 20.5738786 -3.5010307 17.18063974 -5.80078125 12.69921875 C-10.67891729 7.82108271 -15.18284776 8.03534908 -20.80078125 11.69921875 Z " fill="#507CE4" transform="translate(241.80078125,336.30078125)"/>
<path d="M0 0 C2.9375 0.5 2.9375 0.5 4.59980774 2.24468994 C6.11341214 4.79658272 6.30284703 6.14548594 6.27807617 9.08496094 C6.27784958 9.98559265 6.27762299 10.88622437 6.27738953 11.81414795 C6.26190567 12.77782288 6.24642181 13.7414978 6.23046875 14.734375 C6.22622391 15.72753723 6.22197906 16.72069946 6.21760559 17.74395752 C6.20082634 20.91291528 6.163175 24.08123478 6.125 27.25 C6.10995221 29.39973039 6.09626397 31.54947076 6.08398438 33.69921875 C6.05092536 38.96636323 6.00073334 44.23313601 5.9375 49.5 C6.76475586 49.48952637 7.59201172 49.47905273 8.44433594 49.46826172 C12.1920264 49.42669088 15.93966832 49.40067008 19.6875 49.375 C20.98945313 49.35824219 22.29140625 49.34148437 23.6328125 49.32421875 C24.88320312 49.31777344 26.13359375 49.31132812 27.421875 49.3046875 C28.57397461 49.29421387 29.72607422 49.28374023 30.91308594 49.27294922 C33.87782084 49.49551973 35.54110883 49.76456037 37.9375 51.5 C38.9375 54.875 38.9375 54.875 38.9375 58.5 C37.47265625 60.69335938 37.47265625 60.69335938 34.9375 62.5 C31.95680487 62.89772619 29.35345697 63.06147059 26.375 63.03125 C25.54669678 63.0350769 24.71839355 63.03890381 23.86499023 63.04284668 C22.11668683 63.04556425 20.36834266 63.03821381 18.62011719 63.02148438 C15.94634223 63.00007082 13.27525404 63.02128944 10.6015625 63.046875 C8.90103575 63.04423169 7.20051066 63.03910665 5.5 63.03125 C4.70198975 63.03934692 3.90397949 63.04744385 3.08178711 63.05578613 C-0.32051841 62.99840271 -2.52866884 62.91016986 -5.27258301 60.80187988 C-7.44186513 58.01212656 -7.56820819 56.65232252 -7.58007812 53.15234375 C-7.59268677 52.08443604 -7.60529541 51.01652832 -7.61828613 49.91625977 C-7.61018921 48.76826904 -7.60209229 47.62027832 -7.59375 46.4375 C-7.5975769 45.25406006 -7.60140381 44.07062012 -7.60534668 42.85131836 C-7.60806809 40.34976348 -7.60069103 37.84818026 -7.58398438 35.34667969 C-7.56258003 31.51432951 -7.58378045 27.68385426 -7.609375 23.8515625 C-7.60673177 21.42187086 -7.60160689 18.99218038 -7.59375 16.5625 C-7.60184692 15.41450928 -7.60994385 14.26651855 -7.61828613 13.08374023 C-7.60567749 12.01583252 -7.59306885 10.9479248 -7.58007812 9.84765625 C-7.57689575 8.90929932 -7.57371338 7.97094238 -7.57043457 7.00415039 C-6.67701069 2.59951267 -4.3349285 0.70774343 0 0 Z " fill="#517DE5" transform="translate(163.0625,332.5)"/>
<path d="M0 0 C1.6622467 1.05761719 1.6622467 1.05761719 3 3 C3.30111268 5.56448873 3.42023133 7.88756916 3.40405273 10.453125 C3.41091599 11.20952271 3.41777924 11.96592041 3.42485046 12.74523926 C3.4431611 15.24701678 3.43927546 17.74816982 3.43359375 20.25 C3.4381532 21.98730677 3.44345806 23.72461174 3.44947815 25.46191406 C3.45841737 29.10359015 3.4559766 32.74504703 3.44604492 36.38671875 C3.43454821 41.05784095 3.45477296 45.72820799 3.48396206 50.39923096 C3.50229025 53.98686544 3.5020385 57.57431777 3.49632454 61.1619873 C3.49617094 62.8844102 3.50224704 64.60684514 3.51461601 66.32922363 C3.52946277 68.73559242 3.51889747 71.14055094 3.50170898 73.546875 C3.51621094 74.61766296 3.51621094 74.61766296 3.53100586 75.71008301 C3.48293355 78.91726631 3.38861006 80.58144171 1.16395569 82.97753906 C-1.89183071 84.42138666 -3.80312154 83.90346565 -7 83 C-9.45315678 80.54684322 -9.2459273 79.18333261 -9.28216553 75.83450317 C-9.27968811 75.11704926 -9.27721069 74.39959534 -9.2746582 73.66040039 C-9.27976913 72.90414871 -9.28488007 72.14789703 -9.29014587 71.36872864 C-9.30407881 68.86162465 -9.30308233 66.35479442 -9.30078125 63.84765625 C-9.30466624 62.10892128 -9.3090005 60.37018725 -9.31376648 58.63145447 C-9.32123671 54.98384528 -9.32093169 51.33633286 -9.31567383 47.6887207 C-9.309879 43.00985378 -9.32680648 38.33138268 -9.3500185 33.65258121 C-9.36473698 30.06068091 -9.36563011 26.46887633 -9.36250877 22.87695122 C-9.36302297 21.15174005 -9.36827904 19.42652365 -9.37832069 17.70134163 C-9.39063113 15.29029615 -9.38392636 12.88002681 -9.37231445 10.46899414 C-9.37995819 9.75356445 -9.38760193 9.03813477 -9.39547729 8.30102539 C-9.36479855 5.42512994 -9.31965884 3.46506288 -7.66423035 1.05662537 C-5.0448314 -0.60643971 -3.01804192 -0.37725524 0 0 Z " fill="#507CE4" transform="translate(453,254)"/>
<path d="M0 0 C0.99 0.66 1.98 1.32 3 2 C3.68471001 5.43589076 3.50927961 8.94140739 3.5 12.4375 C3.52835937 13.40494141 3.55671875 14.37238281 3.5859375 15.36914062 C3.59326961 18.0105317 3.53049322 20.41196747 3 23 C0.671875 25.203125 0.671875 25.203125 -2 26 C-5.25 25.3125 -5.25 25.3125 -8 24 C-9.76279117 20.47441767 -9.22713881 16.44604409 -9.25 12.5625 C-9.270625 11.69044922 -9.29125 10.81839844 -9.3125 9.91992188 C-9.31765625 9.08138672 -9.3228125 8.24285156 -9.328125 7.37890625 C-9.3374707 6.6113501 -9.34681641 5.84379395 -9.35644531 5.05297852 C-8.43628474 -0.24676825 -4.70952218 -0.49057523 0 0 Z " fill="#507CE4" transform="translate(453,356)"/>
</svg>
