<?xml version="1.0" encoding="UTF-8"?>
<svg version="1.1" xmlns="http://www.w3.org/2000/svg" width="512" height="512">
<path d="M0 0 C0.82419434 0.20399414 1.64838867 0.40798828 2.49755859 0.61816406 C14.5205156 3.6387424 25.87695934 7.52799531 37 13 C37.63099609 13.30663574 38.26199219 13.61327148 38.91210938 13.92919922 C51.79086973 20.26027178 63.28902933 28.12659236 73.78125 37.9375 C75.75737093 39.77445749 77.78954621 41.47811165 79.875 43.1875 C108.57591465 68.35866506 126.16517688 108.81485039 129.27514648 146.31799316 C130.15138992 159.88425768 130.22418442 173.44445797 130.31640625 187.03515625 C130.33702195 189.6116109 130.35801947 192.18806252 130.37937927 194.76451111 C130.42855673 200.80588879 130.47394138 206.84728357 130.51740164 212.88870472 C130.56718632 219.77895936 130.62194834 226.66917182 130.67708123 233.55938542 C130.79016978 247.70621717 130.89716124 261.8530902 131 276 C131.94391602 276.32395752 132.88783203 276.64791504 133.86035156 276.98168945 C135.12053848 277.42111217 136.38062428 277.86082493 137.640625 278.30078125 C138.87329102 278.72786377 140.10595703 279.15494629 141.37597656 279.5949707 C155.16336385 284.94032329 166.40699949 295.83077506 173 309 C179.71137604 325.17007385 181.59975599 342.35640611 175.23388672 359.00341797 C168.35424155 375.39075612 156.86505101 388.00941278 140.17842102 394.85649681 C124.95961908 400.33177792 108.76203942 399.43466208 92.83099604 399.39217401 C89.0217854 399.38531996 85.21261435 399.39589586 81.40341187 399.40411377 C73.96192126 399.41738624 66.52052193 399.4146025 59.07902789 399.40587585 C53.02595448 399.39907399 46.97290647 399.39819334 40.91983032 399.4014473 C40.0551543 399.401907 39.19047827 399.40236669 38.29959995 399.40284032 C36.54249818 399.40379959 34.78539643 399.40477223 33.02829468 399.4057581 C16.58921779 399.41429299 0.15019126 399.4045078 -16.28887737 399.388357 C-30.36481063 399.37495555 -44.44066964 399.37728418 -58.51660156 399.39111328 C-74.90073396 399.40720279 -91.28482233 399.41346919 -107.66896152 399.40427649 C-109.41925112 399.40332094 -111.16954072 399.40237783 -112.91983032 399.4014473 C-113.78078975 399.40098447 -114.64174918 399.40052164 -115.52879828 399.40004479 C-121.5678242 399.397465 -127.60682195 399.40180398 -133.64584351 399.40888596 C-141.01509905 399.41733873 -148.38425885 399.414942 -155.75350356 399.39904372 C-159.50644426 399.39121147 -163.25922589 399.3879821 -167.01216507 399.39799118 C-204.30240758 399.48915448 -204.30240758 399.48915448 -217.25 392.5 C-217.90347412 392.15815674 -218.55694824 391.81631348 -219.23022461 391.46411133 C-234.15955561 383.24778599 -243.59981223 370.03180743 -249 354 C-253.50731889 337.28535912 -250.88893635 320.3209436 -242.50390625 305.32421875 C-234.56210291 292.06342472 -223.505869 282.70395861 -208.76879883 277.88598633 C-207.6884285 277.53119705 -206.60805817 277.17640778 -205.49494934 276.81086731 C-204.67161606 276.5432811 -203.84828278 276.27569489 -203 276 C-202.99576806 275.41783753 -202.99153612 274.83567507 -202.98717594 274.23587132 C-202.88333743 259.99295442 -202.77462657 245.75008067 -202.66066074 231.50724125 C-202.60565951 224.61918225 -202.55223657 217.73111812 -202.50268555 210.84301758 C-202.45477774 204.18398499 -202.40226487 197.52500267 -202.34705925 190.86602592 C-202.32682632 188.33740834 -202.30808447 185.80877833 -202.29092598 183.28013802 C-201.98400047 138.54013272 -196.20153648 95.99799094 -167 60 C-166.25580811 59.08081787 -166.25580811 59.08081787 -165.49658203 58.14306641 C-150.21032044 39.48808727 -132.40681103 25.06953949 -111 14 C-110.38688965 13.68047363 -109.7737793 13.36094727 -109.14208984 13.03173828 C-77.02326559 -3.47197131 -35.20679709 -9.13764199 0 0 Z " fill="#000000" transform="translate(292,19)"/>
<path d="M0 0 C54.78 0 109.56 0 166 0 C159.05995075 20.82014774 143.30167938 37.00501949 124.03613281 47.02099609 C103.11628336 57.39908278 77.44162686 60.26236464 55.00195312 52.73193359 C30.9295614 43.93083233 13.2088226 27.92831731 1.4375 5.25 C0 2 0 2 0 0 Z " fill="#000000" transform="translate(173,440)"/>
</svg>
