<?xml version="1.0" encoding="UTF-8"?>
<svg version="1.1" xmlns="http://www.w3.org/2000/svg" width="512" height="512">
<path d="M0 0 C5.95544267 3.98539129 11.87737362 10.25344059 13.45141602 17.40405273 C13.6572229 18.56529663 13.6572229 18.56529663 13.8671875 19.75 C15.12728638 19.73445572 16.38738525 19.71891144 17.68566895 19.70289612 C29.57366321 19.56085896 41.46148484 19.45599579 53.3501358 19.3873148 C59.46197434 19.35081746 65.57312668 19.30132906 71.68457031 19.22192383 C77.58498354 19.14574218 83.4847377 19.10398339 89.38560486 19.0858593 C91.6342964 19.07294724 93.88295275 19.0477322 96.13136292 19.0098896 C99.28692933 18.95890174 102.43978959 18.95208348 105.59570312 18.95532227 C106.52071625 18.93015533 107.44572937 18.9049884 108.39877319 18.87905884 C114.63440918 18.94808842 117.69590542 20.53151228 122.08480835 24.95727158 C123.90241015 26.78542717 125.78994376 28.23388994 127.89648438 29.71362305 C140.02864419 38.43470794 154.84705635 49.25571786 158.8145752 64.35565186 C161.81622665 82.8234248 159.92870146 102.28711727 157.8671875 120.75 C158.76550293 120.50765625 159.66381836 120.2653125 160.58935547 120.015625 C163.91727588 119.11909936 167.2457794 118.22480637 170.57470703 117.33203125 C172.01635439 116.9449072 173.45776232 116.55689038 174.89892578 116.16796875 C176.96845449 115.60963754 179.0388183 115.05450502 181.109375 114.5 C182.3557373 114.16484375 183.60209961 113.8296875 184.88623047 113.484375 C187.8671875 112.75 187.8671875 112.75 189.8671875 112.75 C189.7846875 111.739375 189.7021875 110.72875 189.6171875 109.6875 C189.90149479 105.20966012 190.89142489 102.08120092 193.8671875 98.75 C200.6117108 94.17533358 207.83623428 92.89255988 215.8671875 93.75 C221.70464614 95.52045973 225.40052665 98.74924492 228.8671875 103.75 C230.17822266 107.08520508 230.17822266 107.08520508 231.15625 110.76953125 C231.34151245 111.44926498 231.5267749 112.12899872 231.71765137 112.82933044 C232.32438122 115.06994798 232.90854461 117.31576826 233.4921875 119.5625 C233.91388074 121.14260576 234.33692274 122.72235212 234.76123047 124.30175781 C235.66348255 127.66812786 236.55675331 131.03672996 237.4453125 134.40673828 C238.90929639 139.93764185 240.43365916 145.45115 241.9609375 150.96484375 C242.72423707 153.73908073 243.48597349 156.51374004 244.24676514 159.28866577 C244.74072795 161.08536297 245.23748036 162.88129573 245.73712158 164.67642212 C246.43876406 167.20357924 247.12713166 169.73401309 247.8125 172.265625 C248.02136841 173.00695175 248.23023682 173.7482785 248.44543457 174.5120697 C250.29762057 181.44900151 250.80688925 188.11275377 247.96875 194.86328125 C244.91543181 200.0929007 239.7903347 203.43158447 234.109375 205.27734375 C228.15599084 206.53232543 222.84393796 206.68635548 217.3046875 204.0625 C214.8671875 201.75 214.8671875 201.75 212.8671875 196.75 C207.2571875 198.4 201.6471875 200.05 195.8671875 201.75 C199.51062967 215.47980222 203.15651402 229.20895417 206.8046875 242.9375 C207.08095474 243.97715031 207.35722198 245.01680061 207.64186096 246.08795547 C217.37145179 282.69904489 227.17059103 319.29109649 237.02261639 355.86942101 C237.79275865 358.72883338 238.56273383 361.58829071 239.33268738 364.44775391 C240.4780608 368.70141859 241.62481248 372.9547102 242.77190876 377.20791054 C243.39140354 379.51057255 244.00659157 381.81435458 244.62145996 384.11825562 C245.4914797 387.37298369 246.38676992 390.61974908 247.2935791 393.8644104 C247.75735368 395.55321257 248.22102057 397.24204431 248.68457031 398.9309082 C248.90350323 399.69733485 249.12243614 400.4637615 249.34800339 401.2534132 C250.98945353 407.29603621 251.87970008 412.88121437 249.7421875 418.9375 C246.76713131 423.40008429 243.59647065 426.05163565 238.6171875 428.0625 C232.61066363 429.16369604 226.63388053 430.00834651 220.9921875 427.1875 C215.39613983 422.82258282 213.45568474 417.21422059 211.7109375 410.51049805 C211.527473 409.81721468 211.3440085 409.12393131 211.15498447 408.40963936 C210.54958836 406.11269799 209.95848108 403.81232704 209.3671875 401.51171875 C208.93542959 399.8634147 208.50270158 398.2153645 208.06907654 396.56755066 C207.14248233 393.03937123 206.22191391 389.50969729 205.30612183 385.97869873 C203.8537207 380.3797487 202.38761521 374.78445068 200.91821289 369.18994141 C200.67104428 368.24881878 200.42387568 367.30769615 200.16921711 366.33805466 C199.66655253 364.42425973 199.16383659 362.5104783 198.66106987 360.59671021 C197.89822348 357.69133882 197.13663265 354.78564056 196.3752594 351.87988281 C191.07624322 331.66915398 185.61833873 311.50226617 180.14038086 291.33944702 C179.00534253 287.16146626 177.87133715 282.98320632 176.73828125 278.8046875 C176.55427135 278.12629381 176.37026146 277.44790012 176.18067551 276.74894905 C170.31471269 255.10808145 164.60138452 233.42606412 158.8671875 211.75 C158.86360497 213.07771471 158.86360497 213.07771471 158.85995007 214.43225193 C158.80080369 235.97374985 158.72525586 257.51513585 158.63147259 279.05651188 C158.58651477 289.47378083 158.54710003 299.8910156 158.52075195 310.30834961 C158.49777181 319.38852417 158.46437353 328.46859054 158.41848594 337.54867929 C158.39455401 342.35613416 158.37582501 347.16348188 158.36957359 351.97099495 C158.36352264 356.49772069 158.34352231 361.02417228 158.31291199 365.55079651 C158.30413195 367.21038344 158.30040911 368.87000619 158.30217934 370.5296154 C158.3038363 372.80021535 158.28709792 375.06998373 158.26591492 377.34046936 C158.26130595 378.6097783 158.25669699 379.87908724 158.25194836 381.18686008 C157.53436763 387.832132 154.99187971 392.35740668 149.8671875 396.75 C143.79546532 401.10918516 137.29845843 400.89752091 130.1131897 400.88371277 C129.24391102 400.88597833 128.37463235 400.88824388 127.47901189 400.89057809 C124.57274563 400.89689684 121.66652626 400.89609009 118.76025391 400.89526367 C116.67385294 400.89825647 114.58745254 400.90165928 112.50105286 400.90544128 C106.83782551 400.91427273 101.17461328 400.91661903 95.51137972 400.91725707 C91.97247314 400.917968 88.43357039 400.92010313 84.89466476 400.92275429 C72.54663601 400.93200452 60.19861804 400.93608953 47.85058594 400.93530273 C36.34330211 400.93470186 24.83606514 400.94525644 13.32879317 400.9610464 C3.44582417 400.97412395 -6.43712952 400.97948655 -16.3201071 400.97884732 C-22.22129885 400.97859242 -28.12244893 400.98143945 -34.02363205 400.99202538 C-39.57384885 401.00171005 -45.12398419 401.00178295 -50.67420387 400.99450874 C-52.70912228 400.9934634 -54.74404577 400.99582279 -56.77895546 401.0018692 C-59.56101497 401.00959912 -62.34279384 401.00493766 -65.12484741 400.99723816 C-65.92622395 401.00238172 -66.72760049 401.00752529 -67.55326116 401.01282471 C-75.26420816 400.96580606 -81.99047434 399.77554941 -88.1328125 394.75 C-92.326788 389.30916692 -93.25562674 385.55753374 -93.26703358 378.81407547 C-93.27149142 377.59185642 -93.27594926 376.36963736 -93.28054219 375.11038136 C-93.2804529 373.75207471 -93.28026305 372.39376806 -93.27998352 371.03546143 C-93.28328316 369.59402961 -93.28700894 368.15259872 -93.291125 366.711169 C-93.30114145 362.74509907 -93.30486121 358.77904427 -93.30751431 354.81296349 C-93.31141834 350.53744234 -93.32099651 346.26193317 -93.32972717 341.98641968 C-93.34948734 331.65944926 -93.35955659 321.33247788 -93.36845496 311.00549328 C-93.37283802 306.14309381 -93.37820474 301.28069543 -93.38344383 296.41829681 C-93.40045459 280.25652416 -93.41494951 264.09475219 -93.42219257 247.93297195 C-93.42410248 243.73916879 -93.42602281 239.54536564 -93.42797852 235.3515625 C-93.42846226 234.30920782 -93.428946 233.26685314 -93.4294444 232.19291195 C-93.43774752 215.30150326 -93.46308989 198.41016532 -93.49555919 181.51878753 C-93.52861763 164.17971057 -93.54664018 146.84066958 -93.54983681 129.50156093 C-93.55200288 119.76504678 -93.56076589 110.02863586 -93.58629799 100.2921524 C-93.60798825 92.00157766 -93.61606361 83.71113121 -93.60633121 75.4205313 C-93.60178183 71.19065553 -93.60370969 66.96104456 -93.62309265 62.73120499 C-93.64069155 58.85724268 -93.63975351 54.98373901 -93.62419536 51.10977206 C-93.62181431 49.71002216 -93.62616872 48.31024078 -93.63802401 46.91053906 C-93.70420156 38.57974665 -93.64273291 31.69845403 -87.75629979 25.23963857 C-81.17448807 19.24573114 -74.14075563 19.48438289 -65.7578125 19.625 C-64.22447266 19.63853516 -64.22447266 19.63853516 -62.66015625 19.65234375 C-60.15079728 19.6757957 -57.64192914 19.70861645 -55.1328125 19.75 C-54.85695312 18.8528125 -54.58109375 17.955625 -54.296875 17.03125 C-50.77678206 7.10884036 -43.99611951 0.90697218 -34.6953125 -3.625 C-23.10036327 -7.89022089 -10.43481333 -6.11564151 0 0 Z M-39.1328125 17.75 C-39.1328125 18.41 -39.1328125 19.07 -39.1328125 19.75 C-26.9228125 19.75 -14.7128125 19.75 -2.1328125 19.75 C-4.57191475 14.87179551 -7.54002592 11.9822154 -12.5 9.625 C-22.89166288 6.17139097 -32.25454202 9.58205381 -39.1328125 17.75 Z M-79.1328125 37.75 C-79.87596645 40.49875336 -79.87596645 40.49875336 -79.75643158 43.60339355 C-79.76823692 44.80717903 -79.78004226 46.01096451 -79.79220533 47.25122833 C-79.78001292 48.58871371 -79.76735175 49.92619488 -79.75427246 51.26367188 C-79.75860014 52.68321272 -79.76511493 54.10274831 -79.77363253 55.5222702 C-79.79066476 59.42787576 -79.77641504 63.33284262 -79.75711775 67.23841476 C-79.74172121 71.44843816 -79.7550847 75.65838172 -79.76486206 79.8684082 C-79.77940697 88.11771392 -79.7671362 96.36677398 -79.74574882 104.61605644 C-79.72176746 114.21739005 -79.72345142 123.81866701 -79.72605473 133.42002392 C-79.72974704 150.54829622 -79.70890091 167.67645259 -79.67480469 184.8046875 C-79.64171197 201.43492564 -79.62754615 218.06504209 -79.63378906 234.6953125 C-79.64054948 252.79322478 -79.63810274 270.89108604 -79.61842966 288.98899078 C-79.61739018 289.94555588 -79.61635069 290.90212098 -79.6152797 291.8876729 C-79.61318877 293.80902499 -79.61107779 295.73037706 -79.60894653 297.65172911 C-79.60204404 304.34847149 -79.60138277 311.04519817 -79.60282898 317.74194336 C-79.60426707 325.90015819 -79.59460742 334.05827363 -79.57088262 342.21645546 C-79.55900327 346.38096762 -79.55191028 350.54534106 -79.55772018 354.70986938 C-79.56287795 358.51943763 -79.55425399 362.32871237 -79.53444558 366.13823032 C-79.52969131 367.51905298 -79.53002422 368.89990409 -79.53585595 370.28072262 C-79.54300019 372.15268205 -79.53000587 374.02468635 -79.51592255 375.89660645 C-79.51435134 376.93790962 -79.51278014 377.9792128 -79.51116133 379.05207062 C-79.07308126 382.17593147 -78.38506006 383.55673222 -76.1328125 385.75 C-73.15207425 386.15013463 -70.53769412 386.2898732 -67.55407715 386.25793457 C-66.22421099 386.26729451 -66.22421099 386.26729451 -64.86747885 386.27684355 C-61.88469255 386.29284987 -58.90271482 386.28013948 -55.91992188 386.26757812 C-53.78643821 386.27299585 -51.65295828 386.28011653 -49.51948547 386.28881836 C-43.71583495 386.30709618 -37.91246799 386.29996572 -32.10881233 386.28730202 C-26.04433535 386.27719745 -19.97988317 386.28656061 -13.91540527 386.29284668 C-3.7298546 386.3001305 6.45558019 386.29051606 16.64111328 386.27148438 C28.42855126 386.24971431 40.21571252 386.25676516 52.00314379 386.27879 C62.11104726 386.29692302 72.21886727 386.29951258 82.32678175 386.28903532 C88.36929328 386.28278886 94.41167461 386.28199641 100.45417786 386.29518127 C106.13412791 386.3067086 111.8137201 386.298771 117.49363136 386.27560425 C119.582242 386.27030048 121.67088258 386.27185925 123.75948143 386.28065491 C126.60288276 386.29152816 129.44512538 386.27794664 132.28845215 386.25793457 C133.12200305 386.26685746 133.95555394 386.27578034 134.81436396 386.28497362 C139.17695663 386.23142204 139.17695663 386.23142204 142.88081074 384.14456558 C144.19682256 380.94976544 144.23574225 378.38830907 144.22795105 374.92901611 C144.23051432 374.24364517 144.2330776 373.55827423 144.23571855 372.85213447 C144.2406585 370.55645679 144.22416074 368.26143735 144.20776367 365.96582031 C144.20691744 364.31993119 144.20739246 362.67404093 144.20909119 361.02815247 C144.20995273 356.55942454 144.19230129 352.09093767 144.17136931 347.62226582 C144.15262898 342.95243358 144.15085416 338.28259597 144.14729309 333.61273193 C144.13796485 324.76944475 144.11334052 315.92626869 144.08324462 307.08303046 C144.04972486 297.01543028 144.0332207 286.94782482 144.01815832 276.88018274 C143.98679166 256.17005978 143.934016 235.46003689 143.8671875 214.75 C143.2071875 214.75 142.5471875 214.75 141.8671875 214.75 C141.76921875 215.41386719 141.67125 216.07773437 141.5703125 216.76171875 C139.95684538 226.28952025 139.95684538 226.28952025 135.8671875 229.75 C129.27891819 233.1910069 122.15440511 233.49954238 114.8671875 232.75 C109.77712072 231.08415996 106.88970792 228.06471897 103.8671875 223.75 C102.57739258 220.73193359 102.57739258 220.73193359 101.57421875 217.2734375 C101.37778275 216.6058139 101.18134674 215.93819031 100.97895813 215.25033569 C100.25486336 212.75556338 99.56017659 210.25359268 98.8671875 207.75 C98.56794373 206.68237427 98.26869995 205.61474854 97.96038818 204.51477051 C95.81356866 196.84074431 93.71982323 189.15367309 91.65405273 181.45751953 C90.73579394 178.03911806 89.80274304 174.62493078 88.86654949 171.2114048 C88.13837059 168.54541354 87.42143605 165.87648853 86.707407 163.20667648 C86.20576976 161.34244163 85.69225139 159.48141652 85.1783905 157.62051392 C82.82071104 148.7162746 80.71777273 139.9072106 85.5390625 131.50390625 C89.43341912 126.36106472 94.60858181 123.9578011 100.8671875 122.75 C106.22250742 122.16654102 110.33898844 122.66259155 114.8671875 125.75 C116.24130355 127.72220254 117.57990468 129.72005401 118.8671875 131.75 C121.53554272 131.1526523 124.20168113 130.54732883 126.8671875 129.9375 C127.61097656 129.77185547 128.35476563 129.60621094 129.12109375 129.43554688 C129.86230469 129.26474609 130.60351562 129.09394531 131.3671875 128.91796875 C132.37265625 128.69016724 132.37265625 128.69016724 133.3984375 128.45776367 C136.95706699 127.43754345 140.40091091 126.04985372 143.8671875 124.75 C143.8671875 106.93 143.8671875 89.11 143.8671875 70.75 C135.9471875 70.42 128.0271875 70.09 119.8671875 69.75 C111.8671875 64.75 111.8671875 64.75 107.8671875 56.75 C107.5371875 49.16 107.2071875 41.57 106.8671875 33.75 C76.5071875 33.75 46.1471875 33.75 14.8671875 33.75 C14.5371875 53.22 14.2071875 72.69 13.8671875 92.75 C6.70589718 93.94354839 6.70589718 93.94354839 2.8671875 91.75 C1.85172984 88.70362701 1.7129898 86.55222902 1.66186523 83.3605957 C1.6319474 81.70922356 1.6319474 81.70922356 1.60142517 80.02449036 C1.58471268 78.83691635 1.56800018 77.64934235 1.55078125 76.42578125 C1.53000015 75.20924362 1.50921906 73.99270599 1.48780823 72.73930359 C1.42234033 68.84709404 1.36344035 64.95481615 1.3046875 61.0625 C1.26149968 58.42642518 1.2178853 55.79035731 1.17382812 53.15429688 C1.06585786 46.68626699 0.96676325 40.21818642 0.8671875 33.75 C-13.3228125 33.75 -27.5128125 33.75 -42.1328125 33.75 C-42.20169167 41.20680815 -42.2614254 48.66251193 -42.29760742 56.11938477 C-42.31269113 58.65588115 -42.33316081 61.19235148 -42.35913086 63.72875977 C-42.39553131 67.37522822 -42.41254332 71.02135173 -42.42578125 74.66796875 C-42.44126511 75.80147263 -42.45674896 76.9349765 -42.47270203 78.10282898 C-42.47304192 79.69391228 -42.47304192 79.69391228 -42.47338867 81.31713867 C-42.48005051 82.24757492 -42.48671234 83.17801117 -42.49357605 84.13664246 C-42.05526187 87.31177385 -40.99843181 89.16340507 -39.1328125 91.75 C-34.88425486 94.78468403 -31.49211522 95.03039689 -26.4765625 94.7578125 C-22.32490484 92.97259971 -20.02788857 90.91056037 -18.1328125 86.75 C-17.38976548 80.75244053 -17.56721021 74.84164595 -17.7578125 68.8125 C-17.78793981 67.15825148 -17.81531077 65.50395032 -17.83984375 63.84960938 C-17.90564697 59.81509798 -18.00900918 55.78313132 -18.1328125 51.75 C-20.07884524 51.15929986 -20.07884524 51.15929986 -22.1328125 50.75 C-24.16837501 52.78556251 -23.26981709 57.03484083 -23.2734375 59.8359375 C-23.29176424 61.50522199 -23.31133443 63.17449321 -23.33203125 64.84375 C-23.36103168 67.48622983 -23.38281303 70.12785839 -23.38330078 72.77050781 C-23.38662862 75.31392687 -23.42113661 77.85536185 -23.4609375 80.3984375 C-23.4538678 81.18914642 -23.4467981 81.97985535 -23.43951416 82.79452515 C-23.48925781 85.02880859 -23.48925781 85.02880859 -24.1328125 88.75 C-26.47167969 90.81884766 -26.47167969 90.81884766 -29.1328125 91.75 C-34.3328125 90.55 -34.3328125 90.55 -36.1328125 88.75 C-36.27136106 85.80206894 -36.34604063 82.87932902 -36.37109375 79.9296875 C-36.3791655 79.03766632 -36.38723724 78.14564514 -36.39555359 77.22659302 C-36.40941621 75.33174596 -36.42012857 73.4368737 -36.42797852 71.54199219 C-36.44511811 68.65771159 -36.48897494 65.77459898 -36.53320312 62.890625 C-36.54333623 61.0494876 -36.55185039 59.20834044 -36.55859375 57.3671875 C-36.57610184 56.5096286 -36.59360992 55.6520697 -36.61164856 54.76852417 C-36.59072884 48.92576553 -35.51527282 45.54663352 -32.1328125 40.75 C-26.90252897 36.69653027 -20.46159446 36.97735035 -14.1328125 37.75 C-9.01944722 40.08241223 -7.18981429 42.61041325 -5.1328125 47.75 C-4.69195564 50.89312573 -4.66480822 54.00128366 -4.6640625 57.171875 C-4.65264221 58.5219162 -4.65264221 58.5219162 -4.64099121 59.89923096 C-4.63021829 61.79867796 -4.62732566 63.69818406 -4.63183594 65.59765625 C-4.63280496 68.47759004 -4.59122121 71.35482755 -4.546875 74.234375 C-4.42441203 92.78504539 -4.42441203 92.78504539 -10.1328125 99.75 C-17.10341593 106.37292127 -23.64101223 108.19628938 -33.16796875 107.99609375 C-40.59257861 107.37982179 -46.185408 104.29272143 -51.1328125 98.75 C-55.59500599 91.7505663 -55.73375221 84.71202408 -55.7421875 76.62109375 C-55.75872375 75.39084976 -55.77526001 74.16060577 -55.79229736 72.89308167 C-55.84060597 68.99116944 -55.86211146 65.08964653 -55.8828125 61.1875 C-55.90880634 58.53054074 -55.94091544 55.87369882 -55.97265625 53.21679688 C-56.04636072 46.72793485 -56.09810356 40.23918155 -56.1328125 33.75 C-59.02965408 33.64170686 -61.92242269 33.56256046 -64.8203125 33.5 C-65.63693359 33.46648437 -66.45355469 33.43296875 -67.29492188 33.3984375 C-68.09091797 33.38554688 -68.88691406 33.37265625 -69.70703125 33.359375 C-70.43494873 33.33842773 -71.16286621 33.31748047 -71.9128418 33.29589844 C-75.16862462 33.96187843 -76.76871523 35.44773009 -79.1328125 37.75 Z M120.8671875 44.75 C120.78587287 46.18655854 120.72785191 47.6244483 120.6796875 49.0625 C120.64488281 49.86300781 120.61007812 50.66351563 120.57421875 51.48828125 C120.69875887 53.79303287 120.69875887 53.79303287 122.0859375 55.53125 C124.38856112 57.10672932 125.79117494 57.05765272 128.5546875 56.9375 C129.76705078 56.89689453 129.76705078 56.89689453 131.00390625 56.85546875 C131.61878906 56.82066406 132.23367188 56.78585938 132.8671875 56.75 C129.18886733 52.22384007 125.45632387 48.35575001 120.8671875 44.75 Z M203.8671875 109.75 C207.21503828 124.90501591 211.31919057 139.86301593 215.37719727 154.83911133 C216.36912234 158.49982649 217.35656948 162.16173258 218.34273052 165.82400417 C219.10719736 168.66135088 219.87374954 171.49813079 220.64097023 174.33473396 C221.0063833 175.68659405 221.37119439 177.03861702 221.7353878 178.3908062 C222.24035879 180.26427778 222.74839829 182.13692147 223.2565918 184.00952148 C223.54430954 185.07299301 223.83202728 186.13646454 224.12846375 187.23216248 C224.776528 189.71644583 224.776528 189.71644583 225.8671875 191.75 C229.14965061 191.45159426 231.49606504 190.96339542 234.3671875 189.3125 C236.13205466 186.29751861 235.92229339 185.79878342 235.19677734 182.51489258 C234.99912781 181.61928619 234.80147827 180.72367981 234.59783936 179.80093384 C233.1682376 173.83144188 231.65063015 167.88662447 230.09375 161.94921875 C229.91302319 161.25854624 229.73229637 160.56787373 229.54609299 159.85627174 C228.59195059 156.21206306 227.63391346 152.56890329 226.67285156 148.92651367 C225.68503053 145.17916614 224.71181963 141.42817965 223.74166298 137.67622662 C222.98813769 134.77346755 222.22352398 131.87371222 221.45591354 128.97464943 C221.09211225 127.5927279 220.73251118 126.20969319 220.37730789 124.82553673 C219.88005599 122.89192525 219.36541547 120.96281096 218.85009766 119.03393555 C218.56300934 117.93824753 218.27592102 116.84255951 217.98013306 115.71366882 C216.73212556 112.39034282 215.38816802 110.24867176 212.8671875 107.75 C209.07160869 107.75 207.23816133 108.25178941 203.8671875 109.75 Z M184.39208984 128.37060547 C183.73976883 128.54295715 183.08744781 128.71530884 182.4153595 128.8928833 C180.26018775 129.4636218 178.10658955 130.04004335 175.953125 130.6171875 C174.45767754 131.01605731 172.96220396 131.41482919 171.46670532 131.81350708 C168.33383976 132.64980798 165.20184008 133.48927013 162.0703125 134.33056641 C158.04936712 135.41023358 154.02560656 136.47897959 150.00102806 137.54501152 C146.91300756 138.36479555 143.82696727 139.19184222 140.74144363 140.02096939 C139.25811898 140.41829962 137.77408309 140.81298414 136.2893486 141.20501328 C134.2186028 141.75261487 132.15082724 142.31027243 130.08349609 142.87060547 C128.90451752 143.18593231 127.72553894 143.50125916 126.51083374 143.82614136 C123.72410484 144.45548355 123.72410484 144.45548355 122.8671875 146.75 C123.25331803 149.05395773 123.25331803 149.05395773 124.00708008 151.70288086 C124.28099075 152.73412582 124.55490143 153.76537079 124.83711243 154.8278656 C125.14223251 155.94556839 125.4473526 157.06327118 125.76171875 158.21484375 C126.06913498 159.35909317 126.37655121 160.50334259 126.69328308 161.68226624 C127.34649722 164.10674152 128.00328475 166.53025639 128.66333008 168.95288086 C129.67381991 172.66593945 130.67074716 176.38244554 131.66601562 180.09960938 C132.30127358 182.45073977 132.93731537 184.80165855 133.57421875 187.15234375 C133.87326614 188.26802231 134.17231354 189.38370087 134.48042297 190.53318787 C134.76379013 191.56758499 135.04715729 192.60198212 135.33911133 193.66772461 C135.58639481 194.57880478 135.83367828 195.48988495 136.0884552 196.42857361 C136.83193446 198.98017004 136.83193446 198.98017004 138.8671875 201.75 C147.55284759 199.44419525 156.23688208 197.13239229 164.91889668 194.81289864 C168.95027737 193.7360744 172.98218893 192.66133078 177.01538086 191.59130859 C180.90702065 190.5587593 184.79717694 189.52078878 188.68636131 188.47903061 C190.17100588 188.08237842 191.65617605 187.6876882 193.1418705 187.29498672 C195.22140946 186.74496169 197.29897659 186.18801398 199.3762207 185.62939453 C200.55980667 185.31406769 201.74339264 184.99874084 202.96284485 184.67385864 C206.01719335 183.8496058 206.01719335 183.8496058 208.8671875 181.75 C206.89293916 174.39899473 204.91729598 167.04836538 202.94067383 159.69799805 C202.26815027 157.19645727 201.59594832 154.69483 200.92407227 152.19311523 C199.95933844 148.6011727 198.99345562 145.00954085 198.02734375 141.41796875 C197.72627213 140.29601608 197.4252005 139.17406342 197.11500549 138.01811218 C196.694683 136.45683342 196.694683 136.45683342 196.26586914 134.86401367 C196.01938126 133.94690109 195.77289337 133.02978851 195.51893616 132.08488464 C195.01843684 130.29184961 194.45587028 128.51604835 193.8671875 126.75 C190.43083194 126.75 187.71751892 127.48687483 184.39208984 128.37060547 Z M104.8671875 135.75 C99.97156057 137.62702327 99.97156057 137.62702327 95.8671875 140.75 C96.19181489 148.70030855 98.74080958 156.39952048 100.796875 164.046875 C101.19202925 165.52796021 101.58697408 167.00910131 101.98171997 168.49029541 C102.80687306 171.58095919 103.63621863 174.67046168 104.46826172 177.75927734 C105.53271941 181.71319594 106.58399927 185.67048676 107.63187981 189.62882614 C108.44238315 192.68284766 109.26111893 195.73461675 110.08221817 198.78580475 C110.47337541 200.24425757 110.86167841 201.70347909 111.24703598 203.16347504 C111.78619286 205.20221407 112.33669636 207.2375601 112.89013672 209.27246094 C113.20022675 210.42969666 113.51031677 211.58693237 113.82980347 212.77923584 C114.8354435 215.65909449 115.76846493 217.54927507 117.8671875 219.75 C120.39372171 220.01725096 120.39372171 220.01725096 123.0546875 219.5 C124.65885417 219.25 126.26302083 219 127.8671875 218.75 C124.51473935 203.6196085 120.44947761 188.67405821 116.41210938 173.71582031 C115.42693642 170.06477612 114.44947994 166.4117115 113.47377586 162.75812721 C112.71576225 159.9244328 111.95274068 157.09210507 111.18828201 154.26014328 C110.82527837 152.91222439 110.46406832 151.56382111 110.10471725 150.21492386 C109.60550856 148.34320615 109.09858812 146.47355037 108.59130859 144.60400391 C108.30581146 143.54275299 108.02031433 142.48150208 107.72616577 141.38809204 C106.93763146 138.5633435 106.93763146 138.5633435 104.8671875 135.75 Z M172.8671875 206.75 C175.91231537 220.13270899 179.35924307 233.39278281 182.8984375 246.65234375 C183.48904371 248.87205225 184.07946258 251.0918106 184.66970825 253.31161499 C186.24138337 259.21939294 187.81633189 265.12629307 189.39228058 271.03293228 C190.36975425 274.69712181 191.34646419 278.36151409 192.32293701 282.02597046 C196.82930619 298.93622251 201.34450146 315.84410477 205.8671875 332.75 C206.14921524 333.80426682 206.43124298 334.85853363 206.72181702 335.94474792 C210.09042307 348.53525758 213.46823375 361.12325245 216.85842896 373.70796585 C217.48942953 376.05225363 218.11905047 378.39690795 218.74829102 380.7416687 C219.72236779 384.37049758 220.70040368 387.99823525 221.68172836 391.62511063 C222.19650437 393.5309231 222.70760377 395.43772752 223.21853638 397.34457397 C224.8307655 403.28271289 226.58082674 409.03585347 228.8671875 414.75 C231.1771875 414.42 233.4871875 414.09 235.8671875 413.75 C237.16815548 409.84709605 236.3394381 407.93302196 235.27856445 403.96459961 C235.09583009 403.27190035 234.91309572 402.57920109 234.72482395 401.86551094 C234.10971745 399.54224357 233.48261089 397.22238872 232.85546875 394.90234375 C232.4149187 393.24875715 231.97508488 391.59497958 231.53591919 389.94102478 C230.34290069 385.45677792 229.1393357 380.97542211 227.9337883 376.49452972 C226.67073916 371.79301438 225.41724909 367.08895065 224.16235352 362.38525391 C216.77747917 334.72868225 209.31129698 307.09368757 201.82250977 279.46508789 C195.07927209 254.58413107 188.43686229 229.67741155 181.8671875 204.75 C178.48695233 204.75 176.03249813 205.62455622 172.8671875 206.75 Z " fill="#507BE2" transform="translate(177.1328125,44.25)"/>
<path d="M0 0 C3.62632004 2.71334064 5.29242271 5.21320155 6.10546875 9.69921875 C6.70502257 19.22691094 3.11911156 27.55362119 -0.33984375 36.2421875 C0.02625 35.80648437 0.39234375 35.37078125 0.76953125 34.921875 C6.68146532 28.41874752 14.59693974 23.09563206 23.59765625 22.5546875 C27.13645952 22.79146096 27.67155213 23.25209696 30.53515625 25.7421875 C31.23640625 26.5671875 31.93765625 27.3921875 32.66015625 28.2421875 C35.58562065 28.4657943 35.58562065 28.4657943 37.66015625 27.2421875 C41.8783929 26.66697341 43.34849927 27.02642498 46.91015625 29.4921875 C49.19755986 31.77959111 50.55672202 33.26291509 51.66015625 36.2421875 C51.99015625 35.9121875 52.32015625 35.5821875 52.66015625 35.2421875 C56.50515796 34.87945149 58.83835531 34.72856191 62.16015625 36.8046875 C63.66015625 39.2421875 63.66015625 39.2421875 63.72265625 42.6796875 C62.20237705 47.77709423 59.42331838 49.86024961 55.34765625 53.0546875 C51.70018702 54.66635995 48.58564761 54.97325067 44.66015625 54.2421875 C41.38033874 52.17447646 39.81269618 50.47099739 37.66015625 47.2421875 C36.93828125 47.7165625 36.21640625 48.1909375 35.47265625 48.6796875 C32.67653634 50.23308745 30.83329941 51.00420176 27.66015625 51.2421875 C24.23240788 50.26283082 21.81263299 49.11215648 19.66015625 46.2421875 C18.96728292 44.25111468 18.29824484 42.25148773 17.66015625 40.2421875 C16.95890625 40.92925781 16.25765625 41.61632812 15.53515625 42.32421875 C5.41608276 51.93458882 5.41608276 51.93458882 -1.33984375 53.2421875 C-6.09493254 53.01766391 -9.41749185 51.87630443 -13.33984375 49.1796875 C-16.09604098 45.13152282 -16.71878166 42.1111822 -16.33984375 37.2421875 C-14.94349427 31.20611593 -12.82786899 25.44690638 -10.58984375 19.6796875 C-9.11201504 16.22527834 -9.11201504 16.22527834 -9.33984375 12.2421875 C-18.48677063 12.74111078 -24.59812907 16.10759493 -30.96484375 22.6796875 C-35.29365946 27.71988201 -38.05841468 33.06026441 -40.83203125 39.04296875 C-42.19438545 41.93355965 -43.4998914 44.62926547 -45.33984375 47.2421875 C-48.71484375 48.3671875 -48.71484375 48.3671875 -52.33984375 48.2421875 C-55.33984375 46.2421875 -55.33984375 46.2421875 -57.33984375 43.2421875 C-57.06332739 37.70511603 -55.37259951 33.40659331 -52.90234375 28.5546875 C-52.54962402 27.86060791 -52.1969043 27.16652832 -51.83349609 26.45141602 C-44.79836194 13.14463877 -34.68200327 2.64805099 -20.13671875 -2.09765625 C-13.05626855 -3.76887983 -6.37078847 -3.79369334 0 0 Z " fill="#4F7AE0" transform="translate(238.33984375,358.7578125)"/>
<path d="M0 0 C1.31929504 -0.01134979 2.63859009 -0.02269958 3.99786377 -0.03439331 C5.45829834 -0.03175002 6.91873234 -0.0287788 8.37916565 -0.0255127 C9.9184277 -0.03285271 11.45768424 -0.04143874 12.99693298 -0.05117798 C17.17669928 -0.07340944 21.35626854 -0.07632388 25.53608584 -0.07443047 C29.02523396 -0.07431084 32.5143402 -0.0828715 36.00347668 -0.09120798 C44.23469173 -0.11044775 52.46580536 -0.11332372 60.69703674 -0.10656738 C69.18935142 -0.09992506 77.68123191 -0.12279714 86.17345852 -0.15988111 C93.46445295 -0.19056459 100.75530761 -0.20193965 108.04636532 -0.1980443 C112.40109364 -0.19597547 116.75548409 -0.20147645 121.11015129 -0.22593689 C125.20530501 -0.24817954 129.29975213 -0.24634751 133.39490891 -0.22600937 C134.89733363 -0.22259491 136.39980568 -0.22770732 137.90216637 -0.24199295 C139.95480853 -0.26016349 142.00504774 -0.24745875 144.05761719 -0.22705078 C145.77956881 -0.22811954 145.77956881 -0.22811954 147.53630733 -0.2292099 C151.55735938 0.59134326 153.08540707 2.21046078 155.59230042 5.39440918 C155.59230042 8.57431453 155.26345865 10.44042293 153.42793179 13.04944611 C150.7135279 15.03828387 148.56275181 14.7781225 145.22219849 14.78881836 C144.57317265 14.79490946 143.92414681 14.80100057 143.25545353 14.80727625 C141.07662466 14.82395017 138.8983774 14.81912448 136.71949768 14.81433105 C135.1590565 14.82166887 133.59862077 14.83025426 132.03819275 14.83999634 C127.79645367 14.86225132 123.55490862 14.86514105 119.31311917 14.86324883 C115.77422062 14.86312931 112.23536346 14.8716857 108.6964764 14.88002634 C100.34881621 14.8992747 92.00125602 14.902139 83.65357971 14.89538574 C75.03686837 14.88874321 66.42058492 14.91161436 57.80396038 14.94869947 C50.41024285 14.97936872 43.01666315 14.99075955 35.62288326 14.98686266 C31.2050167 14.9847923 26.78748304 14.99031828 22.36967659 15.01475525 C18.21544653 15.03697435 14.0619134 15.03518556 9.90768051 15.01482773 C8.38226089 15.01140904 6.85679479 15.01654373 5.33143806 15.03081131 C3.249936 15.04893878 1.17081486 15.03630899 -0.91061401 15.01586914 C-2.07555106 15.01658165 -3.24048811 15.01729416 -4.44072628 15.01802826 C-7.40769958 14.39440918 -7.40769958 14.39440918 -9.81376743 12.05088043 C-11.40769958 9.39440918 -11.40769958 9.39440918 -11.40769958 6.26940918 C-9.39430853 0.4809099 -5.71104399 0.01855614 0 0 Z " fill="#507CE4" transform="translate(137.40769958496094,295.6055908203125)"/>
<path d="M0 0 C1.50160927 -0.01268921 1.50160927 -0.01268921 3.03355408 -0.02563477 C4.130793 -0.01956207 5.22803192 -0.01348938 6.35852051 -0.00723267 C7.51481461 -0.01248962 8.6711087 -0.01774658 9.86244202 -0.02316284 C13.6952555 -0.03639679 17.52765571 -0.02761239 21.36047363 -0.01748657 C24.01701375 -0.01950632 26.67354118 -0.02241206 29.33007812 -0.02618408 C34.90194195 -0.03164321 40.47368651 -0.02444599 46.04553223 -0.01016235 C52.48887868 0.00616458 58.93194036 0.00087618 65.3752799 -0.01564157 C70.90572724 -0.02925205 76.43608881 -0.03117828 81.96654749 -0.02332556 C85.27039211 -0.01864658 88.57407338 -0.0192067 91.87791443 -0.02793503 C95.56044956 -0.03552804 99.24243287 -0.0239747 102.92492676 -0.00723267 C104.02216568 -0.01330536 105.1194046 -0.01937805 106.24989319 -0.02563477 C107.25096603 -0.01717529 108.25203888 -0.00871582 109.28344727 0 C110.15433235 0.00113108 111.02521744 0.00226215 111.92249298 0.00342751 C114.62940981 0.46391344 115.4857849 1.23052145 117.14172363 3.38095093 C118.01672363 5.75595093 118.01672363 5.75595093 118.14172363 8.38095093 C115.94769378 12.97796585 115.94769378 12.97796585 113.14172363 14.38095093 C111.59474951 14.48387493 110.04344904 14.52474051 108.49308777 14.53485107 C107.02311844 14.54775177 107.02311844 14.54775177 105.52345276 14.56091309 C104.44446213 14.56517303 103.3654715 14.56943298 102.25378418 14.57382202 C100.55364166 14.58608826 100.55364166 14.58608826 98.81915283 14.59860229 C95.05558812 14.62348458 91.29206117 14.63997863 87.52844238 14.65438843 C85.60434005 14.66237394 85.60434005 14.66237394 83.64136696 14.67052078 C78.25151899 14.69175536 72.86168335 14.71088549 67.47180462 14.72214317 C59.74793729 14.73838201 52.02457305 14.77155788 44.30089539 14.82854402 C38.21508871 14.87191451 32.12947938 14.88788826 26.0435276 14.89427567 C23.45470408 14.90100564 20.86588837 14.91627256 18.27716637 14.94016647 C14.65700128 14.97167696 11.03811209 14.97187531 7.41784668 14.96444702 C6.34492874 14.98085236 5.2720108 14.99725769 4.1665802 15.01416016 C-3.07491324 14.95321737 -3.07491324 14.95321737 -7.06303406 12.03979492 C-8.85827637 9.38095093 -8.85827637 9.38095093 -8.85827637 6.25595093 C-7.1320958 1.29318181 -5.20352704 0.00675817 0 0 Z " fill="#507CE4" transform="translate(134.8582763671875,239.61904907226563)"/>
<path d="M0 0 C1.31022881 -0.00856522 1.31022881 -0.00856522 2.64692688 -0.01730347 C3.6075 -0.01842133 4.56807312 -0.01953918 5.55775452 -0.02069092 C7.07252129 -0.02813828 7.07252129 -0.02813828 8.6178894 -0.03573608 C11.96902642 -0.0503793 15.32011612 -0.05716274 18.67127991 -0.06268311 C20.99294029 -0.06843207 23.31460065 -0.07418983 25.63626099 -0.07995605 C30.50788088 -0.09047171 35.37948424 -0.09631092 40.25111389 -0.09979248 C46.5038103 -0.10528328 52.7562896 -0.12932158 59.00891781 -0.15776443 C63.8052027 -0.17635476 68.60143488 -0.18159445 73.39775276 -0.18312836 C75.70351412 -0.18616276 78.00927437 -0.19421761 80.31500053 -0.20731354 C83.5354114 -0.22430119 86.75528622 -0.22251172 89.97572327 -0.21600342 C90.93427216 -0.2252182 91.89282104 -0.23443298 92.88041687 -0.243927 C93.75672256 -0.23835785 94.63302826 -0.2327887 95.53588867 -0.22705078 C96.67824179 -0.22925062 96.67824179 -0.22925062 97.84367275 -0.2314949 C100.41078083 0.24884494 101.29259545 1.05457959 102.83143616 3.14044189 C103.22135304 7.50751098 103.29467685 9.44558086 100.83143616 13.14044189 C98.10646077 14.04876703 96.51012229 14.26943658 93.70793152 14.28088379 C92.86961792 14.28659393 92.03130432 14.29230408 91.16758728 14.29818726 C89.79293808 14.29986404 89.79293808 14.29986404 88.39051819 14.30157471 C87.42275452 14.30653961 86.45499084 14.31150452 85.457901 14.31661987 C82.25167636 14.33124279 79.04550118 14.33804342 75.83924866 14.34356689 C73.61348977 14.34931785 71.3877309 14.35507559 69.16197205 14.36083984 C64.49303455 14.37134993 59.82411429 14.37719268 55.15516663 14.38067627 C49.17061138 14.3861637 43.18628334 14.41019718 37.20179939 14.43864822 C32.6035953 14.45726453 28.00544608 14.46247965 23.40720749 14.46401215 C21.20078666 14.46704102 18.99436684 14.47507743 16.78798294 14.48819733 C13.70219332 14.50523791 10.61696068 14.50338239 7.53114319 14.49688721 C6.61875885 14.50610199 5.70637451 14.51531677 4.76634216 14.52481079 C0.01428546 14.4934525 -3.38230981 14.36226444 -7.16856384 11.14044189 C-8.19743671 7.91664024 -8.48287127 6.03500919 -7.35606384 2.82794189 C-5.30682715 -0.0841313 -3.34481976 0.01307123 0 0 Z " fill="#507CE4" transform="translate(134.16856384277344,183.85955810546875)"/>
</svg>
